<svg width="77" height="77" viewBox="0 0 77 77" fill="none" xmlns="http://www.w3.org/2000/svg">
<g style="mix-blend-mode:darken" opacity="0.7">
<g style="mix-blend-mode:darken">
<path d="M37.971 0.0666199C21.2235 0.0666199 7.64699 13.7791 7.64699 30.6943C7.64699 47.6094 21.2235 61.3219 37.971 61.3219C54.7185 61.3219 68.295 47.6094 68.295 30.6943C68.295 13.7791 54.7185 0.0666199 37.971 0.0666199Z" fill="white"/>
</g>
<g style="mix-blend-mode:darken">
<path d="M37.971 0.333466C21.2235 0.333466 7.64699 14.0459 7.64699 30.9611C7.64699 47.8763 21.2235 61.5887 37.971 61.5887C54.7185 61.5887 68.295 47.8763 68.295 30.9611C68.295 14.0459 54.7185 0.333466 37.971 0.333466Z" fill="#F5F5F5"/>
</g>
<g style="mix-blend-mode:darken">
<path d="M37.971 0.600391C21.2235 0.600391 7.64699 14.3427 7.64699 31.2948C7.64699 48.2468 21.2235 61.9891 37.971 61.9891C54.7185 61.9891 68.295 48.2468 68.295 31.2948C68.295 14.3427 54.7185 0.600391 37.971 0.600391Z" fill="#EBEBEB"/>
</g>
<g style="mix-blend-mode:darken">
<path d="M37.971 0.867359C21.2235 0.867359 7.64699 14.6097 7.64699 31.5617C7.64699 48.5138 21.2235 62.2561 37.971 62.2561C54.7185 62.2561 68.295 48.5138 68.295 31.5617C68.295 14.6097 54.7185 0.867359 37.971 0.867359Z" fill="#E2E2E2"/>
</g>
<g style="mix-blend-mode:darken">
<path d="M37.971 1.1342C21.2235 1.1342 7.64699 14.8765 7.64699 31.8286C7.64699 48.7806 21.2235 62.5229 37.971 62.5229C54.7185 62.5229 68.295 48.7806 68.295 31.8286C68.295 14.8765 54.7185 1.1342 37.971 1.1342Z" fill="#D8D8D8"/>
</g>
<g style="mix-blend-mode:darken">
<path d="M37.971 1.40117C21.2235 1.40117 7.64699 15.1435 7.64699 32.0955C7.64699 49.0476 21.2235 62.7899 37.971 62.7899C54.7185 62.7899 68.295 49.0476 68.295 32.0955C68.295 15.1435 54.7185 1.40117 37.971 1.40117Z" fill="#CECECE"/>
</g>
<g style="mix-blend-mode:darken">
<path d="M37.971 1.60134C21.2235 1.60134 7.64699 15.3736 7.64699 32.3624C7.64699 49.3513 21.2235 63.1235 37.971 63.1235C54.7185 63.1235 68.295 49.3513 68.295 32.3624C68.295 15.3736 54.7185 1.60134 37.971 1.60134Z" fill="#C4C4C4"/>
</g>
<g style="mix-blend-mode:darken">
<path d="M37.971 1.93496C21.2235 1.93496 7.64699 15.7072 7.64699 32.6961C7.64699 49.6849 21.2235 63.4572 37.971 63.4572C54.7185 63.4572 68.295 49.6849 68.295 32.6961C68.295 15.7072 54.7185 1.93496 37.971 1.93496Z" fill="#BABABA"/>
</g>
<g style="mix-blend-mode:darken">
<path d="M37.971 2.2018C21.2235 2.2018 7.64699 15.974 7.64699 32.9629C7.64699 49.9518 21.2235 63.724 37.971 63.724C54.7185 63.724 68.295 49.9518 68.295 32.9629C68.295 15.974 54.7185 2.2018 37.971 2.2018Z" fill="#B1B1B1"/>
</g>
<g style="mix-blend-mode:darken">
<path d="M37.971 2.40209C21.2235 2.40209 7.64699 16.2042 7.64699 33.2299C7.64699 50.2557 21.2235 64.0577 37.971 64.0577C54.7185 64.0577 68.295 50.2557 68.295 33.2299C68.295 16.2042 54.7185 2.40209 37.971 2.40209Z" fill="#A7A7A7"/>
</g>
<g style="mix-blend-mode:darken">
<path d="M37.971 2.66893C21.2235 2.66893 7.64699 16.471 7.64699 33.4967C7.64699 50.5225 21.2235 64.3246 37.971 64.3246C54.7185 64.3246 68.295 50.5225 68.295 33.4967C68.295 16.471 54.7185 2.66893 37.971 2.66893Z" fill="#9D9D9D"/>
</g>
<g style="mix-blend-mode:darken">
<path d="M37.971 3.00255C21.2235 3.00255 7.64699 16.8047 7.64699 33.8304C7.64699 50.8561 21.2235 64.6582 37.971 64.6582C54.7185 64.6582 68.295 50.8561 68.295 33.8304C68.295 16.8047 54.7185 3.00255 37.971 3.00255Z" fill="#939393"/>
</g>
<g style="mix-blend-mode:darken">
<path d="M37.971 3.20274C21.2235 3.20274 7.64699 17.0347 7.64699 34.0973C7.64699 51.1599 21.2235 64.9918 37.971 64.9918C54.7185 64.9918 68.295 51.1599 68.295 34.0973C68.295 17.0347 54.7185 3.20274 37.971 3.20274Z" fill="#898989"/>
</g>
<g style="mix-blend-mode:darken">
<path d="M37.971 3.46967C21.2235 3.46967 7.64699 17.3016 7.64699 34.3642C7.64699 51.4268 21.2235 65.2588 37.971 65.2588C54.7185 65.2588 68.295 51.4268 68.295 34.3642C68.295 17.3016 54.7185 3.46967 37.971 3.46967Z" fill="#808080"/>
</g>
<g style="mix-blend-mode:darken">
<path d="M37.971 3.73664C21.2235 3.73664 7.64699 17.5686 7.64699 34.6312C7.64699 51.6938 21.2235 65.5258 37.971 65.5258C54.7185 65.5258 68.295 51.6938 68.295 34.6312C68.295 17.5686 54.7185 3.73664 37.971 3.73664Z" fill="#767676"/>
</g>
<g style="mix-blend-mode:darken">
<path d="M37.971 4.00352C21.2235 4.00352 7.64699 17.8355 7.64699 34.8981C7.64699 51.9607 21.2235 65.7926 37.971 65.7926C54.7185 65.7926 68.295 51.9607 68.295 34.8981C68.295 17.8355 54.7185 4.00352 37.971 4.00352Z" fill="#6C6C6C"/>
</g>
<g style="mix-blend-mode:darken">
<path d="M37.971 4.27033C21.2235 4.27033 7.64699 18.1322 7.64699 35.2316C7.64699 52.331 21.2235 66.1929 37.971 66.1929C54.7185 66.1929 68.295 52.331 68.295 35.2316C68.295 18.1322 54.7185 4.27033 37.971 4.27033Z" fill="#626262"/>
</g>
<g style="mix-blend-mode:darken">
<path d="M37.971 4.53727C21.2235 4.53727 7.64699 18.3991 7.64699 35.4986C7.64699 52.598 21.2235 66.4598 37.971 66.4598C54.7185 66.4598 68.295 52.598 68.295 35.4986C68.295 18.3991 54.7185 4.53727 37.971 4.53727Z" fill="#585858"/>
</g>
<g style="mix-blend-mode:darken">
<path d="M37.971 4.80413C21.2235 4.80413 7.64699 18.666 7.64699 35.7654C7.64699 52.8648 21.2235 66.7267 37.971 66.7267C54.7185 66.7267 68.295 52.8648 68.295 35.7654C68.295 18.666 54.7185 4.80413 37.971 4.80413Z" fill="#4E4E4E"/>
</g>
<g style="mix-blend-mode:darken">
<path d="M37.971 5.00444C21.2235 5.00444 7.64699 18.8961 7.64699 36.0324C7.64699 53.1687 21.2235 67.0604 37.971 67.0604C54.7185 67.0604 68.295 53.1687 68.295 36.0324C68.295 18.8961 54.7185 5.00444 37.971 5.00444Z" fill="#454545"/>
</g>
<g style="mix-blend-mode:darken">
<path d="M37.971 5.33805C21.2235 5.33805 7.64699 19.2297 7.64699 36.366C7.64699 53.5023 21.2235 67.394 37.971 67.394C54.7185 67.394 68.295 53.5023 68.295 36.366C68.295 19.2297 54.7185 5.33805 37.971 5.33805Z" fill="#3B3B3B"/>
</g>
<g style="mix-blend-mode:darken">
<path d="M37.971 5.60488C21.2235 5.60488 7.64699 19.4966 7.64699 36.6329C7.64699 53.7692 21.2235 67.6609 37.971 67.6609C54.7185 67.6609 68.295 53.7692 68.295 36.6329C68.295 19.4966 54.7185 5.60488 37.971 5.60488Z" fill="#313131"/>
</g>
<g style="mix-blend-mode:darken">
<path d="M37.971 5.80505C21.2235 5.80505 7.64699 19.7266 7.64699 36.8998C7.64699 54.0729 21.2235 67.9945 37.971 67.9945C54.7185 67.9945 68.295 54.0729 68.295 36.8998C68.295 19.7266 54.7185 5.80505 37.971 5.80505Z" fill="#272727"/>
</g>
<g style="mix-blend-mode:darken">
<path d="M37.971 6.07203C21.2235 6.07203 7.64699 19.9936 7.64699 37.1668C7.64699 54.3399 21.2235 68.2615 37.971 68.2615C54.7185 68.2615 68.295 54.3399 68.295 37.1668C68.295 19.9936 54.7185 6.07203 37.971 6.07203Z" fill="#1D1D1D"/>
</g>
<g style="mix-blend-mode:darken">
<path d="M37.971 6.33885C21.2235 6.33885 7.64699 20.2604 7.64699 37.4336C7.64699 54.6067 21.2235 68.5283 37.971 68.5283C54.7185 68.5283 68.295 54.6067 68.295 37.4336C68.295 20.2604 54.7185 6.33885 37.971 6.33885Z" fill="#141414"/>
</g>
<g style="mix-blend-mode:darken">
<path d="M37.971 6.67262C21.2235 6.67262 7.64699 20.5942 7.64699 37.7673C7.64699 54.9405 21.2235 68.8621 37.971 68.8621C54.7185 68.8621 68.295 54.9405 68.295 37.7673C68.295 20.5942 54.7185 6.67262 37.971 6.67262Z" fill="#0A0A0A"/>
</g>
<g style="mix-blend-mode:darken">
<path d="M37.971 6.87276C21.2235 6.87276 7.64699 20.8242 7.64699 38.0342C7.64699 55.2442 21.2235 69.1957 37.971 69.1957C54.7185 69.1957 68.295 55.2442 68.295 38.0342C68.295 20.8242 54.7185 6.87276 37.971 6.87276Z" fill="black"/>
</g>
</g>
<path d="M37.971 7.80693C21.2235 7.80693 7.64699 21.5493 7.64699 38.5013C7.64699 55.4533 21.2235 69.1957 37.971 69.1957C54.7185 69.1957 68.295 55.4533 68.295 38.5013C68.295 21.5493 54.7185 7.80693 37.971 7.80693Z" fill="#FCCB23"/>
<path style="mix-blend-mode:soft-light" d="M37.971 7.80693C21.2235 7.80693 7.64699 21.5493 7.64699 38.5013C7.64699 55.4533 21.2235 69.1957 37.971 69.1957C54.7185 69.1957 68.295 55.4533 68.295 38.5013C68.295 21.5493 54.7185 7.80693 37.971 7.80693Z" fill="url(#paint0_radial_0_1)"/>
<path style="mix-blend-mode:multiply" opacity="0.58" d="M37.971 7.80693C21.2235 7.80693 7.64699 21.5493 7.64699 38.5013C7.64699 55.4533 21.2235 69.1957 37.971 69.1957C54.7185 69.1957 68.295 55.4533 68.295 38.5013C68.295 21.5493 54.7185 7.80693 37.971 7.80693Z" fill="url(#paint1_radial_0_1)"/>
<path d="M21.886 43.0388C22.8723 44.199 23.9772 45.2502 25.1821 46.175L28.8078 48.9775C32.038 51.4464 35.4 53.8486 38.6302 56.1173C39.3508 56.6674 40.0989 57.1796 40.8715 57.652C41.5889 58.2606 42.5078 58.5707 43.4425 58.5194C43.9457 58.4692 44.4279 58.2895 44.8433 57.9976C45.2586 57.7056 45.5933 57.311 45.8156 56.8513C46.05 56.3517 46.163 55.8026 46.1452 55.2498V49.5113C46.1452 48.3102 47.7274 48.5771 48.4525 48.5771C49.1777 48.5771 51.1553 48.5771 52.4737 48.5771C53.035 48.5512 53.5768 48.3609 54.0332 48.0292C54.4896 47.6975 54.841 47.2388 55.0447 46.7088C55.2437 45.7405 55.2437 44.7411 55.0447 43.7728C55.0447 41.5041 55.0447 39.3021 55.0447 37.1001C55.0447 35.9658 55.0447 34.8314 55.0447 33.6971C55.1106 32.6973 55.1106 31.6941 55.0447 30.6943C54.968 30.1552 54.7414 29.6493 54.3912 29.2357C54.041 28.8221 53.5817 28.518 53.067 28.3589C52.5002 28.2565 51.9199 28.2565 51.3531 28.3589H47.5955C47.2 28.3589 46.6726 28.3589 46.343 28.3589C46.0134 28.3589 46.343 27.6916 46.343 27.2913V23.2876C46.5447 22.0585 46.2861 20.7975 45.6179 19.7511C45.2996 19.3728 44.8877 19.0869 44.4244 18.9227C43.961 18.7586 43.4629 18.7221 42.981 18.817C42.0609 18.8142 41.1547 19.0435 40.3441 19.4842C38.6302 20.6853 36.9821 21.9531 35.4 23.2876C32.1039 25.9567 28.8078 28.7593 25.7754 31.762C24.2895 33.0664 22.9617 34.5447 21.8201 36.1659C21.0712 37.1127 20.6632 38.2894 20.6632 39.5023C20.6632 40.7151 21.0712 41.8918 21.8201 42.8386L21.886 43.0388Z" fill="#FDFBF5" stroke="#A47E00" stroke-width="0.07" stroke-miterlimit="10"/>
<path opacity="0.05" d="M37.9709 0.0666504C17.0002 0.0666504 -2.28882e-05 17.2744 -2.28882e-05 38.5013C-2.28882e-05 59.7282 17.0002 76.936 37.9709 76.936C58.9417 76.936 75.9419 59.7282 75.9419 38.5013C75.9419 17.2744 58.9417 0.0666504 37.9709 0.0666504Z" fill="white"/>
<g style="mix-blend-mode:screen">
<g style="mix-blend-mode:screen">
<path d="M38.0369 0.0666504C59.0077 0.0666504 76.0078 17.2744 76.0078 38.5013C76.0078 59.7282 59.0077 76.936 38.0369 76.936C17.0661 76.936 0.065918 59.7282 0.065918 38.5013C0.065918 17.2744 17.0661 0.0666504 38.0369 0.0666504Z" fill="url(#paint2_linear_0_1)" fill-opacity="0.1" style="mix-blend-mode:screen"/>
<path d="M38.0369 0.0666504C59.0077 0.0666504 76.0078 17.2744 76.0078 38.5013C76.0078 59.7282 59.0077 76.936 38.0369 76.936C17.0661 76.936 0.065918 59.7282 0.065918 38.5013C0.065918 17.2744 17.0661 0.0666504 38.0369 0.0666504Z" fill="url(#paint3_linear_0_1)" fill-opacity="0.3" style="mix-blend-mode:screen"/>
</g>
<path style="mix-blend-mode:screen" d="M38.0368 75.5348C45.2702 75.5216 52.3373 73.3384 58.3453 69.2611C64.3532 65.1838 69.0324 59.3954 71.7914 52.6273C74.5505 45.8591 75.2656 38.4151 73.8465 31.2357C72.4273 24.0563 68.9376 17.4638 63.8182 12.2913C58.6989 7.11874 52.1797 3.59827 45.0844 2.17473C37.9891 0.751186 30.6361 1.48844 23.9546 4.29337C17.2732 7.09829 11.563 11.845 7.54572 17.9337C3.52844 24.0223 1.38433 31.1797 1.38432 38.5014C1.40178 48.3294 5.27108 57.7488 12.1429 64.692C19.0147 71.6352 28.3274 75.5348 38.0368 75.5348ZM38.0368 76.8693C30.5213 76.8825 23.1709 74.6379 16.9165 70.4197C10.6621 66.2015 5.7851 60.1996 2.903 53.1738C0.0209006 46.1481 -0.736606 38.4146 0.72641 30.9528C2.18943 23.491 5.80715 16.6365 11.1215 11.2573C16.4358 5.87807 23.2076 2.21615 30.5794 0.735264C37.9511 -0.745619 45.5913 0.0211617 52.5322 2.93846C59.4732 5.85576 65.4028 10.7923 69.5701 17.1231C73.7374 23.4539 75.9549 30.894 75.9419 38.5014C75.9419 43.5399 74.9614 48.5291 73.0565 53.1842C71.1516 57.8392 68.3595 62.0688 64.8397 65.6316C61.3199 69.1944 57.1413 72.0206 52.5425 73.9487C47.9436 75.8769 43.0146 76.8693 38.0368 76.8693V76.8693Z" fill="url(#paint4_linear_0_1)"/>
</g>
<defs>
<radialGradient id="paint0_radial_0_1" cx="0" cy="0" r="1" gradientUnits="userSpaceOnUse" gradientTransform="translate(37.971 38.5013) rotate(180) scale(30.324 30.6944)">
<stop stop-color="white"/>
<stop offset="1"/>
</radialGradient>
<radialGradient id="paint1_radial_0_1" cx="0" cy="0" r="1" gradientUnits="userSpaceOnUse" gradientTransform="translate(37.971 38.5013) rotate(180) scale(30.324 30.6944)">
<stop offset="0.56" stop-color="white"/>
<stop offset="0.63" stop-color="#FEFDFC"/>
<stop offset="0.69" stop-color="#FAF8F2"/>
<stop offset="0.74" stop-color="#F4F0E1"/>
<stop offset="0.79" stop-color="#ECE4C9"/>
<stop offset="0.84" stop-color="#E1D4AA"/>
<stop offset="0.89" stop-color="#D3C184"/>
<stop offset="0.93" stop-color="#C3AA57"/>
<stop offset="0.97" stop-color="#B19125"/>
<stop offset="1" stop-color="#A47E00"/>
</radialGradient>
<linearGradient id="paint2_linear_0_1" x1="61.5535" y1="-80.5967" x2="-72.0252" y2="-1.36936" gradientUnits="userSpaceOnUse">
<stop stop-color="#FAFAFA" stop-opacity="0.09"/>
<stop offset="0.145833" stop-color="white"/>
<stop offset="0.541667" stop-color="white"/>
<stop offset="0.864583" stop-color="#E0E0E0" stop-opacity="0"/>
<stop offset="1" stop-color="white" stop-opacity="0"/>
</linearGradient>
<linearGradient id="paint3_linear_0_1" x1="69.8473" y1="8.4907" x2="-1.29936" y2="19.7398" gradientUnits="userSpaceOnUse">
<stop stop-color="#FAFAFA"/>
<stop offset="0.145833" stop-color="white" stop-opacity="0"/>
<stop offset="0.541667" stop-color="white" stop-opacity="0.02"/>
<stop offset="0.864583" stop-color="white" stop-opacity="0"/>
<stop offset="1" stop-color="white"/>
</linearGradient>
<linearGradient id="paint4_linear_0_1" x1="56.9551" y1="5.20464" x2="18.3552" y2="71.3256" gradientUnits="userSpaceOnUse">
<stop stop-color="white"/>
<stop offset="0.51" stop-color="white" stop-opacity="0"/>
<stop offset="1" stop-color="white"/>
</linearGradient>
</defs>
</svg>
