<svg width="140" height="140" viewBox="0 0 140 140" fill="none" xmlns="http://www.w3.org/2000/svg">
<g style="mix-blend-mode:darken" opacity="0.7">
<g style="mix-blend-mode:darken">
<path d="M70.1215 139.505C100.996 139.505 126.024 114.597 126.024 83.8726C126.024 53.1478 100.996 28.2405 70.1215 28.2405C39.2473 28.2405 14.2188 53.1478 14.2188 83.8726C14.2188 114.597 39.2473 139.505 70.1215 139.505Z" fill="white"/>
</g>
<g style="mix-blend-mode:darken">
<path d="M70.1215 139.02C100.996 139.02 126.024 114.113 126.024 83.3877C126.024 52.663 100.996 27.7556 70.1215 27.7556C39.2473 27.7556 14.2188 52.663 14.2188 83.3877C14.2188 114.113 39.2473 139.02 70.1215 139.02Z" fill="#F5F5F5"/>
</g>
<g style="mix-blend-mode:darken">
<path d="M70.1215 138.656C100.996 138.656 126.024 113.695 126.024 82.903C126.024 52.1113 100.996 27.1497 70.1215 27.1497C39.2473 27.1497 14.2188 52.1113 14.2188 82.903C14.2188 113.695 39.2473 138.656 70.1215 138.656Z" fill="#EBEBEB"/>
</g>
<g style="mix-blend-mode:darken">
<path d="M70.1215 138.171C100.996 138.171 126.024 113.21 126.024 82.4181C126.024 51.6264 100.996 26.6648 70.1215 26.6648C39.2473 26.6648 14.2188 51.6264 14.2188 82.4181C14.2188 113.21 39.2473 138.171 70.1215 138.171Z" fill="#E2E2E2"/>
</g>
<g style="mix-blend-mode:darken">
<path d="M70.1215 137.565C100.996 137.565 126.024 112.604 126.024 81.8122C126.024 51.0204 100.996 26.0588 70.1215 26.0588C39.2473 26.0588 14.2188 51.0204 14.2188 81.8122C14.2188 112.604 39.2473 137.565 70.1215 137.565Z" fill="#D8D8D8"/>
</g>
<g style="mix-blend-mode:darken">
<path d="M70.1215 137.081C100.996 137.081 126.024 112.119 126.024 81.3273C126.024 50.5356 100.996 25.574 70.1215 25.574C39.2473 25.574 14.2188 50.5356 14.2188 81.3273C14.2188 112.119 39.2473 137.081 70.1215 137.081Z" fill="#CECECE"/>
</g>
<g style="mix-blend-mode:darken">
<path d="M70.1215 136.717C100.996 136.717 126.024 111.701 126.024 80.8424C126.024 49.9838 100.996 24.9679 70.1215 24.9679C39.2473 24.9679 14.2188 49.9838 14.2188 80.8424C14.2188 111.701 39.2473 136.717 70.1215 136.717Z" fill="#C4C4C4"/>
</g>
<g style="mix-blend-mode:darken">
<path d="M70.1215 136.232C100.996 136.232 126.024 111.216 126.024 80.3577C126.024 49.499 100.996 24.4832 70.1215 24.4832C39.2473 24.4832 14.2188 49.499 14.2188 80.3577C14.2188 111.216 39.2473 136.232 70.1215 136.232Z" fill="#BABABA"/>
</g>
<g style="mix-blend-mode:darken">
<path d="M70.1215 135.747C100.996 135.747 126.024 110.732 126.024 79.8729C126.024 49.0143 100.996 23.9984 70.1215 23.9984C39.2473 23.9984 14.2188 49.0143 14.2188 79.8729C14.2188 110.732 39.2473 135.747 70.1215 135.747Z" fill="#B1B1B1"/>
</g>
<g style="mix-blend-mode:darken">
<path d="M70.1215 135.263C100.996 135.263 126.024 110.192 126.024 79.2668C126.024 48.3413 100.996 23.2711 70.1215 23.2711C39.2473 23.2711 14.2188 48.3413 14.2188 79.2668C14.2188 110.192 39.2473 135.263 70.1215 135.263Z" fill="#A7A7A7"/>
</g>
<g style="mix-blend-mode:darken">
<path d="M70.1215 134.778C100.996 134.778 126.024 109.708 126.024 78.782C126.024 47.8564 100.996 22.7863 70.1215 22.7863C39.2473 22.7863 14.2188 47.8564 14.2188 78.782C14.2188 109.708 39.2473 134.778 70.1215 134.778Z" fill="#9D9D9D"/>
</g>
<g style="mix-blend-mode:darken">
<path d="M70.1215 134.293C100.996 134.293 126.024 109.223 126.024 78.2972C126.024 47.3717 100.996 22.3015 70.1215 22.3015C39.2473 22.3015 14.2188 47.3717 14.2188 78.2972C14.2188 109.223 39.2473 134.293 70.1215 134.293Z" fill="#939393"/>
</g>
<g style="mix-blend-mode:darken">
<path d="M70.1215 133.929C100.996 133.929 126.024 108.805 126.024 77.8124C126.024 46.8198 100.996 21.6954 70.1215 21.6954C39.2473 21.6954 14.2188 46.8198 14.2188 77.8124C14.2188 108.805 39.2473 133.929 70.1215 133.929Z" fill="#898989"/>
</g>
<g style="mix-blend-mode:darken">
<path d="M70.1215 133.323C100.996 133.323 126.024 108.199 126.024 77.2064C126.024 46.2139 100.996 21.0895 70.1215 21.0895C39.2473 21.0895 14.2188 46.2139 14.2188 77.2064C14.2188 108.199 39.2473 133.323 70.1215 133.323Z" fill="#808080"/>
</g>
<g style="mix-blend-mode:darken">
<path d="M70.1215 132.838C100.996 132.838 126.024 107.714 126.024 76.7215C126.024 45.729 100.996 20.6046 70.1215 20.6046C39.2473 20.6046 14.2188 45.729 14.2188 76.7215C14.2188 107.714 39.2473 132.838 70.1215 132.838Z" fill="#767676"/>
</g>
<g style="mix-blend-mode:darken">
<path d="M70.1215 132.354C100.996 132.354 126.024 107.229 126.024 76.2368C126.024 45.2443 100.996 20.1199 70.1215 20.1199C39.2473 20.1199 14.2188 45.2443 14.2188 76.2368C14.2188 107.229 39.2473 132.354 70.1215 132.354Z" fill="#6C6C6C"/>
</g>
<g style="mix-blend-mode:darken">
<path d="M70.1215 131.99C100.996 131.99 126.024 106.811 126.024 75.7519C126.024 44.6925 100.996 19.5138 70.1215 19.5138C39.2473 19.5138 14.2188 44.6925 14.2188 75.7519C14.2188 106.811 39.2473 131.99 70.1215 131.99Z" fill="#626262"/>
</g>
<g style="mix-blend-mode:darken">
<path d="M70.1215 131.505C100.996 131.505 126.024 106.327 126.024 75.2672C126.024 44.2077 100.996 19.0291 70.1215 19.0291C39.2473 19.0291 14.2188 44.2077 14.2188 75.2672C14.2188 106.327 39.2473 131.505 70.1215 131.505Z" fill="#585858"/>
</g>
<g style="mix-blend-mode:darken">
<path d="M70.1215 130.899C100.996 130.899 126.024 105.721 126.024 74.6611C126.024 43.6016 100.996 18.423 70.1215 18.423C39.2473 18.423 14.2188 43.6016 14.2188 74.6611C14.2188 105.721 39.2473 130.899 70.1215 130.899Z" fill="#4E4E4E"/>
</g>
<g style="mix-blend-mode:darken">
<path d="M70.1215 130.536C100.996 130.536 126.024 105.303 126.024 74.1763C126.024 43.0499 100.996 17.817 70.1215 17.817C39.2473 17.817 14.2188 43.0499 14.2188 74.1763C14.2188 105.303 39.2473 130.536 70.1215 130.536Z" fill="#454545"/>
</g>
<g style="mix-blend-mode:darken">
<path d="M70.1215 130.051C100.996 130.051 126.024 104.818 126.024 73.6915C126.024 42.5651 100.996 17.3322 70.1215 17.3322C39.2473 17.3322 14.2188 42.5651 14.2188 73.6915C14.2188 104.818 39.2473 130.051 70.1215 130.051Z" fill="#3B3B3B"/>
</g>
<g style="mix-blend-mode:darken">
<path d="M70.1215 129.566C100.996 129.566 126.024 104.333 126.024 73.2068C126.024 42.0803 100.996 16.8474 70.1215 16.8474C39.2473 16.8474 14.2188 42.0803 14.2188 73.2068C14.2188 104.333 39.2473 129.566 70.1215 129.566Z" fill="#313131"/>
</g>
<g style="mix-blend-mode:darken">
<path d="M70.1215 129.081C100.996 129.081 126.024 103.794 126.024 72.6007C126.024 41.4073 100.996 16.1201 70.1215 16.1201C39.2473 16.1201 14.2188 41.4073 14.2188 72.6007C14.2188 103.794 39.2473 129.081 70.1215 129.081Z" fill="#272727"/>
</g>
<g style="mix-blend-mode:darken">
<path d="M70.1215 128.596C100.996 128.596 126.024 103.309 126.024 72.1158C126.024 40.9224 100.996 15.6353 70.1215 15.6353C39.2473 15.6353 14.2188 40.9224 14.2188 72.1158C14.2188 103.309 39.2473 128.596 70.1215 128.596Z" fill="#1D1D1D"/>
</g>
<g style="mix-blend-mode:darken">
<path d="M70.1215 128.112C100.996 128.112 126.024 102.824 126.024 71.631C126.024 40.4377 100.996 15.1505 70.1215 15.1505C39.2473 15.1505 14.2188 40.4377 14.2188 71.631C14.2188 102.824 39.2473 128.112 70.1215 128.112Z" fill="#141414"/>
</g>
<g style="mix-blend-mode:darken">
<path d="M70.1215 127.627C100.996 127.627 126.024 102.34 126.024 71.1463C126.024 39.953 100.996 14.6658 70.1215 14.6658C39.2473 14.6658 14.2188 39.953 14.2188 71.1463C14.2188 102.34 39.2473 127.627 70.1215 127.627Z" fill="#0A0A0A"/>
</g>
<g style="mix-blend-mode:darken">
<path d="M70.1215 127.263C100.996 127.263 126.024 101.922 126.024 70.6614C126.024 39.4012 100.996 14.0597 70.1215 14.0597C39.2473 14.0597 14.2188 39.4012 14.2188 70.6614C14.2188 101.922 39.2473 127.263 70.1215 127.263Z" fill="black"/>
</g>
</g>
<path d="M70 125.941C100.928 125.941 126 100.869 126 69.9407C126 39.0127 100.928 13.9407 70 13.9407C39.0721 13.9407 14 39.0127 14 69.9407C14 100.869 39.0721 125.941 70 125.941Z" fill="#FCCB23"/>
<path style="mix-blend-mode:soft-light" d="M70 125.941C100.928 125.941 126 100.869 126 69.9407C126 39.0127 100.928 13.9407 70 13.9407C39.0721 13.9407 14 39.0127 14 69.9407C14 100.869 39.0721 125.941 70 125.941Z" fill="url(#paint0_radial_0_1)"/>
<path style="mix-blend-mode:multiply" opacity="0.58" d="M70 125.941C100.928 125.941 126 100.869 126 69.9407C126 39.0127 100.928 13.9407 70 13.9407C39.0721 13.9407 14 39.0127 14 69.9407C14 100.869 39.0721 125.941 70 125.941Z" fill="url(#paint1_radial_0_1)"/>
<path d="M31.9931 57.9716C32.2392 57.8978 32.6329 57.8239 33.1743 57.7501C33.7156 57.6517 34.2693 57.6025 34.8352 57.6025C35.3766 57.6025 35.8564 57.6394 36.2747 57.7132C36.7176 57.787 37.0867 57.9347 37.382 58.1561C37.6773 58.3776 37.8987 58.6852 38.0464 59.0789C38.194 59.448 38.2678 59.9401 38.2678 60.5553V64.1725C38.883 63.9264 39.4613 63.7542 40.0026 63.6557C40.5686 63.5573 41.1837 63.5081 41.8481 63.5081C43.0292 63.5081 44.1488 63.7172 45.2069 64.1356C46.265 64.5539 47.2001 65.169 48.0121 65.9811C48.8241 66.7685 49.4639 67.7527 49.9314 68.9339C50.3989 70.115 50.6327 71.4806 50.6327 73.0309C50.6327 74.6303 50.3866 76.0329 49.8945 77.2386C49.427 78.4197 48.7626 79.404 47.9014 80.1914C47.0401 80.9788 45.982 81.5817 44.7271 82C43.4968 82.3937 42.1311 82.5906 40.6301 82.5906C39.006 82.5906 37.6281 82.3937 36.4962 82C35.3643 81.6309 34.4046 81.1634 33.6172 80.5974C32.5345 79.8346 31.9931 78.8503 31.9931 77.6446V57.9716ZM40.6301 77.6446C41.762 77.6446 42.6355 77.2632 43.2507 76.5004C43.8905 75.713 44.2104 74.5565 44.2104 73.0309C44.2104 71.4806 43.8905 70.3241 43.2507 69.5613C42.6109 68.7985 41.7497 68.4171 40.667 68.4171C40.1749 68.4171 39.7442 68.4663 39.3751 68.5648C39.0306 68.6632 38.6492 68.8108 38.2309 69.0077V77.0541C38.5016 77.2263 38.8215 77.3739 39.1906 77.497C39.5843 77.5954 40.0641 77.6446 40.6301 77.6446ZM72.2562 73.0309C72.2562 74.5565 72.0224 75.9222 71.5549 77.1279C71.0874 78.309 70.423 79.3056 69.5618 80.1176C68.7251 80.9296 67.7163 81.5448 66.5351 81.9631C65.354 82.3814 64.0376 82.5906 62.5858 82.5906C61.134 82.5906 59.8175 82.3691 58.6364 81.9262C57.4553 81.4833 56.4341 80.8558 55.5729 80.0438C54.7362 79.2071 54.0842 78.1983 53.6166 77.0171C53.1491 75.836 52.9153 74.5073 52.9153 73.0309C52.9153 71.5791 53.1491 70.2626 53.6166 69.0815C54.0842 67.9004 54.7362 66.9038 55.5729 66.0918C56.4341 65.2552 57.4553 64.6154 58.6364 64.1725C59.8175 63.7295 61.134 63.5081 62.5858 63.5081C64.0376 63.5081 65.354 63.7419 66.5351 64.2094C67.7163 64.6523 68.7251 65.2921 69.5618 66.1287C70.423 66.9407 71.0874 67.9373 71.5549 69.1184C72.0224 70.2995 72.2562 71.6037 72.2562 73.0309ZM59.3377 73.0309C59.3377 74.5319 59.6207 75.6884 60.1866 76.5004C60.7772 77.2878 61.5892 77.6815 62.6227 77.6815C63.6562 77.6815 64.4436 77.2755 64.9849 76.4635C65.5509 75.6515 65.8338 74.5073 65.8338 73.0309C65.8338 71.5545 65.5509 70.4226 64.9849 69.6351C64.419 68.8231 63.6192 68.4171 62.5858 68.4171C61.5523 68.4171 60.7526 68.8231 60.1866 69.6351C59.6207 70.4226 59.3377 71.5545 59.3377 73.0309ZM77.654 77.4232C77.3833 76.808 77.088 76.119 76.7681 75.3562C76.4729 74.5934 76.153 73.7199 75.8085 72.7356C75.4886 71.7513 75.1441 70.6317 74.775 69.3768C74.4305 68.0972 74.0614 66.6331 73.6677 64.9845C74.0122 64.64 74.4674 64.3447 75.0334 64.0986C75.6239 63.828 76.2637 63.6926 76.9527 63.6926C77.8139 63.6926 78.5275 63.8772 79.0935 64.2463C79.6594 64.5908 80.0777 65.2552 80.3484 66.2394L83.2643 76.3897H83.4119C83.7072 75.5531 83.9902 74.6426 84.2609 73.6583C84.5562 72.6741 84.8391 71.6652 85.1098 70.6317C85.3805 69.5736 85.6265 68.5278 85.848 67.4944C86.0941 66.4363 86.3032 65.4028 86.4755 64.3939C87.3613 63.9264 88.3333 63.6926 89.3914 63.6926C90.2526 63.6926 90.9662 63.8772 91.5321 64.2463C92.0981 64.6154 92.3811 65.2552 92.3811 66.1656C92.3811 66.83 92.295 67.6051 92.1227 68.4909C91.9505 69.3522 91.7167 70.2749 91.4214 71.2592C91.1507 72.2435 90.8186 73.2646 90.4248 74.3227C90.0557 75.3562 89.662 76.3774 89.2437 77.3863C88.8254 78.3951 88.3948 79.3548 87.9519 80.2652C87.509 81.1511 87.0783 81.9508 86.66 82.6644C85.971 83.8701 85.3313 84.8544 84.7407 85.6172C84.1501 86.38 83.5842 86.9705 83.0428 87.3889C82.5015 87.8318 81.9602 88.1271 81.4188 88.2747C80.8775 88.4469 80.3115 88.5331 79.7209 88.5331C78.6875 88.5331 77.8508 88.2255 77.2111 87.6103C76.5713 86.9952 76.1899 86.1954 76.0669 85.2112C76.8543 84.596 77.6417 83.907 78.4291 83.1442C79.2165 82.406 79.9301 81.6432 80.5699 80.8558C80.1516 80.7328 79.6963 80.4498 79.2042 80.0069C78.7367 79.5393 78.2199 78.6781 77.654 77.4232ZM110.311 76.648C110.311 78.5182 109.61 79.9823 108.207 81.0403C106.805 82.0984 104.738 82.6275 102.007 82.6275C100.973 82.6275 100.013 82.5537 99.1275 82.406C98.2417 82.2584 97.4789 82.0369 96.8391 81.7416C96.2239 81.4217 95.7318 81.028 95.3627 80.5605C95.0182 80.093 94.846 79.5393 94.846 78.8996C94.846 78.309 94.969 77.8169 95.2151 77.4232C95.4611 77.0048 95.7564 76.6604 96.1009 76.3897C96.8145 76.7834 97.6265 77.1402 98.537 77.4601C99.472 77.7553 100.542 77.903 101.748 77.903C102.511 77.903 103.089 77.7923 103.483 77.5708C103.901 77.3493 104.11 77.0541 104.11 76.685C104.11 76.3405 103.963 76.0698 103.667 75.8729C103.372 75.6761 102.88 75.5161 102.191 75.3931L101.084 75.1716C98.943 74.7533 97.3435 74.1013 96.2855 73.2154C95.252 72.305 94.7352 71.0131 94.7352 69.3399C94.7352 68.4294 94.9321 67.6051 95.3258 66.8669C95.7195 66.1287 96.2732 65.5135 96.9867 65.0214C97.7003 64.5293 98.5493 64.1479 99.5335 63.8772C100.542 63.6065 101.65 63.4712 102.855 63.4712C103.766 63.4712 104.615 63.545 105.402 63.6926C106.214 63.8157 106.916 64.0125 107.506 64.2832C108.097 64.5539 108.564 64.9107 108.909 65.3536C109.253 65.7719 109.425 66.2763 109.425 66.8669C109.425 67.4329 109.315 67.925 109.093 68.3433C108.896 68.737 108.638 69.0692 108.318 69.3399C108.121 69.2168 107.826 69.0938 107.432 68.9708C107.039 68.8231 106.608 68.7001 106.14 68.6017C105.673 68.4786 105.193 68.3802 104.701 68.3064C104.233 68.2326 103.803 68.1957 103.409 68.1957C102.597 68.1957 101.97 68.2941 101.527 68.4909C101.084 68.6632 100.862 68.9462 100.862 69.3399C100.862 69.6105 100.985 69.832 101.231 70.0042C101.477 70.1765 101.945 70.3364 102.634 70.4841L103.778 70.7424C106.14 71.2838 107.814 72.0343 108.798 72.994C109.807 73.929 110.311 75.147 110.311 76.648Z" fill="white"/>
<path d="M31.9931 57.9716L31.6598 56.8605L30.8331 57.1085V57.9716H31.9931ZM33.1743 57.7501L33.331 58.8995L33.3565 58.896L33.3818 58.8914L33.1743 57.7501ZM36.2747 57.7132L36.0731 58.8556L36.084 58.8574L36.2747 57.7132ZM37.382 58.1561L36.686 59.0841H36.686L37.382 58.1561ZM38.0464 59.0789L36.9602 59.4862L36.9647 59.498L36.9693 59.5097L38.0464 59.0789ZM38.2678 64.1725H37.1078V65.8858L38.6987 65.2495L38.2678 64.1725ZM40.0026 63.6557L39.8038 62.5129L39.7951 62.5144L40.0026 63.6557ZM45.2069 64.1356L45.6334 63.0568L45.2069 64.1356ZM48.0121 65.9811L47.1918 66.8013L47.1981 66.8076L47.2046 66.8138L48.0121 65.9811ZM49.9314 68.9339L48.8528 69.3608L49.9314 68.9339ZM49.8945 77.2386L48.8204 76.8002L48.8159 76.8117L49.8945 77.2386ZM47.9014 80.1914L47.1186 79.3353L47.9014 80.1914ZM44.7271 82L45.0807 83.1049L45.0939 83.1005L44.7271 82ZM36.4962 82L36.8772 80.9044L36.8665 80.9007L36.8558 80.8972L36.4962 82ZM33.6172 80.5974L34.2942 79.6554L34.2853 79.6491L33.6172 80.5974ZM43.2507 76.5004L42.3504 75.7689L42.3477 75.7722L43.2507 76.5004ZM43.2507 69.5613L44.1395 68.8159L43.2507 69.5613ZM39.3751 68.5648L39.0763 67.4439L39.0663 67.4466L39.0565 67.4494L39.3751 68.5648ZM38.2309 69.0077L37.737 67.9581L37.0709 68.2715V69.0077H38.2309ZM38.2309 77.0541H37.0709V77.6908L37.6082 78.0327L38.2309 77.0541ZM39.1906 77.497L38.8238 78.5975L38.866 78.6115L38.9092 78.6223L39.1906 77.497ZM32.3265 59.0827C32.4805 59.0365 32.7984 58.9721 33.331 58.8995L33.0175 56.6008C32.4675 56.6758 31.9979 56.7591 31.6598 56.8605L32.3265 59.0827ZM33.3818 58.8914C33.8527 58.8058 34.3369 58.7625 34.8352 58.7625V56.4425C34.2017 56.4425 33.5785 56.4976 32.9668 56.6088L33.3818 58.8914ZM34.8352 58.7625C35.3264 58.7625 35.7365 58.7962 36.0731 58.8556L36.4763 56.5709C35.9762 56.4826 35.4267 56.4425 34.8352 56.4425V58.7625ZM36.084 58.8574C36.3828 58.9072 36.5683 58.9958 36.686 59.0841L38.078 57.2281C37.6052 56.8735 37.0524 56.6668 36.4654 56.569L36.084 58.8574ZM36.686 59.0841C36.7805 59.155 36.8792 59.2701 36.9602 59.4862L39.1325 58.6716C38.9183 58.1003 38.574 57.6002 38.078 57.2281L36.686 59.0841ZM36.9693 59.5097C37.0406 59.6878 37.1078 60.0156 37.1078 60.5553H39.4278C39.4278 59.8647 39.3475 59.2082 39.1234 58.6481L36.9693 59.5097ZM37.1078 60.5553V64.1725H39.4278V60.5553H37.1078ZM38.6987 65.2495C39.2558 65.0266 39.7588 64.8791 40.2101 64.797L39.7951 62.5144C39.1638 62.6292 38.5102 62.8262 37.837 63.0954L38.6987 65.2495ZM40.2014 64.7986C40.6924 64.7132 41.2403 64.6681 41.8481 64.6681V62.3481C41.1272 62.3481 40.4447 62.4014 39.8039 62.5129L40.2014 64.7986ZM41.8481 64.6681C42.8889 64.6681 43.8633 64.8517 44.7804 65.2143L45.6334 63.0568C44.4344 62.5828 43.1696 62.3481 41.8481 62.3481V64.6681ZM44.7804 65.2143C45.6896 65.5737 46.4909 66.1004 47.1918 66.8013L48.8323 65.1608C47.9092 64.2377 46.8405 63.534 45.6334 63.0568L44.7804 65.2143ZM47.2046 66.8138C47.8847 67.4734 48.4384 68.3138 48.8528 69.3608L51.01 68.5069C50.4894 67.1917 49.7635 66.0636 48.8196 65.1483L47.2046 66.8138ZM48.8528 69.3608C49.2561 70.3797 49.4727 71.5955 49.4727 73.0309H51.7927C51.7927 71.3658 51.5417 69.8503 51.01 68.5069L48.8528 69.3608ZM49.4727 73.0309C49.4727 74.5133 49.2445 75.7615 48.8205 76.8003L50.9685 77.677C51.5288 76.3043 51.7927 74.7473 51.7927 73.0309H49.4727ZM48.8159 76.8117C48.4073 77.8439 47.8387 78.6769 47.1186 79.3353L48.6841 81.0475C49.6864 80.1311 50.4466 78.9956 50.9731 77.6655L48.8159 76.8117ZM47.1186 79.3353C46.3924 79.9993 45.4816 80.5258 44.3603 80.8995L45.0939 83.1005C46.4825 82.6376 47.6878 81.9584 48.6841 81.0475L47.1186 79.3353ZM44.3736 80.8952C43.2743 81.247 42.0301 81.4306 40.6301 81.4306V83.7506C42.2321 83.7506 43.7192 83.5405 45.0806 83.1048L44.3736 80.8952ZM40.6301 81.4306C39.0928 81.4306 37.8517 81.2433 36.8772 80.9044L36.1151 83.0956C37.4044 83.5441 38.9193 83.7506 40.6301 83.7506V81.4306ZM36.8558 80.8972C35.8125 80.557 34.9656 80.138 34.2942 79.6555L32.9402 81.5394C33.8436 82.1887 34.916 82.7048 36.1365 83.1028L36.8558 80.8972ZM34.2853 79.6491C33.4755 79.0786 33.1531 78.4317 33.1531 77.6446H30.8331C30.8331 79.269 31.5934 80.5906 32.9491 81.5457L34.2853 79.6491ZM33.1531 77.6446V57.9716H30.8331V77.6446H33.1531ZM40.6301 78.8046C42.0517 78.8046 43.2826 78.3087 44.1537 77.2286L42.3477 75.7722C41.9885 76.2177 41.4723 76.4846 40.6301 76.4846V78.8046ZM44.151 77.2319C45.0251 76.1561 45.3704 74.6942 45.3704 73.0309H43.0504C43.0504 74.4188 42.7558 75.2699 42.3504 75.7689L44.151 77.2319ZM45.3704 73.0309C45.3704 71.3522 45.0289 69.8764 44.1395 68.8159L42.3619 70.3068C42.752 70.7719 43.0504 71.6091 43.0504 73.0309H45.3704ZM44.1395 68.8159C43.2583 67.7653 42.0586 67.2571 40.667 67.2571V69.5771C41.4408 69.5771 41.9635 69.8318 42.3619 70.3068L44.1395 68.8159ZM40.667 67.2571C40.1013 67.2571 39.5662 67.3133 39.0763 67.4439L39.674 69.6856C39.9223 69.6194 40.2484 69.5771 40.667 69.5771V67.2571ZM39.0565 67.4494C38.6375 67.5691 38.1965 67.7418 37.737 67.9581L38.7249 70.0573C39.1019 69.8798 39.4238 69.7573 39.6938 69.6801L39.0565 67.4494ZM37.0709 69.0077V77.0541H39.3909V69.0077H37.0709ZM37.6082 78.0327C37.9737 78.2653 38.383 78.4505 38.8238 78.5975L39.5574 76.3965C39.26 76.2974 39.0296 76.1873 38.8537 76.0754L37.6082 78.0327ZM38.9092 78.6223C39.4231 78.7508 40.0035 78.8046 40.6301 78.8046V76.4846C40.1248 76.4846 39.7455 76.44 39.4719 76.3716L38.9092 78.6223ZM71.5549 77.1279L72.6335 77.5548L72.6364 77.5473L71.5549 77.1279ZM69.5618 80.1176L68.766 79.2736L68.7599 79.2793L68.7538 79.2852L69.5618 80.1176ZM66.5351 81.9631L66.1479 80.8696L66.5351 81.9631ZM58.6364 81.9262L58.2291 83.0123L58.6364 81.9262ZM55.5729 80.0438L54.7526 80.864L54.7647 80.8761L54.7771 80.8878L55.5729 80.0438ZM53.6166 77.0172L52.5381 77.4441V77.4441L53.6166 77.0172ZM53.6166 69.0815L52.5381 68.6546V68.6546L53.6166 69.0815ZM55.5729 66.0918L56.3808 66.9242L56.3811 66.9238L55.5729 66.0918ZM58.6364 64.1725L59.0437 65.2586H59.0437L58.6364 64.1725ZM66.5351 64.2094L66.1082 65.288L66.118 65.2918L66.1278 65.2955L66.5351 64.2094ZM69.5618 66.1287L68.7415 66.9489L68.7536 66.961L68.766 66.9727L69.5618 66.1287ZM71.5549 69.1184L70.4763 69.5453L71.5549 69.1184ZM60.1866 76.5004L59.235 77.1637L59.2465 77.1803L59.2586 77.1964L60.1866 76.5004ZM64.9849 76.4635L64.0333 75.8002L64.0264 75.8101L64.0197 75.82L64.9849 76.4635ZM64.9849 69.6351L64.0333 70.2984L64.0381 70.3053L64.043 70.3122L64.9849 69.6351ZM60.1866 69.6351L61.1286 70.3122L61.1335 70.3053L61.1383 70.2984L60.1866 69.6351ZM71.0962 73.0309C71.0962 74.4383 70.8806 75.6582 70.4734 76.7085L72.6364 77.5473C73.1642 76.1861 73.4162 74.6747 73.4162 73.0309H71.0962ZM70.4763 76.7009C70.0667 77.7358 69.4946 78.5866 68.766 79.2736L70.3575 80.9616C71.3513 80.0246 72.108 78.8822 72.6335 77.5548L70.4763 76.7009ZM68.7538 79.2852C68.0458 79.9724 67.1836 80.5028 66.1479 80.8696L66.9224 83.0565C68.2489 82.5867 69.4045 81.8868 70.3697 80.95L68.7538 79.2852ZM66.1479 80.8696C65.1091 81.2375 63.9262 81.4306 62.5858 81.4306V83.7506C64.1489 83.7506 65.5989 83.5253 66.9224 83.0565L66.1479 80.8696ZM62.5858 81.4306C61.2524 81.4306 60.0765 81.2273 59.0437 80.84L58.2291 83.0123C59.5585 83.5109 61.0156 83.7506 62.5858 83.7506V81.4306ZM59.0437 80.84C57.9973 80.4476 57.1105 79.8993 56.3686 79.1998L54.7771 80.8878C55.7577 81.8123 56.9133 82.5189 58.2291 83.0123L59.0437 80.84ZM56.3931 79.2235C55.6766 78.507 55.1088 77.635 54.6952 76.5902L52.5381 77.4441C53.0596 78.7616 53.7958 79.9072 54.7526 80.864L56.3931 79.2235ZM54.6952 76.5902C54.2895 75.5652 54.0753 74.3845 54.0753 73.0309H51.7553C51.7553 74.6301 52.0088 76.1069 52.5381 77.4441L54.6952 76.5902ZM54.0753 73.0309C54.0753 71.7046 54.2886 70.5356 54.6952 69.5084L52.5381 68.6546C52.0096 69.9896 51.7553 71.4536 51.7553 73.0309H54.0753ZM54.6952 69.5084C55.1077 68.4663 55.6723 67.6118 56.3808 66.9242L54.765 65.2594C53.8002 66.1958 53.0606 67.3345 52.5381 68.6546L54.6952 69.5084ZM56.3811 66.9238C57.1219 66.2042 58.0046 65.6483 59.0437 65.2586L58.2291 63.0863C56.906 63.5825 55.7463 64.3061 54.7646 65.2597L56.3811 66.9238ZM59.0437 65.2586C60.0765 64.8713 61.2524 64.6681 62.5858 64.6681V62.3481C61.0156 62.3481 59.5585 62.5878 58.2291 63.0863L59.0437 65.2586ZM62.5858 64.6681C63.9121 64.6681 65.081 64.8813 66.1082 65.288L66.9621 63.1308C65.627 62.6024 64.163 62.3481 62.5858 62.3481V64.6681ZM66.1278 65.2955C67.1643 65.6842 68.0296 66.237 68.7415 66.9489L70.382 65.3085C69.4206 64.3471 68.2682 63.6204 66.9424 63.1232L66.1278 65.2955ZM68.766 66.9727C69.4946 67.6597 70.0667 68.5105 70.4763 69.5453L72.6335 68.6915C72.108 67.3641 71.3513 66.2217 70.3575 65.2847L68.766 66.9727ZM70.4763 69.5453C70.8838 70.5748 71.0962 71.7319 71.0962 73.0309H73.4162C73.4162 71.4755 73.161 70.0243 72.6335 68.6915L70.4763 69.5453ZM58.1777 73.0309C58.1777 74.6541 58.4799 76.0803 59.235 77.1637L61.1383 75.8371C60.7615 75.2965 60.4977 74.4097 60.4977 73.0309H58.1777ZM59.2586 77.1964C60.0807 78.2926 61.2454 78.8415 62.6227 78.8415V76.5215C61.933 76.5215 61.4736 76.2831 61.1146 75.8044L59.2586 77.1964ZM62.6227 78.8415C64.0167 78.8415 65.1789 78.2637 65.9501 77.107L64.0197 75.82C63.7082 76.2873 63.2956 76.5215 62.6227 76.5215V78.8415ZM65.9366 77.1268C66.6898 76.046 66.9938 74.6343 66.9938 73.0309H64.6738C64.6738 74.3802 64.4119 75.257 64.0333 75.8002L65.9366 77.1268ZM66.9938 73.0309C66.9938 71.4309 66.6912 70.0216 65.9269 68.9581L64.043 70.3122C64.4105 70.8236 64.6738 71.678 64.6738 73.0309H66.9938ZM65.9366 68.9719C65.1426 67.8327 63.9787 67.2571 62.5858 67.2571V69.5771C63.2598 69.5771 63.6953 69.8136 64.0333 70.2984L65.9366 68.9719ZM62.5858 67.2571C61.1928 67.2571 60.0289 67.8327 59.235 68.9719L61.1383 70.2984C61.4762 69.8136 61.9118 69.5771 62.5858 69.5771V67.2571ZM59.2447 68.9581C58.4803 70.0216 58.1777 71.4309 58.1777 73.0309H60.4977C60.4977 71.678 60.761 70.8236 61.1286 70.3122L59.2447 68.9581ZM77.654 77.4232L76.5922 77.8904L76.5965 77.9L77.654 77.4232ZM76.7681 75.3562L75.6864 75.775L75.6922 75.79L75.6984 75.8048L76.7681 75.3562ZM75.8085 72.7356L74.7053 73.0941L74.7093 73.1065L74.7136 73.1188L75.8085 72.7356ZM74.775 69.3768L73.6549 69.6783L73.6584 69.6913L73.6621 69.7041L74.775 69.3768ZM73.6677 64.9845L72.8475 64.1642L72.3888 64.623L72.5394 65.2539L73.6677 64.9845ZM75.0334 64.0986L75.4959 65.1625L75.5063 65.1579L75.5167 65.1532L75.0334 64.0986ZM79.0935 64.2463L78.4598 65.2179L78.4749 65.2278L78.4903 65.2372L79.0935 64.2463ZM80.3484 66.2394L79.2299 66.547L79.2335 66.5597L80.3484 66.2394ZM83.2643 76.3897L82.1494 76.71L82.3906 77.5497H83.2643V76.3897ZM83.4119 76.3897V77.5497H84.2327L84.5058 76.7757L83.4119 76.3897ZM84.2609 73.6583L83.1498 73.325L83.1459 73.3378L83.1424 73.3508L84.2609 73.6583ZM85.1098 70.6317L86.232 70.9256L86.2336 70.9192L85.1098 70.6317ZM85.848 67.4944L84.7182 67.2316L84.7159 67.2414L84.7138 67.2513L85.848 67.4944ZM86.4755 64.3939L85.934 63.368L85.4283 63.635L85.332 64.1987L86.4755 64.3939ZM91.5321 64.2463L92.1658 63.2747H92.1658L91.5321 64.2463ZM92.1227 68.4909L93.2602 68.7184L93.2614 68.7123L92.1227 68.4909ZM91.4214 71.2592L90.3103 70.9259L90.3065 70.9387L90.3029 70.9516L91.4214 71.2592ZM90.4248 74.3227L89.3377 73.9182L89.335 73.9254L89.3324 73.9326L90.4248 74.3227ZM89.2437 77.3862L90.3153 77.8305L89.2437 77.3862ZM87.9519 80.2652L88.9895 80.784L88.995 80.7727L87.9519 80.2652ZM86.66 82.6644L85.6592 82.0777L85.6529 82.0889L86.66 82.6644ZM84.7407 85.6172L85.6579 86.3273L84.7407 85.6172ZM83.0428 87.3889L82.3336 86.471L82.3208 86.4808L82.3083 86.4911L83.0428 87.3889ZM81.4188 88.2747L81.1136 87.1556L81.0902 87.162L81.0671 87.1693L81.4188 88.2747ZM77.2111 87.6103L76.4071 88.4465L77.2111 87.6103ZM76.0669 85.2112L75.3527 84.2971L74.8342 84.7021L74.9158 85.355L76.0669 85.2112ZM78.4291 83.1442L77.6357 82.2979L77.6288 82.3044L77.622 82.3111L78.4291 83.1442ZM80.5699 80.8558L81.4702 81.5873L82.5692 80.2347L80.8972 79.7429L80.5699 80.8558ZM79.2042 80.0069L78.384 80.8271L78.4055 80.8487L78.4282 80.8691L79.2042 80.0069ZM78.7158 76.956C78.4483 76.3482 78.1557 75.6655 77.8379 74.9076L75.6984 75.8048C76.0203 76.5725 76.3183 77.2678 76.5922 77.8903L78.7158 76.956ZM77.8499 74.9374C77.5602 74.1891 77.2448 73.3278 76.9034 72.3524L74.7136 73.1188C75.0612 74.1119 75.3855 74.9977 75.6864 75.775L77.8499 74.9374ZM76.9117 72.3771C76.5959 71.4054 76.2547 70.2965 75.8879 69.0495L73.6621 69.7041C74.0336 70.9669 74.3813 72.0972 74.7053 73.0941L76.9117 72.3771ZM75.8951 69.0752C75.5542 67.8088 75.1878 66.3557 74.796 64.715L72.5394 65.2539C72.935 66.9105 73.3069 68.3857 73.6549 69.6783L75.8951 69.0752ZM74.4879 65.8047C74.7061 65.5865 75.0293 65.3653 75.4959 65.1625L74.5709 63.0348C73.9056 63.3241 73.3183 63.6934 72.8475 64.1642L74.4879 65.8047ZM75.5167 65.1532C75.9465 64.9562 76.4202 64.8526 76.9527 64.8526V62.5326C76.1072 62.5326 75.3014 62.6998 74.5501 63.0441L75.5167 65.1532ZM76.9527 64.8526C77.6503 64.8526 78.1279 65.0014 78.4598 65.2179L79.7271 63.2747C78.9272 62.7529 77.9776 62.5326 76.9527 62.5326V64.8526ZM78.4903 65.2372C78.6968 65.3628 78.9966 65.6985 79.2299 66.547L81.4669 65.9318C81.1589 64.8118 80.6221 63.8188 79.6966 63.2554L78.4903 65.2372ZM79.2335 66.5597L82.1494 76.71L84.3792 76.0694L81.4633 65.9191L79.2335 66.5597ZM83.2643 77.5497H83.4119V75.2297H83.2643V77.5497ZM84.5058 76.7757C84.8115 75.9098 85.1025 74.9728 85.3794 73.9659L83.1424 73.3508C82.8779 74.3124 82.603 75.1963 82.3181 76.0036L84.5058 76.7757ZM85.372 73.9917C85.6713 72.9938 85.958 71.9718 86.232 70.9256L83.9877 70.3378C83.7203 71.3586 83.441 72.3543 83.1498 73.325L85.372 73.9917ZM86.2336 70.9192C86.5079 69.8469 86.7575 68.7863 86.9823 67.7374L84.7138 67.2513C84.4956 68.2694 84.253 69.3004 83.986 70.3442L86.2336 70.9192ZM86.9779 67.7571C87.2288 66.678 87.4426 65.622 87.6189 64.5892L85.332 64.1987C85.1639 65.1836 84.9593 66.1945 84.7182 67.2316L86.9779 67.7571ZM87.0169 65.4198C87.7264 65.0453 88.511 64.8526 89.3914 64.8526V62.5326C88.1555 62.5326 86.9962 62.8075 85.934 63.368L87.0169 65.4198ZM89.3914 64.8526C90.0889 64.8526 90.5666 65.0014 90.8985 65.2179L92.1658 63.2747C91.3658 62.7529 90.4163 62.5326 89.3914 62.5326V64.8526ZM90.8985 65.2179C91.027 65.3018 91.2211 65.4962 91.2211 66.1656H93.5411C93.5411 65.0141 93.1692 63.929 92.1658 63.2747L90.8985 65.2179ZM91.2211 66.1656C91.2211 66.7347 91.1468 67.4326 90.984 68.2695L93.2614 68.7123C93.4431 67.7776 93.5411 66.9253 93.5411 66.1656H91.2211ZM90.9852 68.2634C90.8212 69.0836 90.5969 69.9708 90.3103 70.9259L92.5325 71.5925C92.8365 70.5791 93.0797 69.6207 93.2602 68.7184L90.9852 68.2634ZM90.3029 70.9516C90.0422 71.8999 89.7207 72.8887 89.3377 73.9182L91.512 74.7273C91.9164 73.6406 92.2593 72.587 92.5399 71.5668L90.3029 70.9516ZM89.3324 73.9326C88.9698 74.9479 88.5831 75.951 88.1722 76.942L90.3153 77.8305C90.741 76.8037 91.1417 75.7645 91.5173 74.7129L89.3324 73.9326ZM88.1722 76.942C87.762 77.9311 87.3408 78.8696 86.9088 79.7578L88.995 80.7727C89.4488 79.8399 89.8888 78.8591 90.3153 77.8305L88.1722 76.942ZM86.9143 79.7465C86.4808 80.6136 86.0624 81.3902 85.6593 82.0777L87.6608 83.251C88.0943 82.5114 88.5371 81.6885 88.9894 80.784L86.9143 79.7465ZM85.6529 82.0889C84.9801 83.2662 84.3701 84.201 83.8235 84.9071L85.6579 86.3273C86.2925 85.5077 86.962 84.474 87.6672 83.2399L85.6529 82.0889ZM83.8235 84.9071C83.2706 85.6211 82.7725 86.1318 82.3336 86.471L83.7521 88.3068C84.3959 87.8093 85.0297 87.1388 85.6579 86.3273L83.8235 84.9071ZM82.3083 86.4911C81.8628 86.8556 81.4642 87.06 81.1136 87.1556L81.724 89.3938C82.4561 89.1942 83.1402 88.808 83.7774 88.2867L82.3083 86.4911ZM81.0671 87.1693C80.6439 87.304 80.1969 87.3731 79.7209 87.3731V89.6931C80.4261 89.6931 81.111 89.5899 81.7705 89.3801L81.0671 87.1693ZM79.7209 87.3731C78.9343 87.3731 78.4034 87.1475 78.0151 86.7742L76.4071 88.4465C77.2983 89.3034 78.4406 89.6931 79.7209 89.6931V87.3731ZM78.0151 86.7742C77.5895 86.3649 77.3121 85.8208 77.2179 85.0673L74.9158 85.355C75.0677 86.5701 75.5531 87.6254 76.4071 88.4465L78.0151 86.7742ZM76.781 86.1253C77.6038 85.4825 78.4221 84.7661 79.2362 83.9774L77.622 82.3111C76.8613 83.048 76.1048 83.7095 75.3527 84.2971L76.781 86.1253ZM79.2225 83.9905C80.0457 83.2187 80.7954 82.4178 81.4702 81.5873L79.6696 80.1243C79.0648 80.8686 78.3874 81.5933 77.6357 82.2979L79.2225 83.9905ZM80.8972 79.7429C80.7091 79.6876 80.4041 79.5262 79.9802 79.1446L78.4282 80.8691C78.9885 81.3734 79.5941 81.7779 80.2426 81.9687L80.8972 79.7429ZM80.0244 79.1866C79.7148 78.877 79.2684 78.1813 78.7114 76.9463L76.5965 77.9C77.1715 79.1749 77.7585 80.2017 78.384 80.8271L80.0244 79.1866ZM108.207 81.0403L108.906 81.9664V81.9664L108.207 81.0403ZM99.1275 82.406L99.3182 81.2618L99.1275 82.406ZM96.8391 81.7416L96.3039 82.7708L96.3282 82.7834L96.353 82.7949L96.8391 81.7416ZM95.3627 80.5605L94.4288 81.2486L94.4403 81.2642L94.4522 81.2793L95.3627 80.5605ZM95.2151 77.4232L96.1987 78.038L96.207 78.0247L96.2149 78.0113L95.2151 77.4232ZM96.1009 76.3897L96.6613 75.374L95.9885 75.0028L95.3842 75.4776L96.1009 76.3897ZM98.537 77.4601L98.1524 78.5545L98.17 78.5606L98.1877 78.5662L98.537 77.4601ZM103.483 77.5708L102.94 76.5456L102.927 76.5525L102.914 76.5598L103.483 77.5708ZM102.191 75.3931L101.964 76.5306L101.975 76.5329L101.987 76.535L102.191 75.3931ZM101.084 75.1716L101.311 74.0342L101.306 74.0332L101.084 75.1716ZM96.2855 73.2154L95.5187 74.0858L95.5296 74.0955L95.5408 74.1049L96.2855 73.2154ZM95.3258 66.8669L94.3023 66.321L95.3258 66.8669ZM96.9867 65.0214L97.6453 65.9763L96.9867 65.0214ZM99.5335 63.8772L99.2329 62.7568L99.226 62.7587L99.5335 63.8772ZM105.402 63.6926L105.188 64.8328L105.208 64.8365L105.228 64.8396L105.402 63.6926ZM107.506 64.2832L107.023 65.3377L107.506 64.2832ZM108.909 65.3536L107.993 66.0658L108.003 66.0785L108.013 66.091L108.909 65.3536ZM109.093 68.3433L108.068 67.8006L108.062 67.8125L108.056 67.8245L109.093 68.3433ZM108.318 69.3399L107.703 70.3235L108.421 70.7722L109.067 70.2254L108.318 69.3399ZM107.432 68.9708L107.025 70.0569L107.055 70.0683L107.086 70.078L107.432 68.9708ZM106.14 68.6017L105.845 69.7235L105.873 69.7308L105.901 69.7368L106.14 68.6017ZM104.701 68.3064L104.52 69.4522L104.529 69.4536L104.701 68.3064ZM101.527 68.4909L101.947 69.5721L101.973 69.5621L101.998 69.551L101.527 68.4909ZM101.231 70.0042L100.566 70.9546V70.9546L101.231 70.0042ZM102.634 70.4841L102.889 69.3525L102.877 69.3498L102.634 70.4841ZM103.778 70.7425L104.037 69.6118L104.034 69.6109L103.778 70.7425ZM108.798 72.994L107.988 73.8245L107.999 73.8348L108.009 73.8447L108.798 72.994ZM109.151 76.648C109.151 78.1815 108.6 79.2913 107.509 80.1143L108.906 81.9664C110.62 80.6732 111.471 78.8548 111.471 76.648H109.151ZM107.509 80.1143C106.392 80.957 104.617 81.4675 102.007 81.4675V83.7875C104.859 83.7875 107.218 83.2398 108.906 81.9664L107.509 80.1143ZM102.007 81.4675C101.028 81.4675 100.132 81.3975 99.3182 81.2618L98.9368 83.5502C99.8943 83.7098 100.918 83.7875 102.007 83.7875V81.4675ZM99.3182 81.2618C98.508 81.1268 97.8494 80.9303 97.3252 80.6884L96.353 82.7949C97.1083 83.1435 97.9754 83.39 98.9368 83.5502L99.3182 81.2618ZM97.3743 80.7125C96.8811 80.456 96.5252 80.161 96.2732 79.8417L94.4522 81.2793C94.9384 81.8951 95.5668 82.3875 96.3039 82.7708L97.3743 80.7125ZM96.2966 79.8724C96.114 79.6246 96.006 79.3182 96.006 78.8996H93.686C93.686 79.7605 93.9225 80.5614 94.4288 81.2486L96.2966 79.8724ZM96.006 78.8996C96.006 78.4679 96.0954 78.2033 96.1987 78.038L94.2314 76.8084C93.8426 77.4304 93.686 78.1501 93.686 78.8996H96.006ZM96.2149 78.0113C96.3955 77.7043 96.5985 77.4739 96.8176 77.3018L95.3842 75.4776C94.9143 75.8468 94.5268 76.3054 94.2152 76.835L96.2149 78.0113ZM95.5405 77.4053C96.3196 77.8352 97.192 78.217 98.1524 78.5545L98.9215 76.3657C98.061 76.0633 97.3094 75.7316 96.6613 75.374L95.5405 77.4053ZM98.1877 78.5662C99.2582 78.9043 100.45 79.063 101.748 79.063V76.743C100.635 76.743 99.6859 76.6064 98.8863 76.3539L98.1877 78.5662ZM101.748 79.063C102.589 79.063 103.403 78.9467 104.052 78.5818L102.914 76.5598C102.775 76.6378 102.432 76.743 101.748 76.743V79.063ZM104.026 78.596C104.698 78.2401 105.27 77.6096 105.27 76.685H102.95C102.95 76.6662 102.953 76.6358 102.965 76.5996C102.976 76.5632 102.992 76.5335 103.007 76.5127C103.035 76.4737 103.036 76.4947 102.94 76.5456L104.026 78.596ZM105.27 76.685C105.27 75.9388 104.917 75.312 104.311 74.9078L103.024 76.8381C103.039 76.8482 103.01 76.832 102.981 76.7791C102.968 76.7547 102.959 76.731 102.955 76.7111C102.95 76.6919 102.95 76.682 102.95 76.685H105.27ZM104.311 74.9078C103.808 74.5725 103.118 74.3803 102.395 74.2512L101.987 76.535C102.642 76.652 102.936 76.7797 103.024 76.8381L104.311 74.9078ZM102.419 74.2556L101.311 74.0342L100.856 76.3091L101.964 76.5306L102.419 74.2556ZM101.306 74.0332C99.2569 73.6327 97.8751 73.0334 97.0301 72.326L95.5408 74.1049C96.812 75.1691 98.6291 75.8739 100.861 76.3101L101.306 74.0332ZM97.0523 72.345C96.3218 71.7015 95.8952 70.7579 95.8952 69.3399H93.5752C93.5752 71.2684 94.1822 72.9084 95.5187 74.0858L97.0523 72.345ZM95.8952 69.3399C95.8952 68.6026 96.053 67.9684 96.3493 67.4128L94.3023 66.321C93.8112 67.2418 93.5752 68.2562 93.5752 69.3399H95.8952ZM96.3493 67.4128C96.6526 66.8441 97.0786 66.3672 97.6453 65.9763L96.3282 64.0665C95.4677 64.6599 94.7864 65.4133 94.3023 66.321L96.3493 67.4128ZM97.6453 65.9763C98.2348 65.5698 98.9605 65.2379 99.8411 64.9957L99.226 62.7587C98.1381 63.0579 97.1659 63.4887 96.3282 64.0665L97.6453 65.9763ZM99.8341 64.9976C100.731 64.7569 101.736 64.6312 102.855 64.6312V62.3112C101.563 62.3112 100.354 62.4562 99.2329 62.7568L99.8341 64.9976ZM102.855 64.6312C103.704 64.6312 104.48 64.7 105.188 64.8328L105.616 62.5525C104.749 62.39 103.828 62.3112 102.855 62.3112V64.6312ZM105.228 64.8396C105.96 64.9504 106.553 65.1222 107.023 65.3377L107.989 63.2287C107.279 62.9029 106.468 62.6809 105.576 62.5457L105.228 64.8396ZM107.023 65.3377C107.471 65.543 107.78 65.7917 107.993 66.0658L109.824 64.6414C109.348 64.0296 108.723 63.5648 107.989 63.2287L107.023 65.3377ZM108.013 66.091C108.171 66.2825 108.265 66.5195 108.265 66.8669H110.585C110.585 66.0332 110.335 65.2613 109.804 64.6162L108.013 66.091ZM108.265 66.8669C108.265 67.2805 108.185 67.5792 108.068 67.8006L110.118 68.886C110.444 68.2707 110.585 67.5852 110.585 66.8669H108.265ZM108.056 67.8245C107.925 68.0849 107.763 68.2902 107.569 68.4543L109.067 70.2254C109.513 69.8482 109.867 69.3891 110.131 68.8621L108.056 67.8245ZM108.933 68.3562C108.611 68.1551 108.206 67.9971 107.778 67.8636L107.086 70.078C107.446 70.1905 107.631 70.2785 107.703 70.3235L108.933 68.3562ZM107.84 67.8846C107.384 67.7139 106.897 67.5754 106.379 67.4666L105.901 69.7368C106.319 69.8248 106.693 69.9324 107.025 70.0569L107.84 67.8846ZM106.436 67.4799C105.926 67.3458 105.405 67.2391 104.873 67.1592L104.529 69.4536C104.981 69.5213 105.419 69.6114 105.845 69.7235L106.436 67.4799ZM104.882 67.1606C104.366 67.0791 103.874 67.0357 103.409 67.0357V69.3557C103.732 69.3557 104.101 69.386 104.52 69.4522L104.882 67.1606ZM103.409 67.0357C102.53 67.0357 101.714 67.1381 101.056 67.4309L101.998 69.551C102.225 69.45 102.664 69.3557 103.409 69.3557V67.0357ZM101.106 67.4098C100.751 67.5478 100.389 67.767 100.115 68.1174C99.8289 68.4828 99.7023 68.9102 99.7023 69.3399H102.022C102.022 69.3511 102.021 69.3826 102.006 69.4262C101.992 69.4709 101.969 69.5129 101.942 69.5473C101.889 69.6147 101.859 69.6063 101.947 69.5721L101.106 67.4098ZM99.7023 69.3399C99.7023 70.035 100.05 70.593 100.566 70.9546L101.897 69.0539C101.891 69.0501 101.93 69.0766 101.969 69.1456C102.009 69.219 102.022 69.292 102.022 69.3399H99.7023ZM100.566 70.9546C101.023 71.2744 101.701 71.4704 102.391 71.6183L102.877 69.3498C102.56 69.2819 102.319 69.2162 102.142 69.1558C101.954 69.0915 101.892 69.0505 101.897 69.0539L100.566 70.9546ZM102.378 71.6156L103.523 71.874L104.034 69.6109L102.889 69.3526L102.378 71.6156ZM103.519 71.8731C105.811 72.3985 107.233 73.0883 107.988 73.8245L109.608 72.1634C108.394 70.9803 106.469 70.1691 104.037 69.6118L103.519 71.8731ZM108.009 73.8447C108.758 74.5389 109.151 75.4371 109.151 76.648H111.471C111.471 74.8569 110.855 73.3191 109.586 72.1432L108.009 73.8447Z" fill="#F66C57"/>
<g style="mix-blend-mode:screen">
<path style="mix-blend-mode:screen" d="M70.1215 2.42416C83.4855 2.42416 96.5493 6.37645 107.661 13.7812C118.773 21.186 127.433 31.7107 132.547 44.0244C137.662 56.3381 139 69.8877 136.393 82.9599C133.785 96.032 127.35 108.04 117.9 117.464C108.451 126.889 96.4108 133.307 83.3036 135.907C70.1965 138.507 56.6105 137.173 44.2638 132.072C31.9171 126.972 21.3642 118.334 13.9396 107.252C6.51499 96.1701 2.55211 83.1412 2.55211 69.813C2.55211 51.9403 9.67101 34.7997 22.3427 22.1619C35.0144 9.52403 52.201 2.42416 70.1215 2.42416ZM70.1215 0.000105259C56.2717 -0.0238754 42.726 4.05019 31.1986 11.7067C19.6712 19.3633 10.6802 30.2581 5.36341 43.0126C0.0466355 55.7671 -1.35695 69.808 1.33028 83.3583C4.0175 96.9087 10.6747 109.359 20.4596 119.135C30.2444 128.911 42.7169 135.572 56.2989 138.275C69.8809 140.979 83.9617 139.604 96.7596 134.323C109.558 129.043 120.497 120.095 128.194 108.611C135.891 97.1282 140 83.6258 140 69.813C140 51.3184 132.642 33.5796 119.54 20.4906C106.439 7.40165 88.6656 0.0322138 70.1215 0.000105259Z" fill="url(#paint2_linear_0_1)"/>
</g>
<g opacity="0.2">
<path opacity="0.2" d="M70.6077 15.0292C80.573 35.6337 52.1355 36.3609 47.1529 42.2999C42.1702 48.2388 37.1876 76.6003 16.0418 59.7531C8.38552 50.4205 14.4619 32.846 29.5313 20.6046C44.6008 8.36307 62.9515 5.81781 70.6077 15.0292Z" fill="white"/>
</g>
<defs>
<radialGradient id="paint0_radial_0_1" cx="0" cy="0" r="1" gradientUnits="userSpaceOnUse" gradientTransform="translate(70 69.9407) scale(56)">
<stop stop-color="white"/>
<stop offset="1"/>
</radialGradient>
<radialGradient id="paint1_radial_0_1" cx="0" cy="0" r="1" gradientUnits="userSpaceOnUse" gradientTransform="translate(70 69.9407) scale(56)">
<stop offset="0.56" stop-color="white"/>
<stop offset="0.63" stop-color="#FEFDFC"/>
<stop offset="0.69" stop-color="#FAF8F2"/>
<stop offset="0.74" stop-color="#F4F0E1"/>
<stop offset="0.79" stop-color="#ECE4C9"/>
<stop offset="0.84" stop-color="#E1D4AA"/>
<stop offset="0.89" stop-color="#D3C184"/>
<stop offset="0.93" stop-color="#C3AA57"/>
<stop offset="0.97" stop-color="#B19125"/>
<stop offset="1" stop-color="#A47E00"/>
</radialGradient>
<linearGradient id="paint2_linear_0_1" x1="104.998" y1="130.172" x2="35.3992" y2="9.1719" gradientUnits="userSpaceOnUse">
<stop stop-color="white"/>
<stop offset="0.51" stop-color="white" stop-opacity="0"/>
<stop offset="1" stop-color="white"/>
</linearGradient>
</defs>
</svg>
