<svg width="140" height="140" viewBox="0 0 140 140" fill="none" xmlns="http://www.w3.org/2000/svg">
<g style="mix-blend-mode:darken" opacity="0.7">
<g style="mix-blend-mode:darken">
<path d="M70.1215 139.505C100.996 139.505 126.024 114.597 126.024 83.8726C126.024 53.1478 100.996 28.2405 70.1215 28.2405C39.2473 28.2405 14.2188 53.1478 14.2188 83.8726C14.2188 114.597 39.2473 139.505 70.1215 139.505Z" fill="white"/>
</g>
<g style="mix-blend-mode:darken">
<path d="M70.1215 139.02C100.996 139.02 126.024 114.113 126.024 83.3877C126.024 52.663 100.996 27.7556 70.1215 27.7556C39.2473 27.7556 14.2188 52.663 14.2188 83.3877C14.2188 114.113 39.2473 139.02 70.1215 139.02Z" fill="#F5F5F5"/>
</g>
<g style="mix-blend-mode:darken">
<path d="M70.1215 138.656C100.996 138.656 126.024 113.695 126.024 82.903C126.024 52.1113 100.996 27.1497 70.1215 27.1497C39.2473 27.1497 14.2188 52.1113 14.2188 82.903C14.2188 113.695 39.2473 138.656 70.1215 138.656Z" fill="#EBEBEB"/>
</g>
<g style="mix-blend-mode:darken">
<path d="M70.1215 138.171C100.996 138.171 126.024 113.21 126.024 82.4181C126.024 51.6264 100.996 26.6648 70.1215 26.6648C39.2473 26.6648 14.2188 51.6264 14.2188 82.4181C14.2188 113.21 39.2473 138.171 70.1215 138.171Z" fill="#E2E2E2"/>
</g>
<g style="mix-blend-mode:darken">
<path d="M70.1215 137.565C100.996 137.565 126.024 112.604 126.024 81.8122C126.024 51.0204 100.996 26.0588 70.1215 26.0588C39.2473 26.0588 14.2188 51.0204 14.2188 81.8122C14.2188 112.604 39.2473 137.565 70.1215 137.565Z" fill="#D8D8D8"/>
</g>
<g style="mix-blend-mode:darken">
<path d="M70.1215 137.081C100.996 137.081 126.024 112.119 126.024 81.3273C126.024 50.5356 100.996 25.574 70.1215 25.574C39.2473 25.574 14.2188 50.5356 14.2188 81.3273C14.2188 112.119 39.2473 137.081 70.1215 137.081Z" fill="#CECECE"/>
</g>
<g style="mix-blend-mode:darken">
<path d="M70.1215 136.717C100.996 136.717 126.024 111.701 126.024 80.8424C126.024 49.9838 100.996 24.9679 70.1215 24.9679C39.2473 24.9679 14.2188 49.9838 14.2188 80.8424C14.2188 111.701 39.2473 136.717 70.1215 136.717Z" fill="#C4C4C4"/>
</g>
<g style="mix-blend-mode:darken">
<path d="M70.1215 136.232C100.996 136.232 126.024 111.216 126.024 80.3577C126.024 49.499 100.996 24.4832 70.1215 24.4832C39.2473 24.4832 14.2188 49.499 14.2188 80.3577C14.2188 111.216 39.2473 136.232 70.1215 136.232Z" fill="#BABABA"/>
</g>
<g style="mix-blend-mode:darken">
<path d="M70.1215 135.747C100.996 135.747 126.024 110.732 126.024 79.8729C126.024 49.0143 100.996 23.9984 70.1215 23.9984C39.2473 23.9984 14.2188 49.0143 14.2188 79.8729C14.2188 110.732 39.2473 135.747 70.1215 135.747Z" fill="#B1B1B1"/>
</g>
<g style="mix-blend-mode:darken">
<path d="M70.1215 135.263C100.996 135.263 126.024 110.192 126.024 79.2668C126.024 48.3413 100.996 23.2711 70.1215 23.2711C39.2473 23.2711 14.2188 48.3413 14.2188 79.2668C14.2188 110.192 39.2473 135.263 70.1215 135.263Z" fill="#A7A7A7"/>
</g>
<g style="mix-blend-mode:darken">
<path d="M70.1215 134.778C100.996 134.778 126.024 109.708 126.024 78.782C126.024 47.8564 100.996 22.7863 70.1215 22.7863C39.2473 22.7863 14.2188 47.8564 14.2188 78.782C14.2188 109.708 39.2473 134.778 70.1215 134.778Z" fill="#9D9D9D"/>
</g>
<g style="mix-blend-mode:darken">
<path d="M70.1215 134.293C100.996 134.293 126.024 109.223 126.024 78.2972C126.024 47.3717 100.996 22.3015 70.1215 22.3015C39.2473 22.3015 14.2188 47.3717 14.2188 78.2972C14.2188 109.223 39.2473 134.293 70.1215 134.293Z" fill="#939393"/>
</g>
<g style="mix-blend-mode:darken">
<path d="M70.1215 133.929C100.996 133.929 126.024 108.805 126.024 77.8124C126.024 46.8198 100.996 21.6954 70.1215 21.6954C39.2473 21.6954 14.2188 46.8198 14.2188 77.8124C14.2188 108.805 39.2473 133.929 70.1215 133.929Z" fill="#898989"/>
</g>
<g style="mix-blend-mode:darken">
<path d="M70.1215 133.323C100.996 133.323 126.024 108.199 126.024 77.2064C126.024 46.2139 100.996 21.0895 70.1215 21.0895C39.2473 21.0895 14.2188 46.2139 14.2188 77.2064C14.2188 108.199 39.2473 133.323 70.1215 133.323Z" fill="#808080"/>
</g>
<g style="mix-blend-mode:darken">
<path d="M70.1215 132.838C100.996 132.838 126.024 107.714 126.024 76.7215C126.024 45.729 100.996 20.6046 70.1215 20.6046C39.2473 20.6046 14.2188 45.729 14.2188 76.7215C14.2188 107.714 39.2473 132.838 70.1215 132.838Z" fill="#767676"/>
</g>
<g style="mix-blend-mode:darken">
<path d="M70.1215 132.354C100.996 132.354 126.024 107.229 126.024 76.2368C126.024 45.2443 100.996 20.1199 70.1215 20.1199C39.2473 20.1199 14.2188 45.2443 14.2188 76.2368C14.2188 107.229 39.2473 132.354 70.1215 132.354Z" fill="#6C6C6C"/>
</g>
<g style="mix-blend-mode:darken">
<path d="M70.1215 131.99C100.996 131.99 126.024 106.811 126.024 75.7519C126.024 44.6925 100.996 19.5138 70.1215 19.5138C39.2473 19.5138 14.2188 44.6925 14.2188 75.7519C14.2188 106.811 39.2473 131.99 70.1215 131.99Z" fill="#626262"/>
</g>
<g style="mix-blend-mode:darken">
<path d="M70.1215 131.505C100.996 131.505 126.024 106.327 126.024 75.2672C126.024 44.2077 100.996 19.0291 70.1215 19.0291C39.2473 19.0291 14.2188 44.2077 14.2188 75.2672C14.2188 106.327 39.2473 131.505 70.1215 131.505Z" fill="#585858"/>
</g>
<g style="mix-blend-mode:darken">
<path d="M70.1215 130.899C100.996 130.899 126.024 105.721 126.024 74.6611C126.024 43.6016 100.996 18.423 70.1215 18.423C39.2473 18.423 14.2188 43.6016 14.2188 74.6611C14.2188 105.721 39.2473 130.899 70.1215 130.899Z" fill="#4E4E4E"/>
</g>
<g style="mix-blend-mode:darken">
<path d="M70.1215 130.536C100.996 130.536 126.024 105.303 126.024 74.1763C126.024 43.0499 100.996 17.817 70.1215 17.817C39.2473 17.817 14.2188 43.0499 14.2188 74.1763C14.2188 105.303 39.2473 130.536 70.1215 130.536Z" fill="#454545"/>
</g>
<g style="mix-blend-mode:darken">
<path d="M70.1215 130.051C100.996 130.051 126.024 104.818 126.024 73.6915C126.024 42.5651 100.996 17.3322 70.1215 17.3322C39.2473 17.3322 14.2188 42.5651 14.2188 73.6915C14.2188 104.818 39.2473 130.051 70.1215 130.051Z" fill="#3B3B3B"/>
</g>
<g style="mix-blend-mode:darken">
<path d="M70.1215 129.566C100.996 129.566 126.024 104.333 126.024 73.2068C126.024 42.0803 100.996 16.8474 70.1215 16.8474C39.2473 16.8474 14.2188 42.0803 14.2188 73.2068C14.2188 104.333 39.2473 129.566 70.1215 129.566Z" fill="#313131"/>
</g>
<g style="mix-blend-mode:darken">
<path d="M70.1215 129.081C100.996 129.081 126.024 103.794 126.024 72.6007C126.024 41.4073 100.996 16.1201 70.1215 16.1201C39.2473 16.1201 14.2188 41.4073 14.2188 72.6007C14.2188 103.794 39.2473 129.081 70.1215 129.081Z" fill="#272727"/>
</g>
<g style="mix-blend-mode:darken">
<path d="M70.1215 128.596C100.996 128.596 126.024 103.309 126.024 72.1158C126.024 40.9224 100.996 15.6353 70.1215 15.6353C39.2473 15.6353 14.2188 40.9224 14.2188 72.1158C14.2188 103.309 39.2473 128.596 70.1215 128.596Z" fill="#1D1D1D"/>
</g>
<g style="mix-blend-mode:darken">
<path d="M70.1215 128.112C100.996 128.112 126.024 102.824 126.024 71.631C126.024 40.4377 100.996 15.1505 70.1215 15.1505C39.2473 15.1505 14.2188 40.4377 14.2188 71.631C14.2188 102.824 39.2473 128.112 70.1215 128.112Z" fill="#141414"/>
</g>
<g style="mix-blend-mode:darken">
<path d="M70.1215 127.627C100.996 127.627 126.024 102.34 126.024 71.1463C126.024 39.953 100.996 14.6658 70.1215 14.6658C39.2473 14.6658 14.2188 39.953 14.2188 71.1463C14.2188 102.34 39.2473 127.627 70.1215 127.627Z" fill="#0A0A0A"/>
</g>
<g style="mix-blend-mode:darken">
<path d="M70.1215 127.263C100.996 127.263 126.024 101.922 126.024 70.6614C126.024 39.4012 100.996 14.0597 70.1215 14.0597C39.2473 14.0597 14.2188 39.4012 14.2188 70.6614C14.2188 101.922 39.2473 127.263 70.1215 127.263Z" fill="black"/>
</g>
</g>
<path d="M70 125.941C100.928 125.941 126 100.869 126 69.9407C126 39.0127 100.928 13.9407 70 13.9407C39.0721 13.9407 14 39.0127 14 69.9407C14 100.869 39.0721 125.941 70 125.941Z" fill="#FCCB23"/>
<path style="mix-blend-mode:soft-light" d="M70 125.941C100.928 125.941 126 100.869 126 69.9407C126 39.0127 100.928 13.9407 70 13.9407C39.0721 13.9407 14 39.0127 14 69.9407C14 100.869 39.0721 125.941 70 125.941Z" fill="url(#paint0_radial_0_1)"/>
<path d="M45.667 60.5081C47.0696 60.5081 48.3368 60.6926 49.4687 61.0617C50.6252 61.4062 51.5972 61.8615 52.3846 62.4274C52.8767 62.7719 53.2581 63.1533 53.5288 63.5716C53.8241 63.9899 53.9717 64.5313 53.9717 65.1957V78.1142C53.9717 79.4183 53.7257 80.5379 53.2335 81.473C52.7414 82.4326 52.0647 83.22 51.2035 83.8352C50.3669 84.475 49.3703 84.9425 48.2138 85.2378C47.0819 85.5331 45.8638 85.6807 44.5597 85.6807C42.3205 85.6807 40.5611 85.3731 39.2816 84.758C38.002 84.1674 37.3622 83.1954 37.3622 81.8421C37.3622 81.2761 37.473 80.7717 37.6944 80.3288C37.9405 79.9104 38.2112 79.5906 38.5065 79.3691C39.22 79.7628 40.0198 80.095 40.9056 80.3657C41.816 80.6363 42.7511 80.7717 43.7108 80.7717C45.0395 80.7717 46.0976 80.5502 46.885 80.1073C47.6724 79.6644 48.0661 78.9508 48.0661 77.9665V77.376C47.0573 77.8189 45.8269 78.0403 44.3751 78.0403C43.2678 78.0403 42.2098 77.8804 41.2009 77.5605C40.2166 77.216 39.3431 76.6993 38.5803 76.0103C37.8421 75.2967 37.2392 74.3862 36.7717 73.2789C36.3288 72.1716 36.1073 70.8552 36.1073 69.3296C36.1073 67.8286 36.3411 66.5244 36.8086 65.4171C37.3007 64.3098 37.9651 63.3994 38.8017 62.6858C39.663 61.9476 40.6718 61.4062 41.8284 61.0617C43.0095 60.6926 44.289 60.5081 45.667 60.5081ZM47.9554 65.86C47.7832 65.7616 47.5248 65.6632 47.1803 65.5648C46.8604 65.4663 46.4544 65.4171 45.9623 65.4171C44.7565 65.4171 43.8461 65.7616 43.2309 66.4506C42.6404 67.115 42.3451 68.0746 42.3451 69.3296C42.3451 70.7568 42.6404 71.7902 43.2309 72.43C43.8461 73.0452 44.6212 73.3528 45.5563 73.3528C46.5651 73.3528 47.3649 73.119 47.9554 72.6515V65.86ZM57.7138 56.0789C57.7138 55.1438 58.0214 54.3564 58.6365 53.7166C59.2763 53.0769 60.1129 52.757 61.1464 52.757C62.1799 52.757 63.0042 53.0769 63.6194 53.7166C64.2592 54.3564 64.579 55.1438 64.579 56.0789C64.579 57.0139 64.2592 57.8014 63.6194 58.4411C63.0042 59.0809 62.1799 59.4008 61.1464 59.4008C60.1129 59.4008 59.2763 59.0809 58.6365 58.4411C58.0214 57.8014 57.7138 57.0139 57.7138 56.0789ZM64.2838 78.9631C64.0131 79.0123 63.6071 79.0738 63.0657 79.1476C62.549 79.2461 62.0199 79.2953 61.4786 79.2953C60.9373 79.2953 60.4451 79.2584 60.0022 79.1846C59.5839 79.1107 59.2271 78.9631 58.9318 78.7416C58.6365 78.5202 58.4028 78.2249 58.2305 77.8558C58.0829 77.4621 58.0091 76.9576 58.0091 76.3425V61.3201C58.2797 61.2709 58.6734 61.2094 59.1902 61.1356C59.7315 61.0371 60.2729 60.9879 60.8142 60.9879C61.3556 60.9879 61.8354 61.0248 62.2537 61.0986C62.6966 61.1725 63.0657 61.3201 63.361 61.5416C63.6563 61.763 63.8777 62.0706 64.0254 62.4643C64.1976 62.8334 64.2838 63.3256 64.2838 63.9407V78.9631ZM74.5531 78.9631C74.307 79.0369 73.9133 79.1107 73.372 79.1846C72.8552 79.2584 72.3139 79.2953 71.7479 79.2953C71.2066 79.2953 70.7145 79.2584 70.2715 79.1846C69.8532 79.1107 69.4964 78.9631 69.2012 78.7416C68.9059 78.5202 68.6721 78.2249 68.4999 77.8558C68.3522 77.4621 68.2784 76.9576 68.2784 76.3425V65.2695C68.2784 64.7035 68.3768 64.2237 68.5737 63.83C68.7951 63.4117 69.1027 63.0426 69.4964 62.7227C69.8901 62.4028 70.37 62.1198 70.9359 61.8738C71.5265 61.6031 72.154 61.3693 72.8183 61.1725C73.4827 60.9756 74.1717 60.828 74.8853 60.7295C75.5989 60.6065 76.3125 60.545 77.0261 60.545C78.2072 60.545 79.1422 60.7788 79.8312 61.2463C80.5202 61.6892 80.8647 62.4274 80.8647 63.4609C80.8647 63.8054 80.8155 64.1499 80.7171 64.4944C80.6186 64.8143 80.4956 65.1095 80.348 65.3802C79.8312 65.3802 79.3022 65.4048 78.7608 65.454C78.2195 65.5032 77.6905 65.5771 77.1737 65.6755C76.657 65.7739 76.1648 65.8846 75.6973 66.0077C75.2544 66.1061 74.873 66.2291 74.5531 66.3768V78.9631ZM89.8387 78.9631C89.5681 79.0123 89.1621 79.0738 88.6207 79.1476C88.104 79.2461 87.5749 79.2953 87.0336 79.2953C86.4922 79.2953 86.0001 79.2584 85.5572 79.1846C85.1389 79.1107 84.7821 78.9631 84.4868 78.7416C84.1915 78.5202 83.9577 78.2249 83.7855 77.8558C83.6379 77.4621 83.564 76.9576 83.564 76.3425V54.9347C83.8347 54.8855 84.2284 54.8239 84.7452 54.7501C85.2865 54.6517 85.8279 54.6025 86.3692 54.6025C86.9105 54.6025 87.3904 54.6394 87.8087 54.7132C88.2516 54.787 88.6207 54.9347 88.916 55.1561C89.2113 55.3776 89.4327 55.6852 89.5804 56.0789C89.7526 56.448 89.8387 56.9401 89.8387 57.5553V78.9631ZM108.931 73.648C108.931 75.5182 108.23 76.9823 106.827 78.0403C105.425 79.0984 103.358 79.6275 100.627 79.6275C99.5931 79.6275 98.6334 79.5537 97.7476 79.406C96.8617 79.2584 96.0989 79.0369 95.4592 78.7416C94.844 78.4217 94.3519 78.028 93.9828 77.5605C93.6383 77.093 93.466 76.5393 93.466 75.8996C93.466 75.309 93.5891 74.8169 93.8351 74.4232C94.0812 74.0048 94.3765 73.6604 94.721 73.3897C95.4346 73.7834 96.2466 74.1402 97.157 74.4601C98.0921 74.7553 99.1625 74.903 100.368 74.903C101.131 74.903 101.709 74.7923 102.103 74.5708C102.521 74.3493 102.73 74.0541 102.73 73.685C102.73 73.3405 102.583 73.0698 102.288 72.8729C101.992 72.6761 101.5 72.5161 100.811 72.3931L99.7038 72.1716C97.563 71.7533 95.9636 71.1013 94.9055 70.2154C93.872 69.305 93.3553 68.0131 93.3553 66.3399C93.3553 65.4294 93.5521 64.6051 93.9458 63.8669C94.3396 63.1287 94.8932 62.5135 95.6068 62.0214C96.3204 61.5293 97.1693 61.1479 98.1536 60.8772C99.1625 60.6065 100.27 60.4712 101.475 60.4712C102.386 60.4712 103.235 60.545 104.022 60.6926C104.834 60.8157 105.536 61.0125 106.126 61.2832C106.717 61.5539 107.184 61.9107 107.529 62.3536C107.873 62.7719 108.045 63.2763 108.045 63.8669C108.045 64.4329 107.935 64.925 107.713 65.3433C107.516 65.737 107.258 66.0692 106.938 66.3399C106.741 66.2168 106.446 66.0938 106.052 65.9708C105.659 65.8231 105.228 65.7001 104.76 65.6017C104.293 65.4786 103.813 65.3802 103.321 65.3064C102.853 65.2326 102.423 65.1957 102.029 65.1957C101.217 65.1957 100.59 65.2941 100.147 65.4909C99.7038 65.6632 99.4823 65.9462 99.4823 66.3399C99.4823 66.6105 99.6054 66.832 99.8514 67.0042C100.098 67.1765 100.565 67.3364 101.254 67.4841L102.398 67.7424C104.76 68.2838 106.434 69.0343 107.418 69.994C108.427 70.929 108.931 72.147 108.931 73.648Z" fill="white"/>
<path d="M49.4687 61.0617L49.1091 62.1646L49.1233 62.1692L49.1376 62.1735L49.4687 61.0617ZM52.3846 62.4274L51.7076 63.3693L51.7135 63.3736L51.7194 63.3777L52.3846 62.4274ZM53.5288 63.5716L52.5549 64.2018L52.5676 64.2214L52.5811 64.2406L53.5288 63.5716ZM53.2335 81.473L52.207 80.9327L52.2014 80.9436L53.2335 81.473ZM51.2035 83.8352L50.5293 82.8913L50.5139 82.9023L50.4988 82.9138L51.2035 83.8352ZM48.2138 85.2378L47.9268 84.1138L47.921 84.1154L48.2138 85.2378ZM39.2816 84.758L39.7842 83.7125L39.776 83.7086L39.7677 83.7047L39.2816 84.758ZM37.6944 80.3288L36.6946 79.7406L36.6746 79.7747L36.6569 79.81L37.6944 80.3288ZM38.5065 79.3691L39.0668 78.3534L38.4103 77.9912L37.8105 78.4411L38.5065 79.3691ZM40.9056 80.3657L40.5666 81.4751L40.575 81.4776L40.9056 80.3657ZM46.885 80.1073L47.4537 81.1183L46.885 80.1073ZM48.0661 77.376H49.2261V75.5998L47.5998 76.3138L48.0661 77.376ZM41.2009 77.5605L40.8177 78.6554L40.8339 78.6611L40.8503 78.6663L41.2009 77.5605ZM38.5803 76.0103L37.774 76.8443L37.7882 76.858L37.8027 76.8711L38.5803 76.0103ZM36.7717 73.2789L35.6946 73.7098L35.6987 73.72L35.703 73.7302L36.7717 73.2789ZM36.8086 65.4171L35.7486 64.946L35.7442 64.9559L35.7399 64.9659L36.8086 65.4171ZM38.8017 62.6858L39.5545 63.5683L39.5566 63.5665L38.8017 62.6858ZM41.8284 61.0617L42.1595 62.1735L42.1669 62.1713L42.1743 62.1689L41.8284 61.0617ZM47.9554 65.86H49.1154V65.1869L48.5309 64.8529L47.9554 65.86ZM47.1803 65.5648L46.8392 66.6735L46.8504 66.6769L46.8616 66.6801L47.1803 65.5648ZM43.2309 66.4506L42.3656 65.678L42.3639 65.6799L43.2309 66.4506ZM43.2309 72.43L42.3786 73.2168L42.3943 73.2339L42.4107 73.2503L43.2309 72.43ZM47.9554 72.6515L48.6754 73.561L49.1154 73.2127V72.6515H47.9554ZM45.667 61.6681C46.9686 61.6681 48.1119 61.8394 49.1091 62.1646L49.8283 59.9589C48.5618 59.5459 47.1705 59.3481 45.667 59.3481V61.6681ZM49.1376 62.1735C50.1992 62.4897 51.0473 62.8947 51.7076 63.3693L53.0616 61.4855C52.1471 60.8282 51.0513 60.3228 49.7999 59.95L49.1376 62.1735ZM51.7194 63.3777C52.1136 63.6536 52.3804 63.9321 52.5549 64.2018L54.5027 62.9414C54.1359 62.3745 53.6399 61.8902 53.0498 61.4771L51.7194 63.3777ZM52.5811 64.2406C52.7023 64.4123 52.8117 64.6999 52.8117 65.1957H55.1317C55.1317 64.3627 54.9459 63.5676 54.4765 62.9027L52.5811 64.2406ZM52.8117 65.1957V78.1142H55.1317V65.1957H52.8117ZM52.8117 78.1142C52.8117 79.2735 52.5933 80.1988 52.207 80.9327L54.26 82.0132C54.8581 80.877 55.1317 79.5631 55.1317 78.1142H52.8117ZM52.2014 80.9436C51.7921 81.7418 51.2368 82.3859 50.5293 82.8913L51.8777 84.7791C52.8926 84.0542 53.6908 83.1235 54.2657 82.0023L52.2014 80.9436ZM50.4988 82.9138C49.8019 83.4467 48.952 83.8521 47.9268 84.1138L48.5007 86.3617C49.7886 86.0329 50.9318 85.5032 51.9081 84.7567L50.4988 82.9138ZM47.921 84.1154C46.8949 84.383 45.7762 84.5207 44.5597 84.5207V86.8407C45.9515 86.8407 47.2689 86.6831 48.5066 86.3602L47.921 84.1154ZM44.5597 84.5207C42.4046 84.5207 40.8422 84.2212 39.7842 83.7125L38.7789 85.8034C40.28 86.5251 42.2364 86.8407 44.5597 86.8407V84.5207ZM39.7677 83.7047C39.2828 83.4809 38.9889 83.2186 38.811 82.9483C38.635 82.681 38.5222 82.3299 38.5222 81.8421H36.2022C36.2022 82.7076 36.4093 83.5192 36.8731 84.2238C37.335 84.9255 38.0008 85.4444 38.7955 85.8112L39.7677 83.7047ZM38.5222 81.8421C38.5222 81.4304 38.6019 81.1077 38.732 80.8475L36.6569 79.81C36.3441 80.4356 36.2022 81.1219 36.2022 81.8421H38.5222ZM38.6943 80.9169C38.8858 80.5913 39.062 80.4025 39.2025 80.2971L37.8105 78.4411C37.3604 78.7787 36.9952 79.2296 36.6946 79.7406L38.6943 80.9169ZM37.9461 80.3848C38.7388 80.8221 39.6142 81.184 40.5666 81.475L41.2446 79.2563C40.4254 79.006 39.7013 78.7035 39.0668 78.3534L37.9461 80.3848ZM40.575 81.4776C41.5939 81.7805 42.6403 81.9317 43.7108 81.9317V79.6117C42.8619 79.6117 42.0382 79.4922 41.2362 79.2538L40.575 81.4776ZM43.7108 81.9317C45.1514 81.9317 46.4298 81.6943 47.4537 81.1183L46.3163 79.0963C45.7654 79.4062 44.9276 79.6117 43.7108 79.6117V81.9317ZM47.4537 81.1183C48.6447 80.4484 49.2261 79.324 49.2261 77.9665H46.9061C46.9061 78.5775 46.7002 78.8803 46.3163 79.0963L47.4537 81.1183ZM49.2261 77.9665V77.376H46.9061V77.9665H49.2261ZM47.5998 76.3138C46.7767 76.6752 45.7149 76.8803 44.3751 76.8803V79.2003C45.9389 79.2003 47.3378 78.9626 48.5324 78.4381L47.5998 76.3138ZM44.3751 76.8803C43.3813 76.8803 42.4418 76.7371 41.5515 76.4548L40.8503 78.6663C41.9777 79.0237 43.1544 79.2003 44.3751 79.2003V76.8803ZM41.5841 76.4656C40.7434 76.1714 40.0044 75.7334 39.3578 75.1495L37.8027 76.8711C38.6818 77.6651 39.6899 78.2607 40.8177 78.6554L41.5841 76.4656ZM39.3865 75.1763C38.7782 74.5882 38.2573 73.8153 37.8403 72.8277L35.703 73.7302C36.2211 74.9572 36.906 76.0052 37.774 76.8443L39.3865 75.1763ZM37.8487 72.8481C37.4736 71.9102 37.2673 70.747 37.2673 69.3296H34.9473C34.9473 70.9633 35.184 72.4331 35.6946 73.7098L37.8487 72.8481ZM37.2673 69.3296C37.2673 67.9463 37.483 66.8021 37.8772 65.8683L35.7399 64.9659C35.1991 66.2468 34.9473 67.7109 34.9473 69.3296H37.2673ZM37.8686 65.8882C38.2976 64.923 38.8627 64.1584 39.5545 63.5683L38.049 61.8032C37.0675 62.6403 36.3038 63.6967 35.7486 64.946L37.8686 65.8882ZM39.5566 63.5665C40.2866 62.9408 41.1488 62.4745 42.1595 62.1735L41.4972 59.95C40.1949 60.3379 39.0393 60.9543 38.0468 61.805L39.5566 63.5665ZM42.1743 62.1689C43.2316 61.8386 44.3932 61.6681 45.667 61.6681V59.3481C44.1848 59.3481 42.7874 59.5467 41.4824 59.9545L42.1743 62.1689ZM48.5309 64.8529C48.2375 64.6852 47.8736 64.5564 47.499 64.4494L46.8616 66.6801C47.176 66.7699 47.3288 66.838 47.3799 66.8672L48.5309 64.8529ZM47.5214 64.4561C47.0523 64.3117 46.521 64.2571 45.9623 64.2571V66.5771C46.3878 66.5771 46.6685 66.621 46.8392 66.6735L47.5214 64.4561ZM45.9623 64.2571C44.5331 64.2571 43.2633 64.6727 42.3656 65.678L44.0962 67.2232C44.4289 66.8506 44.98 66.5771 45.9623 66.5771V64.2571ZM42.3639 65.6799C41.5195 66.6299 41.1851 67.9069 41.1851 69.3296H43.5051C43.5051 68.2424 43.7612 67.6 44.0979 67.2213L42.3639 65.6799ZM41.1851 69.3296C41.1851 70.8729 41.4968 72.2616 42.3786 73.2168L44.0833 71.6432C43.7839 71.3189 43.5051 70.6406 43.5051 69.3296H41.1851ZM42.4107 73.2503C43.2608 74.1003 44.339 74.5128 45.5563 74.5128V72.1928C44.9034 72.1928 44.4314 71.99 44.0512 71.6098L42.4107 73.2503ZM45.5563 74.5128C46.738 74.5128 47.8199 74.2383 48.6754 73.561L47.2354 71.742C46.9098 71.9998 46.3923 72.1928 45.5563 72.1928V74.5128ZM49.1154 72.6515V65.86H46.7954V72.6515H49.1154ZM58.6365 53.7166L57.8163 52.8964L57.8082 52.9044L57.8004 52.9126L58.6365 53.7166ZM63.6194 53.7166L62.7832 54.5207L62.7911 54.5289L62.7991 54.5369L63.6194 53.7166ZM63.6194 58.4411L62.7991 57.6209L62.7911 57.6289L62.7832 57.6371L63.6194 58.4411ZM58.6365 58.4411L57.8004 59.2451L57.8082 59.2533L57.8163 59.2614L58.6365 58.4411ZM64.2838 78.9631L64.4913 80.1044L65.4438 79.9312V78.9631H64.2838ZM63.0657 79.1476L62.909 77.9983L62.8787 78.0024L62.8487 78.0081L63.0657 79.1476ZM60.0022 79.1846L59.8006 80.327L59.8115 80.3288L60.0022 79.1846ZM58.9318 78.7416L58.2358 79.6696L58.9318 78.7416ZM58.2305 77.8558L57.1444 78.2631L57.1602 78.3054L57.1793 78.3463L58.2305 77.8558ZM58.0091 61.3201L57.8016 60.1788L56.8491 60.352V61.3201H58.0091ZM59.1902 61.1356L59.3542 62.2839L59.376 62.2808L59.3977 62.2768L59.1902 61.1356ZM62.2537 61.0986L62.0521 62.2411L62.063 62.2429L62.2537 61.0986ZM63.361 61.5416L62.665 62.4696V62.4696L63.361 61.5416ZM64.0254 62.4643L62.9392 62.8716L62.9551 62.9139L62.9742 62.9549L64.0254 62.4643ZM58.8738 56.0789C58.8738 55.4259 59.0773 54.9319 59.4727 54.5207L57.8004 52.9126C56.9654 53.781 56.5538 54.8618 56.5538 56.0789H58.8738ZM59.4568 54.5369C59.8475 54.1461 60.373 53.917 61.1464 53.917V51.597C59.8528 51.597 58.7051 52.0076 57.8163 52.8964L59.4568 54.5369ZM61.1464 53.917C61.9208 53.917 62.423 54.146 62.7832 54.5207L64.4555 52.9126C63.5854 52.0077 62.439 51.597 61.1464 51.597V53.917ZM62.7991 54.5369C63.2134 54.9511 63.419 55.44 63.419 56.0789H65.739C65.739 54.8477 65.3049 53.7617 64.4396 52.8964L62.7991 54.5369ZM63.419 56.0789C63.419 56.7178 63.2134 57.2067 62.7991 57.6209L64.4396 59.2614C65.3049 58.3961 65.739 57.3101 65.739 56.0789H63.419ZM62.7832 57.6371C62.423 58.0118 61.9208 58.2408 61.1464 58.2408V60.5608C62.439 60.5608 63.5854 60.15 64.4555 59.2451L62.7832 57.6371ZM61.1464 58.2408C60.373 58.2408 59.8475 58.0117 59.4568 57.6209L57.8163 59.2614C58.7051 60.1502 59.8528 60.5608 61.1464 60.5608V58.2408ZM59.4727 57.6371C59.0773 57.2259 58.8738 56.7319 58.8738 56.0789H56.5538C56.5538 57.296 56.9654 58.3768 57.8004 59.2451L59.4727 57.6371ZM64.0763 77.8218C63.8317 77.8663 63.4464 77.925 62.909 77.9983L63.2225 80.297C63.7677 80.2226 64.1944 80.1583 64.4913 80.1044L64.0763 77.8218ZM62.8487 78.0081C62.4055 78.0925 61.9492 78.1353 61.4786 78.1353V80.4553C62.0907 80.4553 62.6924 80.3996 63.2828 80.2872L62.8487 78.0081ZM61.4786 78.1353C60.9886 78.1353 60.5615 78.1018 60.1929 78.0403L59.8115 80.3288C60.3287 80.415 60.8859 80.4553 61.4786 80.4553V78.1353ZM60.2038 78.0422C59.9377 77.9952 59.7568 77.9104 59.6278 77.8136L58.2358 79.6696C58.6973 80.0158 59.2301 80.2262 59.8006 80.3269L60.2038 78.0422ZM59.6278 77.8136C59.5004 77.7181 59.3818 77.5798 59.2817 77.3652L57.1793 78.3463C57.4237 78.87 57.7727 79.3223 58.2358 79.6696L59.6278 77.8136ZM59.3167 77.4485C59.2349 77.2305 59.1691 76.8771 59.1691 76.3425H56.8491C56.8491 77.0382 56.9309 77.6937 57.1444 78.2631L59.3167 77.4485ZM59.1691 76.3425V61.3201H56.8491V76.3425H59.1691ZM58.2166 62.4614C58.4652 62.4162 58.8416 62.3571 59.3542 62.2839L59.0261 59.9872C58.5053 60.0616 58.0942 60.1256 57.8016 60.1788L58.2166 62.4614ZM59.3977 62.2768C59.8717 62.1907 60.3436 62.1479 60.8142 62.1479V59.8279C60.2021 59.8279 59.5914 59.8836 58.9827 59.9943L59.3977 62.2768ZM60.8142 62.1479C61.3054 62.1479 61.7155 62.1816 62.0521 62.241L62.4553 59.9563C61.9553 59.8681 61.4058 59.8279 60.8142 59.8279V62.1479ZM62.063 62.2429C62.3618 62.2927 62.5473 62.3813 62.665 62.4696L64.057 60.6136C63.5842 60.259 63.0314 60.0523 62.4444 59.9544L62.063 62.2429ZM62.665 62.4696C62.7595 62.5405 62.8582 62.6555 62.9392 62.8716L65.1115 62.057C64.8973 61.4857 64.5531 60.9856 64.057 60.6136L62.665 62.4696ZM62.9742 62.9549C63.0477 63.1123 63.1238 63.4164 63.1238 63.9407H65.4438C65.4438 63.2347 65.3476 62.5546 65.0766 61.9738L62.9742 62.9549ZM63.1238 63.9407V78.9631H65.4438V63.9407H63.1238ZM74.5531 78.9631L74.8864 80.0742L75.7131 79.8262V78.9631H74.5531ZM73.372 79.1846L73.2152 78.0352L73.2079 78.0362L73.372 79.1846ZM70.2715 79.1846L70.0699 80.327L70.0808 80.3288L70.2715 79.1846ZM69.2012 78.7416L69.8972 77.8136L69.2012 78.7416ZM68.4999 77.8558L67.4137 78.2631L67.4296 78.3054L67.4487 78.3463L68.4999 77.8558ZM68.5737 63.83L67.5485 63.2872L67.5422 63.2992L67.5361 63.3112L68.5737 63.83ZM69.4964 62.7227L70.2279 63.623H70.2279L69.4964 62.7227ZM70.9359 61.8738L71.3984 62.9376L71.4089 62.933L71.4192 62.9283L70.9359 61.8738ZM72.8183 61.1725L73.1479 62.2847L72.8183 61.1725ZM74.8853 60.7295L75.0438 61.8787L75.0631 61.876L75.0824 61.8727L74.8853 60.7295ZM79.8312 61.2463L79.1799 62.2062L79.1918 62.2143L79.204 62.2221L79.8312 61.2463ZM80.7171 64.4944L81.8258 64.8355L81.8292 64.8243L81.8324 64.813L80.7171 64.4944ZM80.348 65.3802V66.5402H81.0366L81.3663 65.9357L80.348 65.3802ZM78.7608 65.454L78.8659 66.6093L78.7608 65.454ZM77.1737 65.6755L76.9567 64.536L77.1737 65.6755ZM75.6973 66.0077L75.949 67.1401L75.9708 67.1352L75.9925 67.1295L75.6973 66.0077ZM74.5531 66.3768L74.067 65.3235L73.3931 65.6346V66.3768H74.5531ZM74.2198 77.852C74.0658 77.8982 73.7479 77.9626 73.2153 78.0352L73.5287 80.3339C74.0788 80.2589 74.5483 80.1756 74.8864 80.0742L74.2198 77.852ZM73.2079 78.0362C72.7499 78.1017 72.2635 78.1353 71.7479 78.1353V80.4553C72.3642 80.4553 72.9606 80.4151 73.536 80.3329L73.2079 78.0362ZM71.7479 78.1353C71.258 78.1353 70.8309 78.1018 70.4622 78.0403L70.0808 80.3288C70.598 80.415 71.1552 80.4553 71.7479 80.4553V78.1353ZM70.4731 78.0422C70.207 77.9952 70.0262 77.9104 69.8972 77.8136L68.5051 79.6696C68.9667 80.0158 69.4994 80.2262 70.07 80.3269L70.4731 78.0422ZM69.8972 77.8136C69.7697 77.7181 69.6512 77.5798 69.551 77.3652L67.4487 78.3463C67.6931 78.87 68.042 79.3223 68.5051 79.6696L69.8972 77.8136ZM69.586 77.4485C69.5042 77.2305 69.4384 76.8771 69.4384 76.3425H67.1184C67.1184 77.0382 67.2002 77.6937 67.4137 78.2631L69.586 77.4485ZM69.4384 76.3425V65.2695H67.1184V76.3425H69.4384ZM69.4384 65.2695C69.4384 64.8338 69.5146 64.5421 69.6112 64.3488L67.5361 63.3112C67.2391 63.9053 67.1184 64.5732 67.1184 65.2695H69.4384ZM69.5989 64.3727C69.7423 64.1018 69.9463 63.8518 70.2279 63.623L68.7649 61.8224C68.2591 62.2334 67.848 62.7216 67.5485 63.2872L69.5989 64.3727ZM70.2279 63.623C70.5244 63.3821 70.9091 63.1503 71.3984 62.9376L70.4734 60.81C69.8309 61.0893 69.2559 61.4235 68.7649 61.8224L70.2279 63.623ZM71.4192 62.9283C71.9568 62.6819 72.5326 62.467 73.1479 62.2847L72.4888 60.0603C71.7753 60.2717 71.0962 60.5243 70.4526 60.8192L71.4192 62.9283ZM73.1479 62.2847C73.7541 62.1051 74.3858 61.9694 75.0438 61.8787L74.7268 59.5804C73.9576 59.6865 73.2113 59.8462 72.4888 60.0603L73.1479 62.2847ZM75.0824 61.8727C75.7318 61.7607 76.3795 61.705 77.0261 61.705V59.385C76.2455 59.385 75.4659 59.4523 74.6882 59.5864L75.0824 61.8727ZM77.0261 61.705C78.0683 61.705 78.748 61.9131 79.1799 62.2062L80.4826 60.2864C79.5365 59.6444 78.3461 59.385 77.0261 59.385V61.705ZM79.204 62.2221C79.4729 62.3949 79.7047 62.7046 79.7047 63.4609H82.0247C82.0247 62.1502 81.5676 60.9835 80.4585 60.2705L79.204 62.2221ZM79.7047 63.4609C79.7047 63.6934 79.6717 63.9307 79.6017 64.1757L81.8324 64.813C81.9593 64.3691 82.0247 63.9174 82.0247 63.4609H79.7047ZM79.6084 64.1532C79.5309 64.4051 79.437 64.6278 79.3296 64.8247L81.3663 65.9357C81.5542 65.5912 81.7064 65.2234 81.8258 64.8355L79.6084 64.1532ZM80.348 64.2202C79.7944 64.2202 79.2303 64.2466 78.6558 64.2988L78.8659 66.6093C79.3741 66.5631 79.868 66.5402 80.348 66.5402V64.2202ZM78.6558 64.2988C78.0781 64.3513 77.5117 64.4303 76.9567 64.536L77.3908 66.815C77.8692 66.7239 78.3608 66.6552 78.8659 66.6093L78.6558 64.2988ZM76.9567 64.536C76.4159 64.639 75.8976 64.7555 75.4021 64.8859L75.9925 67.1295C76.4321 67.0138 76.898 66.9089 77.3908 66.815L76.9567 64.536ZM75.4457 64.8753C74.9438 64.9868 74.4799 65.133 74.067 65.3235L75.0392 67.43C75.2661 67.3253 75.565 67.2254 75.949 67.1401L75.4457 64.8753ZM73.3931 66.3768V78.9631H75.7131V66.3768H73.3931ZM89.8387 78.9631L90.0462 80.1044L90.9987 79.9312V78.9631H89.8387ZM88.6207 79.1476L88.464 77.9983L88.4337 78.0024L88.4037 78.0081L88.6207 79.1476ZM85.5572 79.1846L85.3556 80.327L85.3665 80.3288L85.5572 79.1846ZM84.4868 78.7416L83.7908 79.6696L84.4868 78.7416ZM83.7855 77.8558L82.6994 78.2631L82.7152 78.3054L82.7343 78.3463L83.7855 77.8558ZM83.564 54.9347L83.3565 53.7934L82.404 53.9666V54.9347H83.564ZM84.7452 54.7501L84.9092 55.8985L84.931 55.8954L84.9527 55.8914L84.7452 54.7501ZM87.8087 54.7132L87.6071 55.8556L87.618 55.8574L87.8087 54.7132ZM88.916 55.1561L88.22 56.0841L88.916 55.1561ZM89.5804 56.0789L88.4942 56.4862L88.5101 56.5285L88.5292 56.5694L89.5804 56.0789ZM89.6312 77.8218C89.3867 77.8663 89.0014 77.925 88.464 77.9983L88.7774 80.297C89.3227 80.2226 89.7494 80.1583 90.0462 80.1044L89.6312 77.8218ZM88.4037 78.0081C87.9605 78.0925 87.5042 78.1353 87.0336 78.1353V80.4553C87.6456 80.4553 88.2474 80.3996 88.8378 80.2872L88.4037 78.0081ZM87.0336 78.1353C86.5436 78.1353 86.1165 78.1018 85.7479 78.0403L85.3665 80.3288C85.8837 80.415 86.4409 80.4553 87.0336 80.4553V78.1353ZM85.7588 78.0422C85.4927 77.9952 85.3118 77.9104 85.1828 77.8136L83.7908 79.6696C84.2523 80.0158 84.7851 80.2262 85.3556 80.3269L85.7588 78.0422ZM85.1828 77.8136C85.0554 77.7181 84.9368 77.5798 84.8367 77.3652L82.7343 78.3463C82.9787 78.87 83.3276 79.3223 83.7908 79.6696L85.1828 77.8136ZM84.8716 77.4485C84.7899 77.2305 84.724 76.8771 84.724 76.3425H82.404C82.404 77.0382 82.4858 77.6937 82.6994 78.2631L84.8716 77.4485ZM84.724 76.3425V54.9347H82.404V76.3425H84.724ZM83.7716 56.076C84.0202 56.0308 84.3966 55.9717 84.9092 55.8985L84.5811 53.6018C84.0602 53.6762 83.6492 53.7402 83.3565 53.7934L83.7716 56.076ZM84.9527 55.8914C85.4267 55.8052 85.8986 55.7625 86.3692 55.7625V53.4425C85.7571 53.4425 85.1463 53.4982 84.5377 53.6088L84.9527 55.8914ZM86.3692 55.7625C86.8604 55.7625 87.2705 55.7962 87.6071 55.8556L88.0103 53.5709C87.5102 53.4826 86.9607 53.4425 86.3692 53.4425V55.7625ZM87.618 55.8574C87.9168 55.9072 88.1022 55.9958 88.22 56.0841L89.612 54.2281C89.1392 53.8735 88.5864 53.6668 87.9994 53.569L87.618 55.8574ZM88.22 56.0841C88.3145 56.155 88.4132 56.2701 88.4942 56.4862L90.6665 55.6716C90.4523 55.1003 90.108 54.6002 89.612 54.2281L88.22 56.0841ZM88.5292 56.5694C88.6026 56.7268 88.6787 57.031 88.6787 57.5553H90.9987C90.9987 56.8492 90.9026 56.1692 90.6315 55.5883L88.5292 56.5694ZM88.6787 57.5553V78.9631H90.9987V57.5553H88.6787ZM106.827 78.0403L107.526 78.9664V78.9664L106.827 78.0403ZM97.7476 79.406L97.9383 78.2618L97.7476 79.406ZM95.4592 78.7416L94.924 79.7708L94.9482 79.7834L94.973 79.7949L95.4592 78.7416ZM93.9828 77.5605L93.0489 78.2486L93.0603 78.2642L93.0723 78.2793L93.9828 77.5605ZM93.8351 74.4232L94.8188 75.038L94.8271 75.0247L94.835 75.0113L93.8351 74.4232ZM94.721 73.3897L95.2813 72.374L94.6085 72.0028L94.0043 72.4776L94.721 73.3897ZM97.157 74.4601L96.7725 75.5545L96.79 75.5606L96.8077 75.5662L97.157 74.4601ZM102.103 74.5708L101.56 73.5456L101.547 73.5525L101.534 73.5598L102.103 74.5708ZM100.811 72.3931L100.584 73.5306L100.595 73.5329L100.607 73.535L100.811 72.3931ZM99.7038 72.1716L99.9313 71.0342L99.9263 71.0332L99.7038 72.1716ZM94.9055 70.2154L94.1387 71.0858L94.1497 71.0955L94.1609 71.1049L94.9055 70.2154ZM93.9458 63.8669L92.9223 63.321L93.9458 63.8669ZM95.6068 62.0214L96.2654 62.9763H96.2654L95.6068 62.0214ZM98.1536 60.8772L97.853 59.7568L97.846 59.7587L98.1536 60.8772ZM104.022 60.6926L103.809 61.8328L103.828 61.8365L103.849 61.8396L104.022 60.6926ZM106.126 61.2832L105.643 62.3377L106.126 61.2832ZM107.529 62.3536L106.613 63.0658L106.623 63.0785L106.633 63.091L107.529 62.3536ZM107.713 65.3433L106.688 64.8006L106.682 64.8125L106.676 64.8245L107.713 65.3433ZM106.938 66.3399L106.323 67.3235L107.041 67.7722L107.687 67.2254L106.938 66.3399ZM106.052 65.9708L105.645 67.0569L105.675 67.0683L105.706 67.078L106.052 65.9708ZM104.76 65.6017L104.465 66.7235L104.493 66.7308L104.522 66.7368L104.76 65.6017ZM103.321 65.3064L103.14 66.4522L103.149 66.4536L103.321 65.3064ZM100.147 65.4909L100.567 66.5721L100.593 66.5621L100.618 66.551L100.147 65.4909ZM99.8514 67.0042L99.1862 67.9546V67.9546L99.8514 67.0042ZM101.254 67.4841L101.51 66.3525L101.497 66.3498L101.254 67.4841ZM102.398 67.7425L102.657 66.6118L102.654 66.6109L102.398 67.7425ZM107.418 69.994L106.608 70.8245L106.619 70.8348L106.629 70.8447L107.418 69.994ZM107.771 73.648C107.771 75.1815 107.22 76.2913 106.129 77.1143L107.526 78.9664C109.24 77.6732 110.091 75.8548 110.091 73.648H107.771ZM106.129 77.1143C105.012 77.957 103.237 78.4675 100.627 78.4675V80.7875C103.479 80.7875 105.838 80.2398 107.526 78.9664L106.129 77.1143ZM100.627 78.4675C99.6477 78.4675 98.7525 78.3975 97.9383 78.2618L97.5569 80.5502C98.5143 80.7098 99.5385 80.7875 100.627 80.7875V78.4675ZM97.9383 78.2618C97.128 78.1268 96.4695 77.9303 95.9453 77.6884L94.973 79.7949C95.7284 80.1435 96.5954 80.39 97.5569 80.5502L97.9383 78.2618ZM95.9943 77.7125C95.5011 77.456 95.1453 77.161 94.8932 76.8417L93.0723 78.2793C93.5585 78.8951 94.1869 79.3875 94.924 79.7708L95.9943 77.7125ZM94.9166 76.8724C94.734 76.6246 94.626 76.3182 94.626 75.8996H92.306C92.306 76.7605 92.5425 77.5614 93.0489 78.2486L94.9166 76.8724ZM94.626 75.8996C94.626 75.4679 94.7155 75.2033 94.8188 75.038L92.8514 73.8084C92.4626 74.4304 92.306 75.1501 92.306 75.8996H94.626ZM94.835 75.0113C95.0156 74.7043 95.2185 74.4739 95.4376 74.3018L94.0043 72.4776C93.5344 72.8468 93.1468 73.3054 92.8353 73.835L94.835 75.0113ZM94.1606 74.4053C94.9397 74.8352 95.8121 75.217 96.7725 75.5545L97.5415 73.3657C96.6811 73.0633 95.9294 72.7316 95.2813 72.374L94.1606 74.4053ZM96.8077 75.5662C97.8782 75.9043 99.0701 76.063 100.368 76.063V73.743C99.2548 73.743 98.3059 73.6064 97.5063 73.3539L96.8077 75.5662ZM100.368 76.063C101.209 76.063 102.023 75.9467 102.672 75.5818L101.534 73.5598C101.396 73.6378 101.053 73.743 100.368 73.743V76.063ZM102.646 75.596C103.318 75.2401 103.89 74.6096 103.89 73.685H101.57C101.57 73.6662 101.573 73.6358 101.585 73.5996C101.596 73.5632 101.612 73.5335 101.627 73.5127C101.655 73.4737 101.656 73.4947 101.56 73.5456L102.646 75.596ZM103.89 73.685C103.89 72.9388 103.537 72.312 102.931 71.9078L101.644 73.8381C101.659 73.8482 101.63 73.832 101.601 73.7791C101.588 73.7547 101.58 73.731 101.575 73.7111C101.57 73.6919 101.57 73.682 101.57 73.685H103.89ZM102.931 71.9078C102.428 71.5725 101.738 71.3803 101.015 71.2512L100.607 73.535C101.262 73.652 101.556 73.7797 101.644 73.8381L102.931 71.9078ZM101.039 71.2556L99.9313 71.0342L99.4763 73.3091L100.584 73.5306L101.039 71.2556ZM99.9263 71.0332C97.8769 70.6327 96.4951 70.0334 95.6502 69.326L94.1609 71.1049C95.4321 72.1691 97.2491 72.8739 99.4813 73.3101L99.9263 71.0332ZM95.6723 69.345C94.9418 68.7015 94.5153 67.7579 94.5153 66.3399H92.1953C92.1953 68.2684 92.8022 69.9084 94.1387 71.0858L95.6723 69.345ZM94.5153 66.3399C94.5153 65.6026 94.673 64.9684 94.9694 64.4128L92.9223 63.321C92.4313 64.2418 92.1953 65.2562 92.1953 66.3399H94.5153ZM94.9694 64.4128C95.2727 63.8441 95.6987 63.3672 96.2654 62.9763L94.9482 61.0665C94.0877 61.6599 93.4065 62.4133 92.9223 63.321L94.9694 64.4128ZM96.2654 62.9763C96.8549 62.5698 97.5805 62.2379 98.4612 61.9957L97.846 59.7587C96.7581 60.0579 95.7859 60.4887 94.9482 61.0665L96.2654 62.9763ZM98.4542 61.9976C99.3513 61.7569 100.356 61.6312 101.475 61.6312V59.3112C100.184 59.3112 98.9736 59.4562 97.853 59.7568L98.4542 61.9976ZM101.475 61.6312C102.324 61.6312 103.1 61.7 103.809 61.8328L104.236 59.5525C103.369 59.39 102.448 59.3112 101.475 59.3112V61.6312ZM103.849 61.8396C104.58 61.9504 105.173 62.1222 105.643 62.3377L106.609 60.2287C105.899 59.9029 105.088 59.6809 104.196 59.5457L103.849 61.8396ZM105.643 62.3377C106.091 62.543 106.4 62.7917 106.613 63.0658L108.444 61.6414C107.969 61.0296 107.343 60.5648 106.609 60.2287L105.643 62.3377ZM106.633 63.091C106.791 63.2825 106.885 63.5195 106.885 63.8669H109.205C109.205 63.0332 108.955 62.2613 108.424 61.6162L106.633 63.091ZM106.885 63.8669C106.885 64.2805 106.805 64.5792 106.688 64.8006L108.738 65.886C109.064 65.2707 109.205 64.5852 109.205 63.8669H106.885ZM106.676 64.8245C106.546 65.0849 106.383 65.2902 106.189 65.4543L107.687 67.2254C108.133 66.8482 108.487 66.3891 108.751 65.8621L106.676 64.8245ZM107.553 65.3562C107.231 65.1551 106.826 64.9971 106.398 64.8636L105.706 67.078C106.067 67.1905 106.251 67.2785 106.323 67.3235L107.553 65.3562ZM106.46 64.8846C106.004 64.7139 105.517 64.5754 104.999 64.4666L104.522 66.7368C104.939 66.8248 105.313 66.9324 105.645 67.0569L106.46 64.8846ZM105.056 64.4799C104.546 64.3458 104.025 64.2391 103.493 64.1592L103.149 66.4536C103.601 66.5213 104.039 66.6114 104.465 66.7235L105.056 64.4799ZM103.502 64.1606C102.986 64.0791 102.494 64.0357 102.029 64.0357V66.3557C102.352 66.3557 102.721 66.386 103.14 66.4522L103.502 64.1606ZM102.029 64.0357C101.15 64.0357 100.334 64.1381 99.6756 64.4309L100.618 66.551C100.845 66.45 101.284 66.3557 102.029 66.3557V64.0357ZM99.7263 64.4098C99.3715 64.5478 99.0092 64.767 98.7349 65.1174C98.449 65.4828 98.3223 65.9102 98.3223 66.3399H100.642C100.642 66.3511 100.641 66.3826 100.626 66.4262C100.612 66.4709 100.589 66.5129 100.562 66.5473C100.509 66.6147 100.479 66.6063 100.567 66.5721L99.7263 64.4098ZM98.3223 66.3399C98.3223 67.035 98.6697 67.593 99.1862 67.9546L100.517 66.0539C100.511 66.0501 100.55 66.0766 100.589 66.1456C100.629 66.219 100.642 66.292 100.642 66.3399H98.3223ZM99.1862 67.9546C99.6432 68.2744 100.321 68.4704 101.011 68.6183L101.497 66.3498C101.18 66.2819 100.939 66.2162 100.762 66.1558C100.574 66.0915 100.512 66.0505 100.517 66.0539L99.1862 67.9546ZM100.999 68.6156L102.143 68.874L102.654 66.6109L101.51 66.3526L100.999 68.6156ZM102.139 68.8731C104.431 69.3985 105.853 70.0883 106.608 70.8245L108.228 69.1634C107.014 67.9803 105.09 67.1691 102.657 66.6118L102.139 68.8731ZM106.629 70.8447C107.378 71.5389 107.771 72.4371 107.771 73.648H110.091C110.091 71.8569 109.475 70.3191 108.207 69.1432L106.629 70.8447Z" fill="#F66C57"/>
<path style="mix-blend-mode:multiply" opacity="0.58" d="M70 125.941C100.928 125.941 126 100.869 126 69.9407C126 39.0127 100.928 13.9407 70 13.9407C39.0721 13.9407 14 39.0127 14 69.9407C14 100.869 39.0721 125.941 70 125.941Z" fill="url(#paint1_radial_0_1)"/>
<g style="mix-blend-mode:screen">
<path style="mix-blend-mode:screen" d="M70.1215 2.42416C83.4855 2.42416 96.5493 6.37645 107.661 13.7812C118.773 21.186 127.433 31.7107 132.547 44.0244C137.662 56.3381 139 69.8877 136.393 82.9599C133.785 96.032 127.35 108.04 117.9 117.464C108.451 126.889 96.4108 133.307 83.3036 135.907C70.1965 138.507 56.6105 137.173 44.2638 132.072C31.9171 126.972 21.3642 118.334 13.9396 107.252C6.51499 96.1701 2.55211 83.1412 2.55211 69.813C2.55211 51.9403 9.67101 34.7997 22.3427 22.1619C35.0144 9.52403 52.201 2.42416 70.1215 2.42416ZM70.1215 0.000105259C56.2717 -0.0238754 42.726 4.05019 31.1986 11.7067C19.6712 19.3633 10.6802 30.2581 5.36341 43.0126C0.0466355 55.7671 -1.35695 69.808 1.33028 83.3583C4.0175 96.9087 10.6747 109.359 20.4596 119.135C30.2444 128.911 42.7169 135.572 56.2989 138.275C69.8809 140.979 83.9617 139.604 96.7596 134.323C109.558 129.043 120.497 120.095 128.194 108.611C135.891 97.1282 140 83.6258 140 69.813C140 51.3184 132.642 33.5796 119.54 20.4906C106.439 7.40165 88.6656 0.0322138 70.1215 0.000105259Z" fill="url(#paint2_linear_0_1)"/>
</g>
<g opacity="0.2">
<path opacity="0.2" d="M70.6077 15.0292C80.573 35.6337 52.1355 36.3609 47.1529 42.2999C42.1702 48.2388 37.1876 76.6003 16.0418 59.7531C8.38552 50.4205 14.4619 32.846 29.5313 20.6046C44.6008 8.36307 62.9515 5.81781 70.6077 15.0292Z" fill="white"/>
</g>
<defs>
<radialGradient id="paint0_radial_0_1" cx="0" cy="0" r="1" gradientUnits="userSpaceOnUse" gradientTransform="translate(70 69.9407) scale(56)">
<stop stop-color="white"/>
<stop offset="1"/>
</radialGradient>
<radialGradient id="paint1_radial_0_1" cx="0" cy="0" r="1" gradientUnits="userSpaceOnUse" gradientTransform="translate(70 69.9407) scale(56)">
<stop offset="0.56" stop-color="white"/>
<stop offset="0.63" stop-color="#FEFDFC"/>
<stop offset="0.69" stop-color="#FAF8F2"/>
<stop offset="0.74" stop-color="#F4F0E1"/>
<stop offset="0.79" stop-color="#ECE4C9"/>
<stop offset="0.84" stop-color="#E1D4AA"/>
<stop offset="0.89" stop-color="#D3C184"/>
<stop offset="0.93" stop-color="#C3AA57"/>
<stop offset="0.97" stop-color="#B19125"/>
<stop offset="1" stop-color="#A47E00"/>
</radialGradient>
<linearGradient id="paint2_linear_0_1" x1="104.998" y1="130.172" x2="35.3992" y2="9.1719" gradientUnits="userSpaceOnUse">
<stop stop-color="white"/>
<stop offset="0.51" stop-color="white" stop-opacity="0"/>
<stop offset="1" stop-color="white"/>
</linearGradient>
</defs>
</svg>
