<svg width="77" height="77" viewBox="0 0 77 77" fill="none" xmlns="http://www.w3.org/2000/svg">
<g style="mix-blend-mode:darken" opacity="0.7">
<g style="mix-blend-mode:darken">
<path d="M38.0368 0.0666733C54.7843 0.0666733 68.3608 13.7791 68.3608 30.6943C68.3608 47.6095 54.7843 61.322 38.0368 61.322C21.2893 61.322 7.71277 47.6095 7.71277 30.6943C7.71277 13.7791 21.2893 0.0666733 38.0368 0.0666733Z" fill="white"/>
</g>
<g style="mix-blend-mode:darken">
<path d="M38.0368 0.333549C54.7843 0.333549 68.3608 14.046 68.3608 30.9612C68.3608 47.8764 54.7843 61.5888 38.0368 61.5888C21.2893 61.5888 7.71277 47.8764 7.71277 30.9612C7.71277 14.046 21.2893 0.333549 38.0368 0.333549Z" fill="#F5F5F5"/>
</g>
<g style="mix-blend-mode:darken">
<path d="M38.0368 0.60043C54.7843 0.60043 68.3608 14.3428 68.3608 31.2948C68.3608 48.2468 54.7843 61.9892 38.0368 61.9892C21.2893 61.9892 7.71277 48.2468 7.71277 31.2948C7.71277 14.3428 21.2893 0.60043 38.0368 0.60043Z" fill="#EBEBEB"/>
</g>
<g style="mix-blend-mode:darken">
<path d="M38.0368 0.867374C54.7843 0.867374 68.3608 14.6097 68.3608 31.5618C68.3608 48.5138 54.7843 62.2561 38.0368 62.2561C21.2893 62.2561 7.71277 48.5138 7.71277 31.5618C7.71277 14.6097 21.2893 0.867374 38.0368 0.867374Z" fill="#E2E2E2"/>
</g>
<g style="mix-blend-mode:darken">
<path d="M38.0368 1.13425C54.7843 1.13425 68.3608 14.8766 68.3608 31.8286C68.3608 48.7806 54.7843 62.523 38.0368 62.523C21.2893 62.523 7.71277 48.7806 7.71277 31.8286C7.71277 14.8766 21.2893 1.13425 38.0368 1.13425Z" fill="#D8D8D8"/>
</g>
<g style="mix-blend-mode:darken">
<path d="M38.0368 1.4012C54.7843 1.4012 68.3608 15.1435 68.3608 32.0956C68.3608 49.0476 54.7843 62.7899 38.0368 62.7899C21.2893 62.7899 7.71277 49.0476 7.71277 32.0956C7.71277 15.1435 21.2893 1.4012 38.0368 1.4012Z" fill="#CECECE"/>
</g>
<g style="mix-blend-mode:darken">
<path d="M38.0368 1.60139C54.7843 1.60139 68.3608 15.3736 68.3608 32.3625C68.3608 49.3514 54.7843 63.1236 38.0368 63.1236C21.2893 63.1236 7.71277 49.3514 7.71277 32.3625C7.71277 15.3736 21.2893 1.60139 38.0368 1.60139Z" fill="#C4C4C4"/>
</g>
<g style="mix-blend-mode:darken">
<path d="M38.0368 1.93497C54.7843 1.93497 68.3608 15.7072 68.3608 32.6961C68.3608 49.685 54.7843 63.4572 38.0368 63.4572C21.2893 63.4572 7.71277 49.685 7.71277 32.6961C7.71277 15.7072 21.2893 1.93497 38.0368 1.93497Z" fill="#BABABA"/>
</g>
<g style="mix-blend-mode:darken">
<path d="M38.0368 2.20192C54.7843 2.20192 68.3608 15.9741 68.3608 32.963C68.3608 49.9519 54.7843 63.7241 38.0368 63.7241C21.2893 63.7241 7.71277 49.9519 7.71277 32.963C7.71277 15.9741 21.2893 2.20192 38.0368 2.20192Z" fill="#B1B1B1"/>
</g>
<g style="mix-blend-mode:darken">
<path d="M38.0368 2.40211C54.7843 2.40211 68.3608 16.2042 68.3608 33.2299C68.3608 50.2557 54.7843 64.0578 38.0368 64.0578C21.2893 64.0578 7.71277 50.2557 7.71277 33.2299C7.71277 16.2042 21.2893 2.40211 38.0368 2.40211Z" fill="#A7A7A7"/>
</g>
<g style="mix-blend-mode:darken">
<path d="M38.0368 2.66899C54.7843 2.66899 68.3608 16.4711 68.3608 33.4968C68.3608 50.5225 54.7843 64.3246 38.0368 64.3246C21.2893 64.3246 7.71277 50.5225 7.71277 33.4968C7.71277 16.4711 21.2893 2.66899 38.0368 2.66899Z" fill="#9D9D9D"/>
</g>
<g style="mix-blend-mode:darken">
<path d="M38.0368 3.00263C54.7843 3.00263 68.3608 16.8047 68.3608 33.8305C68.3608 50.8562 54.7843 64.6583 38.0368 64.6583C21.2893 64.6583 7.71277 50.8562 7.71277 33.8305C7.71277 16.8047 21.2893 3.00263 38.0368 3.00263Z" fill="#939393"/>
</g>
<g style="mix-blend-mode:darken">
<path d="M38.0368 3.20284C54.7843 3.20284 68.3608 17.0348 68.3608 34.0974C68.3608 51.16 54.7843 64.9919 38.0368 64.9919C21.2893 64.9919 7.71277 51.16 7.71277 34.0974C7.71277 17.0348 21.2893 3.20284 38.0368 3.20284Z" fill="#898989"/>
</g>
<g style="mix-blend-mode:darken">
<path d="M38.0368 3.46969C54.7843 3.46969 68.3608 17.3017 68.3608 34.3642C68.3608 51.4268 54.7843 65.2588 38.0368 65.2588C21.2893 65.2588 7.71277 51.4268 7.71277 34.3642C7.71277 17.3017 21.2893 3.46969 38.0368 3.46969Z" fill="#808080"/>
</g>
<g style="mix-blend-mode:darken">
<path d="M38.0368 3.73663C54.7843 3.73663 68.3608 17.5686 68.3608 34.6312C68.3608 51.6938 54.7843 65.5257 38.0368 65.5257C21.2893 65.5257 7.71277 51.6938 7.71277 34.6312C7.71277 17.5686 21.2893 3.73663 38.0368 3.73663Z" fill="#767676"/>
</g>
<g style="mix-blend-mode:darken">
<path d="M38.0368 4.00354C54.7843 4.00354 68.3608 17.8355 68.3608 34.8981C68.3608 51.9607 54.7843 65.7926 38.0368 65.7926C21.2893 65.7926 7.71277 51.9607 7.71277 34.8981C7.71277 17.8355 21.2893 4.00354 38.0368 4.00354Z" fill="#6C6C6C"/>
</g>
<g style="mix-blend-mode:darken">
<path d="M38.0368 4.27044C54.7843 4.27044 68.3608 18.1323 68.3608 35.2317C68.3608 52.3311 54.7843 66.193 38.0368 66.193C21.2893 66.193 7.71277 52.3311 7.71277 35.2317C7.71277 18.1323 21.2893 4.27044 38.0368 4.27044Z" fill="#626262"/>
</g>
<g style="mix-blend-mode:darken">
<path d="M38.0368 4.53735C54.7843 4.53735 68.3608 18.3992 68.3608 35.4986C68.3608 52.5981 54.7843 66.4599 38.0368 66.4599C21.2893 66.4599 7.71277 52.5981 7.71277 35.4986C7.71277 18.3992 21.2893 4.53735 38.0368 4.53735Z" fill="#585858"/>
</g>
<g style="mix-blend-mode:darken">
<path d="M38.0368 4.80424C54.7843 4.80424 68.3608 18.6661 68.3608 35.7655C68.3608 52.865 54.7843 66.7268 38.0368 66.7268C21.2893 66.7268 7.71277 52.865 7.71277 35.7655C7.71277 18.6661 21.2893 4.80424 38.0368 4.80424Z" fill="#4E4E4E"/>
</g>
<g style="mix-blend-mode:darken">
<path d="M38.0368 5.00446C54.7843 5.00446 68.3608 18.8961 68.3608 36.0324C68.3608 53.1687 54.7843 67.0604 38.0368 67.0604C21.2893 67.0604 7.71277 53.1687 7.71277 36.0324C7.71277 18.8961 21.2893 5.00446 38.0368 5.00446Z" fill="#454545"/>
</g>
<g style="mix-blend-mode:darken">
<path d="M38.0368 5.33809C54.7843 5.33809 68.3608 19.2298 68.3608 36.3661C68.3608 53.5024 54.7843 67.3941 38.0368 67.3941C21.2893 67.3941 7.71277 53.5024 7.71277 36.3661C7.71277 19.2298 21.2893 5.33809 38.0368 5.33809Z" fill="#3B3B3B"/>
</g>
<g style="mix-blend-mode:darken">
<path d="M38.0368 5.60495C54.7843 5.60495 68.3608 19.4967 68.3608 36.633C68.3608 53.7693 54.7843 67.661 38.0368 67.661C21.2893 67.661 7.71277 53.7693 7.71277 36.633C7.71277 19.4967 21.2893 5.60495 38.0368 5.60495Z" fill="#313131"/>
</g>
<g style="mix-blend-mode:darken">
<path d="M38.0368 5.80516C54.7843 5.80516 68.3608 19.7267 68.3608 36.8999C68.3608 54.073 54.7843 67.9946 38.0368 67.9946C21.2893 67.9946 7.71277 54.073 7.71277 36.8999C7.71277 19.7267 21.2893 5.80516 38.0368 5.80516Z" fill="#272727"/>
</g>
<g style="mix-blend-mode:darken">
<path d="M38.0368 6.07212C54.7843 6.07212 68.3608 19.9937 68.3608 37.1668C68.3608 54.34 54.7843 68.2616 38.0368 68.2616C21.2893 68.2616 7.71277 54.34 7.71277 37.1668C7.71277 19.9937 21.2893 6.07212 38.0368 6.07212Z" fill="#1D1D1D"/>
</g>
<g style="mix-blend-mode:darken">
<path d="M38.0368 6.33896C54.7843 6.33896 68.3608 20.2605 68.3608 37.4337C68.3608 54.6068 54.7843 68.5284 38.0368 68.5284C21.2893 68.5284 7.71277 54.6068 7.71277 37.4337C7.71277 20.2605 21.2893 6.33896 38.0368 6.33896Z" fill="#141414"/>
</g>
<g style="mix-blend-mode:darken">
<path d="M38.0368 6.67263C54.7843 6.67263 68.3608 20.5942 68.3608 37.7674C68.3608 54.9405 54.7843 68.8621 38.0368 68.8621C21.2893 68.8621 7.71277 54.9405 7.71277 37.7674C7.71277 20.5942 21.2893 6.67263 38.0368 6.67263Z" fill="#0A0A0A"/>
</g>
<g style="mix-blend-mode:darken">
<path d="M38.0368 6.87282C54.7843 6.87282 68.3608 20.8243 68.3608 38.0343C68.3608 55.2443 54.7843 69.1957 38.0368 69.1957C21.2893 69.1957 7.71277 55.2443 7.71277 38.0343C7.71277 20.8243 21.2893 6.87282 38.0368 6.87282Z" fill="black"/>
</g>
</g>
<path d="M38.0368 7.80699C54.7843 7.80699 68.3608 21.5493 68.3608 38.5013C68.3608 55.4534 54.7843 69.1957 38.0368 69.1957C21.2893 69.1957 7.71277 55.4534 7.71277 38.5013C7.71277 21.5493 21.2893 7.80699 38.0368 7.80699Z" fill="#FCCB23"/>
<path style="mix-blend-mode:soft-light" d="M38.0368 7.80699C54.7843 7.80699 68.3608 21.5493 68.3608 38.5013C68.3608 55.4534 54.7843 69.1957 38.0368 69.1957C21.2893 69.1957 7.71277 55.4534 7.71277 38.5013C7.71277 21.5493 21.2893 7.80699 38.0368 7.80699Z" fill="url(#paint0_radial_1_1395)"/>
<path style="mix-blend-mode:multiply" opacity="0.58" d="M38.0368 7.80699C54.7843 7.80699 68.3608 21.5493 68.3608 38.5013C68.3608 55.4534 54.7843 69.1957 38.0368 69.1957C21.2893 69.1957 7.71277 55.4534 7.71277 38.5013C7.71277 21.5493 21.2893 7.80699 38.0368 7.80699Z" fill="url(#paint1_radial_1_1395)"/>
<path d="M54.1218 43.0387C53.1355 44.1989 52.0307 45.2502 50.8257 46.1749L47.2 48.9774C43.9698 51.4463 40.6078 53.8485 37.3776 56.1172C36.657 56.6673 35.9089 57.1795 35.1363 57.6519C34.419 58.2605 33.5 58.5706 32.5654 58.5194C32.0621 58.4691 31.5799 58.2895 31.1646 57.9975C30.7492 57.7055 30.4145 57.3109 30.1922 56.8512C29.9578 56.3516 29.8448 55.8025 29.8626 55.2498V49.5113C29.8626 48.3102 28.2804 48.5771 27.5553 48.5771C26.8302 48.5771 24.8525 48.5771 23.5341 48.5771C22.9728 48.5512 22.4311 48.3608 21.9747 48.0291C21.5183 47.6975 21.1668 47.2387 20.9631 46.7087C20.7641 45.7404 20.7641 44.741 20.9631 43.7727C20.9631 41.504 20.9631 39.302 20.9631 37.1001C20.9631 35.9657 20.9631 34.8313 20.9631 33.697C20.8972 32.6972 20.8972 31.6941 20.9631 30.6943C21.0398 30.1551 21.2664 29.6492 21.6166 29.2356C21.9669 28.8221 22.4261 28.518 22.9408 28.3588C23.5076 28.2565 24.0879 28.2565 24.6547 28.3588H28.4123C28.8078 28.3588 29.3352 28.3588 29.6648 28.3588C29.9944 28.3588 29.6648 27.6916 29.6648 27.2912V23.2876C29.4632 22.0585 29.7217 20.7974 30.3899 19.7511C30.7082 19.3727 31.1201 19.0868 31.5834 18.9227C32.0468 18.7585 32.5449 18.722 33.0268 18.8169C33.9469 18.8141 34.8531 19.0434 35.6637 19.4842C37.3776 20.6852 39.0257 21.953 40.6078 23.2876C43.9039 25.9567 47.2 28.7592 50.2324 31.7619C51.7184 33.0663 53.0461 34.5446 54.1877 36.1659C54.9366 37.1127 55.3446 38.2894 55.3446 39.5022C55.3446 40.7151 54.9366 41.8918 54.1877 42.8386L54.1218 43.0387Z" fill="#FDFBF5" stroke="#A47E00" stroke-width="0.07" stroke-miterlimit="10"/>
<path opacity="0.05" d="M38.0369 0.0666504C59.0077 0.0666504 76.0078 17.2744 76.0078 38.5013C76.0078 59.7282 59.0077 76.936 38.0369 76.936C17.0661 76.936 0.065918 59.7282 0.065918 38.5013C0.065918 17.2744 17.0661 0.0666504 38.0369 0.0666504Z" fill="white"/>
<g style="mix-blend-mode:screen">
<g style="mix-blend-mode:screen">
<path d="M37.9709 0.0666885C17.0002 0.0666885 -2.28882e-05 17.2745 -2.28882e-05 38.5014C-2.28882e-05 59.7283 17.0002 76.9361 37.9709 76.9361C58.9417 76.9361 75.9419 59.7283 75.9419 38.5014C75.9419 17.2745 58.9417 0.0666885 37.9709 0.0666885Z" fill="url(#paint2_linear_1_1395)" fill-opacity="0.1" style="mix-blend-mode:screen"/>
<path d="M37.9709 0.0666885C17.0002 0.0666885 -2.28882e-05 17.2745 -2.28882e-05 38.5014C-2.28882e-05 59.7283 17.0002 76.9361 37.9709 76.9361C58.9417 76.9361 75.9419 59.7283 75.9419 38.5014C75.9419 17.2745 58.9417 0.0666885 37.9709 0.0666885Z" fill="url(#paint3_linear_1_1395)" fill-opacity="0.3" style="mix-blend-mode:screen"/>
</g>
<path style="mix-blend-mode:screen" d="M37.971 75.5348C30.7376 75.5216 23.6705 73.3384 17.6625 69.2611C11.6546 65.1838 6.97545 59.3954 4.21641 52.6272C1.45736 45.8591 0.742224 38.415 2.16136 31.2357C3.5805 24.0563 7.07022 17.4638 12.1896 12.2913C17.3089 7.11872 23.8281 3.59826 30.9234 2.17471C38.0187 0.751171 45.3717 1.48843 52.0532 4.29335C58.7347 7.09827 64.4448 11.845 68.4621 17.9336C72.4794 24.0223 74.6235 31.1797 74.6235 38.5013C74.606 48.3293 70.7367 57.7488 63.8649 64.692C56.9932 71.6352 47.6804 75.5348 37.971 75.5348ZM37.971 76.8693C45.4865 76.8825 52.8369 74.6379 59.0913 70.4197C65.3457 66.2015 70.2227 60.1995 73.1048 53.1738C75.9869 46.1481 76.7444 38.4146 75.2814 30.9528C73.8184 23.491 70.2007 16.6365 64.8864 11.2573C59.5721 5.87806 52.8002 2.21613 45.4285 0.735249C38.0567 -0.745634 30.4165 0.0211464 23.4756 2.93844C16.5346 5.85574 10.605 10.7923 6.43773 17.1231C2.27044 23.4539 0.0529059 30.894 0.0659425 38.5013C0.0659425 43.5399 1.04638 48.5291 2.95129 53.1841C4.8562 57.8392 7.64826 62.0688 11.1681 65.6316C14.6879 69.1944 18.8665 72.0206 23.4653 73.9487C28.0642 75.8769 32.9932 76.8693 37.971 76.8693V76.8693Z" fill="url(#paint4_linear_1_1395)"/>
</g>
<g opacity="0.2">
<path opacity="0.2" d="M38.3005 68.5952C43.7061 57.3183 28.2804 56.651 25.5776 53.5816C22.8748 50.5122 20.172 34.7646 8.70163 44.0397C4.54855 49.1109 7.84464 58.7863 16.0189 65.5924C24.1932 72.3986 34.1474 73.7331 38.3005 68.5952Z" fill="white"/>
</g>
<defs>
<radialGradient id="paint0_radial_1_1395" cx="0" cy="0" r="1" gradientUnits="userSpaceOnUse" gradientTransform="translate(38.0368 38.5014) scale(30.324 30.6944)">
<stop stop-color="white"/>
<stop offset="1"/>
</radialGradient>
<radialGradient id="paint1_radial_1_1395" cx="0" cy="0" r="1" gradientUnits="userSpaceOnUse" gradientTransform="translate(38.0368 38.5014) scale(30.324 30.6944)">
<stop offset="0.56" stop-color="white"/>
<stop offset="0.63" stop-color="#FEFDFC"/>
<stop offset="0.69" stop-color="#FAF8F2"/>
<stop offset="0.74" stop-color="#F4F0E1"/>
<stop offset="0.79" stop-color="#ECE4C9"/>
<stop offset="0.84" stop-color="#E1D4AA"/>
<stop offset="0.89" stop-color="#D3C184"/>
<stop offset="0.93" stop-color="#C3AA57"/>
<stop offset="0.97" stop-color="#B19125"/>
<stop offset="1" stop-color="#A47E00"/>
</radialGradient>
<linearGradient id="paint2_linear_1_1395" x1="14.4543" y1="-80.5967" x2="148.033" y2="-1.36932" gradientUnits="userSpaceOnUse">
<stop stop-color="#FAFAFA" stop-opacity="0.09"/>
<stop offset="0.145833" stop-color="white"/>
<stop offset="0.541667" stop-color="white"/>
<stop offset="0.864583" stop-color="#E0E0E0" stop-opacity="0"/>
<stop offset="1" stop-color="white" stop-opacity="0"/>
</linearGradient>
<linearGradient id="paint3_linear_1_1395" x1="6.16051" y1="8.49074" x2="77.3072" y2="19.7398" gradientUnits="userSpaceOnUse">
<stop stop-color="#FAFAFA"/>
<stop offset="0.145833" stop-color="white" stop-opacity="0"/>
<stop offset="0.541667" stop-color="white" stop-opacity="0.02"/>
<stop offset="0.864583" stop-color="white" stop-opacity="0"/>
<stop offset="1" stop-color="white"/>
</linearGradient>
<linearGradient id="paint4_linear_1_1395" x1="19.0527" y1="5.20463" x2="57.6526" y2="71.3255" gradientUnits="userSpaceOnUse">
<stop stop-color="white"/>
<stop offset="0.51" stop-color="white" stop-opacity="0"/>
<stop offset="1" stop-color="white"/>
</linearGradient>
</defs>
</svg>
