<svg width="107" height="109" viewBox="0 0 107 109" fill="none" xmlns="http://www.w3.org/2000/svg">
<g style="mix-blend-mode:darken" opacity="0.7">
<g style="mix-blend-mode:darken">
<path d="M53.3703 108.449C76.8697 108.449 95.9196 89.2079 95.9196 65.4732C95.9196 41.7386 76.8697 22.4979 53.3703 22.4979C29.871 22.4979 10.821 41.7386 10.821 65.4732C10.821 89.2079 29.871 108.449 53.3703 108.449Z" fill="white"/>
</g>
<g style="mix-blend-mode:darken">
<path d="M53.3703 108.074C76.8697 108.074 95.9196 88.8333 95.9196 65.0987C95.9196 41.3641 76.8697 22.1234 53.3703 22.1234C29.871 22.1234 10.821 41.3641 10.821 65.0987C10.821 88.8333 29.871 108.074 53.3703 108.074Z" fill="#F5F5F5"/>
</g>
<g style="mix-blend-mode:darken">
<path d="M53.3703 107.793C76.8697 107.793 95.9196 88.5106 95.9196 64.7242C95.9196 40.9379 76.8697 21.6553 53.3703 21.6553C29.871 21.6553 10.821 40.9379 10.821 64.7242C10.821 88.5106 29.871 107.793 53.3703 107.793Z" fill="#EBEBEB"/>
</g>
<g style="mix-blend-mode:darken">
<path d="M53.3703 107.325C76.8697 107.325 95.9196 88.0424 95.9196 64.2561C95.9196 40.4698 76.8697 21.1871 53.3703 21.1871C29.871 21.1871 10.821 40.4698 10.821 64.2561C10.821 88.0424 29.871 107.325 53.3703 107.325Z" fill="#E2E2E2"/>
</g>
<g style="mix-blend-mode:darken">
<path d="M53.3703 106.951C76.8697 106.951 95.9196 87.6679 95.9196 63.8816C95.9196 40.0952 76.8697 20.8126 53.3703 20.8126C29.871 20.8126 10.821 40.0952 10.821 63.8816C10.821 87.6679 29.871 106.951 53.3703 106.951Z" fill="#D8D8D8"/>
</g>
<g style="mix-blend-mode:darken">
<path d="M53.3703 106.576C76.8697 106.576 95.9196 87.2934 95.9196 63.5071C95.9196 39.7207 76.8697 20.4381 53.3703 20.4381C29.871 20.4381 10.821 39.7207 10.821 63.5071C10.821 87.2934 29.871 106.576 53.3703 106.576Z" fill="#CECECE"/>
</g>
<g style="mix-blend-mode:darken">
<path d="M53.3703 106.295C76.8697 106.295 95.9196 86.9706 95.9196 63.1325C95.9196 39.2945 76.8697 19.97 53.3703 19.97C29.871 19.97 10.821 39.2945 10.821 63.1325C10.821 86.9706 29.871 106.295 53.3703 106.295Z" fill="#C4C4C4"/>
</g>
<g style="mix-blend-mode:darken">
<path d="M53.3703 105.921C76.8697 105.921 95.9196 86.5961 95.9196 62.758C95.9196 38.92 76.8697 19.5955 53.3703 19.5955C29.871 19.5955 10.821 38.92 10.821 62.758C10.821 86.5961 29.871 105.921 53.3703 105.921Z" fill="#BABABA"/>
</g>
<g style="mix-blend-mode:darken">
<path d="M53.3703 105.452C76.8697 105.452 95.9196 86.1279 95.9196 62.2899C95.9196 38.4519 76.8697 19.1273 53.3703 19.1273C29.871 19.1273 10.821 38.4519 10.821 62.2899C10.821 86.1279 29.871 105.452 53.3703 105.452Z" fill="#B1B1B1"/>
</g>
<g style="mix-blend-mode:darken">
<path d="M53.3703 105.172C76.8697 105.172 95.9196 85.8051 95.9196 61.9154C95.9196 38.0256 76.8697 18.6592 53.3703 18.6592C29.871 18.6592 10.821 38.0256 10.821 61.9154C10.821 85.8051 29.871 105.172 53.3703 105.172Z" fill="#A7A7A7"/>
</g>
<g style="mix-blend-mode:darken">
<path d="M53.3703 104.797C76.8697 104.797 95.9196 85.4306 95.9196 61.5409C95.9196 37.6511 76.8697 18.2847 53.3703 18.2847C29.871 18.2847 10.821 37.6511 10.821 61.5409C10.821 85.4306 29.871 104.797 53.3703 104.797Z" fill="#9D9D9D"/>
</g>
<g style="mix-blend-mode:darken">
<path d="M53.3703 104.423C76.8697 104.423 95.9196 85.0561 95.9196 61.1664C95.9196 37.2766 76.8697 17.9102 53.3703 17.9102C29.871 17.9102 10.821 37.2766 10.821 61.1664C10.821 85.0561 29.871 104.423 53.3703 104.423Z" fill="#939393"/>
</g>
<g style="mix-blend-mode:darken">
<path d="M53.3703 104.048C76.8697 104.048 95.9196 84.6397 95.9196 60.6982C95.9196 36.7568 76.8697 17.3484 53.3703 17.3484C29.871 17.3484 10.821 36.7568 10.821 60.6982C10.821 84.6397 29.871 104.048 53.3703 104.048Z" fill="#898989"/>
</g>
<g style="mix-blend-mode:darken">
<path d="M53.3703 103.674C76.8697 103.674 95.9196 84.2652 95.9196 60.3237C95.9196 36.3822 76.8697 16.9739 53.3703 16.9739C29.871 16.9739 10.821 36.3822 10.821 60.3237C10.821 84.2652 29.871 103.674 53.3703 103.674Z" fill="#808080"/>
</g>
<g style="mix-blend-mode:darken">
<path d="M53.3703 103.299C76.8697 103.299 95.9196 83.8907 95.9196 59.9492C95.9196 36.0078 76.8697 16.5994 53.3703 16.5994C29.871 16.5994 10.821 36.0078 10.821 59.9492C10.821 83.8907 29.871 103.299 53.3703 103.299Z" fill="#767676"/>
</g>
<g style="mix-blend-mode:darken">
<path d="M53.3703 102.925C76.8697 102.925 95.9196 83.5161 95.9196 59.5747C95.9196 35.6332 76.8697 16.2249 53.3703 16.2249C29.871 16.2249 10.821 35.6332 10.821 59.5747C10.821 83.5161 29.871 102.925 53.3703 102.925Z" fill="#6C6C6C"/>
</g>
<g style="mix-blend-mode:darken">
<path d="M53.3703 102.644C76.8697 102.644 95.9196 83.1934 95.9196 59.2002C95.9196 35.207 76.8697 15.7567 53.3703 15.7567C29.871 15.7567 10.821 35.207 10.821 59.2002C10.821 83.1934 29.871 102.644 53.3703 102.644Z" fill="#626262"/>
</g>
<g style="mix-blend-mode:darken">
<path d="M53.3703 102.176C76.8697 102.176 95.9196 82.7252 95.9196 58.732C95.9196 34.7389 76.8697 15.2886 53.3703 15.2886C29.871 15.2886 10.821 34.7389 10.821 58.732C10.821 82.7252 29.871 102.176 53.3703 102.176Z" fill="#585858"/>
</g>
<g style="mix-blend-mode:darken">
<path d="M53.3703 101.801C76.8697 101.801 95.9196 82.3507 95.9196 58.3575C95.9196 34.3644 76.8697 14.9141 53.3703 14.9141C29.871 14.9141 10.821 34.3644 10.821 58.3575C10.821 82.3507 29.871 101.801 53.3703 101.801Z" fill="#4E4E4E"/>
</g>
<g style="mix-blend-mode:darken">
<path d="M53.3703 101.52C76.8697 101.52 95.9196 82.0279 95.9196 57.983C95.9196 33.9381 76.8697 14.4459 53.3703 14.4459C29.871 14.4459 10.821 33.9381 10.821 57.983C10.821 82.0279 29.871 101.52 53.3703 101.52Z" fill="#454545"/>
</g>
<g style="mix-blend-mode:darken">
<path d="M53.3703 101.146C76.8697 101.146 95.9196 81.6534 95.9196 57.6085C95.9196 33.5636 76.8697 14.0714 53.3703 14.0714C29.871 14.0714 10.821 33.5636 10.821 57.6085C10.821 81.6534 29.871 101.146 53.3703 101.146Z" fill="#3B3B3B"/>
</g>
<g style="mix-blend-mode:darken">
<path d="M53.3703 100.677C76.8697 100.677 95.9196 81.1852 95.9196 57.1404C95.9196 33.0955 76.8697 13.6033 53.3703 13.6033C29.871 13.6033 10.821 33.0955 10.821 57.1404C10.821 81.1852 29.871 100.677 53.3703 100.677Z" fill="#313131"/>
</g>
<g style="mix-blend-mode:darken">
<path d="M53.3703 100.397C76.8697 100.397 95.9196 80.8624 95.9196 56.7658C95.9196 32.6693 76.8697 13.1351 53.3703 13.1351C29.871 13.1351 10.821 32.6693 10.821 56.7658C10.821 80.8624 29.871 100.397 53.3703 100.397Z" fill="#272727"/>
</g>
<g style="mix-blend-mode:darken">
<path d="M53.3703 100.022C76.8697 100.022 95.9196 80.4879 95.9196 56.3913C95.9196 32.2948 76.8697 12.7606 53.3703 12.7606C29.871 12.7606 10.821 32.2948 10.821 56.3913C10.821 80.4879 29.871 100.022 53.3703 100.022Z" fill="#1D1D1D"/>
</g>
<g style="mix-blend-mode:darken">
<path d="M53.3703 99.6475C76.8697 99.6475 95.9196 80.1134 95.9196 56.0168C95.9196 31.9202 76.8697 12.3861 53.3703 12.3861C29.871 12.3861 10.821 31.9202 10.821 56.0168C10.821 80.1134 29.871 99.6475 53.3703 99.6475Z" fill="#141414"/>
</g>
<g style="mix-blend-mode:darken">
<path d="M53.3703 99.273C76.8697 99.273 95.9196 79.7389 95.9196 55.6423C95.9196 31.5457 76.8697 12.0116 53.3703 12.0116C29.871 12.0116 10.821 31.5457 10.821 55.6423C10.821 79.7389 29.871 99.273 53.3703 99.273Z" fill="#0A0A0A"/>
</g>
<g style="mix-blend-mode:darken">
<path d="M53.3703 98.8985C76.8697 98.8985 95.9196 79.3225 95.9196 55.1742C95.9196 31.0259 76.8697 11.4498 53.3703 11.4498C29.871 11.4498 10.821 31.0259 10.821 55.1742C10.821 79.3225 29.871 98.8985 53.3703 98.8985Z" fill="black"/>
</g>
</g>
<g style="mix-blend-mode:screen">
<path d="M53.3703 108.449C82.7956 108.449 106.649 84.3034 106.649 54.5188C106.649 24.7342 82.7956 0.588989 53.3703 0.588989C23.9451 0.588989 0.0911865 24.7342 0.0911865 54.5188C0.0911865 84.3034 23.9451 108.449 53.3703 108.449Z" fill="white" fill-opacity="0.33"/>
</g>
<path d="M53.3703 97.5877C76.8697 97.5877 95.9196 78.3051 95.9196 54.5188C95.9196 30.7325 76.8697 11.4498 53.3703 11.4498C29.871 11.4498 10.821 30.7325 10.821 54.5188C10.821 78.3051 29.871 97.5877 53.3703 97.5877Z" fill="#FCCB23"/>
<path style="mix-blend-mode:soft-light" d="M53.3703 97.5877C76.8697 97.5877 95.9196 78.3051 95.9196 54.5188C95.9196 30.7325 76.8697 11.4498 53.3703 11.4498C29.871 11.4498 10.821 30.7325 10.821 54.5188C10.821 78.3051 29.871 97.5877 53.3703 97.5877Z" fill="url(#paint0_radial_1_39)"/>
<path style="mix-blend-mode:multiply" opacity="0.58" d="M53.3703 97.5877C76.8697 97.5877 95.9196 78.3051 95.9196 54.5188C95.9196 30.7325 76.8697 11.4498 53.3703 11.4498C29.871 11.4498 10.821 30.7325 10.821 54.5188C10.821 78.3051 29.871 97.5877 53.3703 97.5877Z" fill="url(#paint1_radial_1_39)"/>
<path d="M79.8249 51.8973C78.86 49.5256 77.4099 47.3877 75.57 45.6242C73.8874 43.7651 72.0626 42.0432 70.1125 40.4746C66.3248 37.2576 62.1622 34.5221 57.7178 32.329C55.7333 31.2015 53.6213 30.3213 51.4279 29.7074C50.3701 29.4351 49.2659 29.403 48.1945 29.6135C47.123 29.8239 46.1109 30.2716 45.2305 30.9246C44.3573 31.6104 43.6331 32.4709 43.103 33.4525C40.1608 46.0856 39.4716 59.149 41.068 72.0273C41.713 74.0859 42.8954 75.9298 44.4905 77.3641C45.3752 78.0514 46.3901 78.5474 47.4721 78.8212C48.5541 79.095 49.6801 79.1408 50.7804 78.9558C51.8884 78.7136 52.9721 78.3689 54.0178 77.9259L57.3478 76.5215L63.5452 73.7126C67.6693 71.2888 71.463 68.3301 74.83 64.9116C75.755 63.9753 76.5874 62.9454 77.5124 61.9155C78.2949 60.9935 78.9772 59.9891 79.5474 58.9194C80.5372 56.7039 80.6367 54.1856 79.8249 51.8973Z" fill="#FDFBF5" stroke="#A47E00" stroke-width="0.07" stroke-miterlimit="10"/>
<g opacity="0.05">
<path d="M53.3703 108.449C82.7956 108.449 106.649 84.3034 106.649 54.5188C106.649 24.7342 82.7956 0.588989 53.3703 0.588989C23.9451 0.588989 0.0911865 24.7342 0.0911865 54.5188C0.0911865 84.3034 23.9451 108.449 53.3703 108.449Z" fill="white"/>
<path d="M53.3703 108.449C82.7956 108.449 106.649 84.3034 106.649 54.5188C106.649 24.7342 82.7956 0.588989 53.3703 0.588989C23.9451 0.588989 0.0911865 24.7342 0.0911865 54.5188C0.0911865 84.3034 23.9451 108.449 53.3703 108.449Z" fill="url(#paint2_linear_1_39)" fill-opacity="0.1" style="mix-blend-mode:screen"/>
<path d="M53.3703 108.449C82.7956 108.449 106.649 84.3034 106.649 54.5188C106.649 24.7342 82.7956 0.588989 53.3703 0.588989C23.9451 0.588989 0.0911865 24.7342 0.0911865 54.5188C0.0911865 84.3034 23.9451 108.449 53.3703 108.449Z" fill="url(#paint3_linear_1_39)" fill-opacity="0.3" style="mix-blend-mode:screen"/>
</g>
<g style="mix-blend-mode:screen">
<path style="mix-blend-mode:screen" d="M53.3704 2.55514C63.5263 2.5554 73.4548 5.59929 81.904 11.303C90.3533 17.0068 96.9451 25.115 100.848 34.6054C104.751 44.0958 105.791 54.5435 103.837 64.6313C101.882 74.7191 97.0206 83.9952 89.8651 91.2903C82.7095 98.5853 73.5804 103.573 63.6286 105.623C53.6768 107.674 43.3479 106.696 33.9443 102.814C24.5406 98.9309 16.4832 92.317 10.7879 83.8056C5.09253 75.2942 2.01427 65.2666 1.94121 54.9869C1.89239 48.1192 3.18662 41.3096 5.74931 34.9504C8.31201 28.5913 12.0925 22.8082 16.873 17.9345C21.6535 13.0608 27.3395 9.19279 33.6034 6.55328C39.8674 3.91377 46.5854 2.55496 53.3704 2.55514ZM53.3704 0.682574C42.8446 0.664334 32.5494 3.80231 23.7838 9.70054C15.0181 15.5988 8.17485 23.9929 4.11747 33.8239C0.0600852 43.6548 -1.0296 54.4819 0.985925 64.939C3.00145 75.3962 8.03185 85.0147 15.4424 92.581C22.8529 100.147 32.3115 105.322 42.6246 107.453C52.9378 109.583 63.6433 108.574 73.3904 104.552C83.1374 100.531 91.4893 93.6769 97.392 84.8556C103.295 76.0343 106.484 65.6409 106.557 54.9869C106.618 47.8777 105.287 40.8267 102.642 34.2409C99.9964 27.655 96.0884 21.6648 91.1435 16.616C86.1985 11.5671 80.3146 7.55968 73.8314 4.82493C67.3482 2.09018 60.394 0.682305 53.3704 0.682574Z" fill="url(#paint4_linear_1_39)"/>
</g>
<g opacity="0.2">
<path opacity="0.2" d="M53.7404 12.2925C61.3253 28.1157 39.6806 29.1456 35.8882 33.3588C32.0957 37.5721 28.3033 59.8556 12.2086 46.7477C6.38117 39.6319 11.0061 26.0558 22.4759 16.5058C33.9457 6.95569 47.913 5.08314 53.7404 12.2925Z" fill="white"/>
</g>
<defs>
<radialGradient id="paint0_radial_1_39" cx="0" cy="0" r="1" gradientUnits="userSpaceOnUse" gradientTransform="translate(56.1138 54.7659) scale(42.4818 43.0006)">
<stop stop-color="white"/>
<stop offset="1"/>
</radialGradient>
<radialGradient id="paint1_radial_1_39" cx="0" cy="0" r="1" gradientUnits="userSpaceOnUse" gradientTransform="translate(56.1138 54.7659) scale(42.4818 43.0006)">
<stop offset="0.56" stop-color="white"/>
<stop offset="0.63" stop-color="#FEFDFC"/>
<stop offset="0.69" stop-color="#FAF8F2"/>
<stop offset="0.74" stop-color="#F4F0E1"/>
<stop offset="0.79" stop-color="#ECE4C9"/>
<stop offset="0.84" stop-color="#E1D4AA"/>
<stop offset="0.89" stop-color="#D3C184"/>
<stop offset="0.93" stop-color="#C3AA57"/>
<stop offset="0.97" stop-color="#B19125"/>
<stop offset="1" stop-color="#A47E00"/>
</radialGradient>
<linearGradient id="paint2_linear_1_39" x1="86.3677" y1="221.632" x2="-101.064" y2="110.464" gradientUnits="userSpaceOnUse">
<stop stop-color="#FAFAFA" stop-opacity="0.09"/>
<stop offset="0.145833" stop-color="white"/>
<stop offset="0.541667" stop-color="white"/>
<stop offset="0.864583" stop-color="#E0E0E0" stop-opacity="0"/>
<stop offset="1" stop-color="white" stop-opacity="0"/>
</linearGradient>
<linearGradient id="paint3_linear_1_39" x1="98.0053" y1="96.6284" x2="-1.82451" y2="80.8441" gradientUnits="userSpaceOnUse">
<stop stop-color="#FAFAFA"/>
<stop offset="0.145833" stop-color="white" stop-opacity="0"/>
<stop offset="0.541667" stop-color="white" stop-opacity="0.02"/>
<stop offset="0.864583" stop-color="white" stop-opacity="0"/>
<stop offset="1" stop-color="white"/>
</linearGradient>
<linearGradient id="paint4_linear_1_39" x1="79.9174" y1="101.239" x2="25.756" y2="8.46102" gradientUnits="userSpaceOnUse">
<stop stop-color="white"/>
<stop offset="0.51" stop-color="white" stop-opacity="0"/>
<stop offset="1" stop-color="white"/>
</linearGradient>
</defs>
</svg>
