<svg width="89" height="89" viewBox="0 0 89 89" fill="none" xmlns="http://www.w3.org/2000/svg">
<g style="mix-blend-mode:darken" opacity="0.7">
<g style="mix-blend-mode:darken">
<path d="M44.5388 88.8002C64.149 88.8002 80.0462 72.98 80.0462 53.4647C80.0462 33.9495 64.149 18.1293 44.5388 18.1293C24.9287 18.1293 9.03146 33.9495 9.03146 53.4647C9.03146 72.98 24.9287 88.8002 44.5388 88.8002Z" fill="white"/>
</g>
<g style="mix-blend-mode:darken">
<path d="M44.5388 88.4922C64.149 88.4922 80.0462 72.672 80.0462 53.1568C80.0462 33.6415 64.149 17.8213 44.5388 17.8213C24.9287 17.8213 9.03146 33.6415 9.03146 53.1568C9.03146 72.672 24.9287 88.4922 44.5388 88.4922Z" fill="#F5F5F5"/>
</g>
<g style="mix-blend-mode:darken">
<path d="M44.5388 88.2613C64.149 88.2613 80.0462 72.4066 80.0462 52.8489C80.0462 33.2911 64.149 17.4364 44.5388 17.4364C24.9287 17.4364 9.03146 33.2911 9.03146 52.8489C9.03146 72.4066 24.9287 88.2613 44.5388 88.2613Z" fill="#EBEBEB"/>
</g>
<g style="mix-blend-mode:darken">
<path d="M44.5388 87.9535C64.149 87.9535 80.0462 72.0988 80.0462 52.541C80.0462 32.9832 64.149 17.1285 44.5388 17.1285C24.9287 17.1285 9.03146 32.9832 9.03146 52.541C9.03146 72.0988 24.9287 87.9535 44.5388 87.9535Z" fill="#E2E2E2"/>
</g>
<g style="mix-blend-mode:darken">
<path d="M44.5388 87.5685C64.149 87.5685 80.0462 71.7138 80.0462 52.156C80.0462 32.5982 64.149 16.7435 44.5388 16.7435C24.9287 16.7435 9.03146 32.5982 9.03146 52.156C9.03146 71.7138 24.9287 87.5685 44.5388 87.5685Z" fill="#D8D8D8"/>
</g>
<g style="mix-blend-mode:darken">
<path d="M44.5388 87.2606C64.149 87.2606 80.0462 71.4059 80.0462 51.8481C80.0462 32.2904 64.149 16.4357 44.5388 16.4357C24.9287 16.4357 9.03146 32.2904 9.03146 51.8481C9.03146 71.4059 24.9287 87.2606 44.5388 87.2606Z" fill="#CECECE"/>
</g>
<g style="mix-blend-mode:darken">
<path d="M44.5388 87.0297C64.149 87.0297 80.0462 71.1405 80.0462 51.5402C80.0462 31.9399 64.149 16.0508 44.5388 16.0508C24.9287 16.0508 9.03146 31.9399 9.03146 51.5402C9.03146 71.1405 24.9287 87.0297 44.5388 87.0297Z" fill="#C4C4C4"/>
</g>
<g style="mix-blend-mode:darken">
<path d="M44.5388 86.7217C64.149 86.7217 80.0462 70.8325 80.0462 51.2322C80.0462 31.632 64.149 15.7428 44.5388 15.7428C24.9287 15.7428 9.03146 31.632 9.03146 51.2322C9.03146 70.8325 24.9287 86.7217 44.5388 86.7217Z" fill="#BABABA"/>
</g>
<g style="mix-blend-mode:darken">
<path d="M44.5388 86.4137C64.149 86.4137 80.0462 70.5245 80.0462 50.9243C80.0462 31.324 64.149 15.4348 44.5388 15.4348C24.9287 15.4348 9.03146 31.324 9.03146 50.9243C9.03146 70.5245 24.9287 86.4137 44.5388 86.4137Z" fill="#B1B1B1"/>
</g>
<g style="mix-blend-mode:darken">
<path d="M44.5388 86.1058C64.149 86.1058 80.0462 70.1821 80.0462 50.5393C80.0462 30.8965 64.149 14.9729 44.5388 14.9729C24.9287 14.9729 9.03146 30.8965 9.03146 50.5393C9.03146 70.1821 24.9287 86.1058 44.5388 86.1058Z" fill="#A7A7A7"/>
</g>
<g style="mix-blend-mode:darken">
<path d="M44.5388 85.7979C64.149 85.7979 80.0462 69.8743 80.0462 50.2315C80.0462 30.5887 64.149 14.665 44.5388 14.665C24.9287 14.665 9.03146 30.5887 9.03146 50.2315C9.03146 69.8743 24.9287 85.7979 44.5388 85.7979Z" fill="#9D9D9D"/>
</g>
<g style="mix-blend-mode:darken">
<path d="M44.5388 85.4899C64.149 85.4899 80.0462 69.5663 80.0462 49.9235C80.0462 30.2807 64.149 14.3571 44.5388 14.3571C24.9287 14.3571 9.03146 30.2807 9.03146 49.9235C9.03146 69.5663 24.9287 85.4899 44.5388 85.4899Z" fill="#939393"/>
</g>
<g style="mix-blend-mode:darken">
<path d="M44.5388 85.259C64.149 85.259 80.0462 69.3009 80.0462 49.6156C80.0462 29.9303 64.149 13.9722 44.5388 13.9722C24.9287 13.9722 9.03146 29.9303 9.03146 49.6156C9.03146 69.3009 24.9287 85.259 44.5388 85.259Z" fill="#898989"/>
</g>
<g style="mix-blend-mode:darken">
<path d="M44.5388 84.8741C64.149 84.8741 80.0462 68.916 80.0462 49.2307C80.0462 29.5454 64.149 13.5873 44.5388 13.5873C24.9287 13.5873 9.03146 29.5454 9.03146 49.2307C9.03146 68.916 24.9287 84.8741 44.5388 84.8741Z" fill="#808080"/>
</g>
<g style="mix-blend-mode:darken">
<path d="M44.5388 84.5661C64.149 84.5661 80.0462 68.608 80.0462 48.9227C80.0462 29.2374 64.149 13.2793 44.5388 13.2793C24.9287 13.2793 9.03146 29.2374 9.03146 48.9227C9.03146 68.608 24.9287 84.5661 44.5388 84.5661Z" fill="#767676"/>
</g>
<g style="mix-blend-mode:darken">
<path d="M44.5388 84.2581C64.149 84.2581 80.0462 68.3 80.0462 48.6147C80.0462 28.9294 64.149 12.9713 44.5388 12.9713C24.9287 12.9713 9.03146 28.9294 9.03146 48.6147C9.03146 68.3 24.9287 84.2581 44.5388 84.2581Z" fill="#6C6C6C"/>
</g>
<g style="mix-blend-mode:darken">
<path d="M44.5388 84.0272C64.149 84.0272 80.0462 68.0346 80.0462 48.3068C80.0462 28.579 64.149 12.5864 44.5388 12.5864C24.9287 12.5864 9.03146 28.579 9.03146 48.3068C9.03146 68.0346 24.9287 84.0272 44.5388 84.0272Z" fill="#626262"/>
</g>
<g style="mix-blend-mode:darken">
<path d="M44.5388 83.7194C64.149 83.7194 80.0462 67.7268 80.0462 47.999C80.0462 28.2711 64.149 12.2786 44.5388 12.2786C24.9287 12.2786 9.03146 28.2711 9.03146 47.999C9.03146 67.7268 24.9287 83.7194 44.5388 83.7194Z" fill="#585858"/>
</g>
<g style="mix-blend-mode:darken">
<path d="M44.5388 83.3344C64.149 83.3344 80.0462 67.3418 80.0462 47.6139C80.0462 27.8861 64.149 11.8936 44.5388 11.8936C24.9287 11.8936 9.03146 27.8861 9.03146 47.6139C9.03146 67.3418 24.9287 83.3344 44.5388 83.3344Z" fill="#4E4E4E"/>
</g>
<g style="mix-blend-mode:darken">
<path d="M44.5388 83.1034C64.149 83.1034 80.0462 67.0764 80.0462 47.306C80.0462 27.5357 64.149 11.5087 44.5388 11.5087C24.9287 11.5087 9.03146 27.5357 9.03146 47.306C9.03146 67.0764 24.9287 83.1034 44.5388 83.1034Z" fill="#454545"/>
</g>
<g style="mix-blend-mode:darken">
<path d="M44.5388 82.7956C64.149 82.7956 80.0462 66.7685 80.0462 46.9982C80.0462 27.2278 64.149 11.2008 44.5388 11.2008C24.9287 11.2008 9.03146 27.2278 9.03146 46.9982C9.03146 66.7685 24.9287 82.7956 44.5388 82.7956Z" fill="#3B3B3B"/>
</g>
<g style="mix-blend-mode:darken">
<path d="M44.5388 82.4876C64.149 82.4876 80.0462 66.4605 80.0462 46.6902C80.0462 26.9199 64.149 10.8928 44.5388 10.8928C24.9287 10.8928 9.03146 26.9199 9.03146 46.6902C9.03146 66.4605 24.9287 82.4876 44.5388 82.4876Z" fill="#313131"/>
</g>
<g style="mix-blend-mode:darken">
<path d="M44.5388 82.1796C64.149 82.1796 80.0462 66.1181 80.0462 46.3053C80.0462 26.4924 64.149 10.4309 44.5388 10.4309C24.9287 10.4309 9.03146 26.4924 9.03146 46.3053C9.03146 66.1181 24.9287 82.1796 44.5388 82.1796Z" fill="#272727"/>
</g>
<g style="mix-blend-mode:darken">
<path d="M44.5388 81.8716C64.149 81.8716 80.0462 65.8101 80.0462 45.9973C80.0462 26.1844 64.149 10.1229 44.5388 10.1229C24.9287 10.1229 9.03146 26.1844 9.03146 45.9973C9.03146 65.8101 24.9287 81.8716 44.5388 81.8716Z" fill="#1D1D1D"/>
</g>
<g style="mix-blend-mode:darken">
<path d="M44.5388 81.5638C64.149 81.5638 80.0462 65.5023 80.0462 45.6894C80.0462 25.8766 64.149 9.81506 44.5388 9.81506C24.9287 9.81506 9.03146 25.8766 9.03146 45.6894C9.03146 65.5023 24.9287 81.5638 44.5388 81.5638Z" fill="#141414"/>
</g>
<g style="mix-blend-mode:darken">
<path d="M44.5388 81.2558C64.149 81.2558 80.0462 65.1943 80.0462 45.3814C80.0462 25.5686 64.149 9.50708 44.5388 9.50708C24.9287 9.50708 9.03146 25.5686 9.03146 45.3814C9.03146 65.1943 24.9287 81.2558 44.5388 81.2558Z" fill="#0A0A0A"/>
</g>
<g style="mix-blend-mode:darken">
<path d="M44.5387 81.0249C64.1489 81.0249 80.0461 64.9289 80.0461 45.0735C80.0461 25.2182 64.1489 9.12219 44.5387 9.12219C24.9285 9.12219 9.03136 25.2182 9.03136 45.0735C9.03136 64.9289 24.9285 81.0249 44.5387 81.0249Z" fill="black"/>
</g>
</g>
<path d="M44.5387 79.9471C64.1489 79.9471 80.0461 64.0924 80.0461 44.5347C80.0461 24.9769 64.1489 9.12219 44.5387 9.12219C24.9285 9.12219 9.03136 24.9769 9.03136 44.5347C9.03136 64.0924 24.9285 79.9471 44.5387 79.9471Z" fill="#FCCB23"/>
<path style="mix-blend-mode:soft-light" d="M44.5387 79.9471C64.1489 79.9471 80.0461 64.0924 80.0461 44.5347C80.0461 24.9769 64.1489 9.12219 44.5387 9.12219C24.9285 9.12219 9.03136 24.9769 9.03136 44.5347C9.03136 64.0924 24.9285 79.9471 44.5387 79.9471Z" fill="url(#paint0_radial_1_955)"/>
<path style="mix-blend-mode:multiply" opacity="0.58" d="M44.5387 79.9471C64.1489 79.9471 80.0461 64.0924 80.0461 44.5347C80.0461 24.9769 64.1489 9.12219 44.5387 9.12219C24.9285 9.12219 9.03136 24.9769 9.03136 44.5347C9.03136 64.0924 24.9285 79.9471 44.5387 79.9471Z" fill="url(#paint1_radial_1_955)"/>
<g style="mix-blend-mode:screen">
<path d="M44.5386 88.8773C69.0939 88.8773 89 69.0244 89 44.5347C89 20.045 69.0939 0.192139 44.5386 0.192139C19.9832 0.192139 0.0771942 20.045 0.0771942 44.5347C0.0771942 69.0244 19.9832 88.8773 44.5386 88.8773Z" fill="url(#paint2_linear_1_955)" fill-opacity="0.1" style="mix-blend-mode:screen"/>
<path d="M44.5386 88.8773C69.0939 88.8773 89 69.0244 89 44.5347C89 20.045 69.0939 0.192139 44.5386 0.192139C19.9832 0.192139 0.0771942 20.045 0.0771942 44.5347C0.0771942 69.0244 19.9832 88.8773 44.5386 88.8773Z" fill="url(#paint3_linear_1_955)" fill-opacity="0.3" style="mix-blend-mode:screen"/>
<path d="M44.5386 88.8773C69.0939 88.8773 89 69.0244 89 44.5347C89 20.045 69.0939 0.192139 44.5386 0.192139C19.9832 0.192139 0.0771942 20.045 0.0771942 44.5347C0.0771942 69.0244 19.9832 88.8773 44.5386 88.8773Z" fill="url(#paint4_linear_1_955)" fill-opacity="0.1" style="mix-blend-mode:screen"/>
<path d="M44.5386 88.8773C69.0939 88.8773 89 69.0244 89 44.5347C89 20.045 69.0939 0.192139 44.5386 0.192139C19.9832 0.192139 0.0771942 20.045 0.0771942 44.5347C0.0771942 69.0244 19.9832 88.8773 44.5386 88.8773Z" fill="url(#paint5_linear_1_955)" fill-opacity="0.3" style="mix-blend-mode:screen"/>
</g>
<path fill-rule="evenodd" clip-rule="evenodd" d="M43.6504 22.4768C42.0606 22.789 40.7448 24.1898 40.5165 25.8132C40.4664 26.1697 40.4302 29.2629 40.4293 33.2917L40.4275 40.1622L40.1986 40.3912L39.9696 40.6201L33.0986 40.6218C29.0696 40.6228 25.9761 40.6589 25.6196 40.709C23.4677 41.0117 21.9112 43.0931 22.2604 45.2009C22.5477 46.9343 23.9016 48.2715 25.6196 48.5188C25.9864 48.5716 28.9534 48.607 33.0986 48.608L39.9696 48.6097L40.1986 48.8387L40.4275 49.0677L40.4293 55.9382C40.4302 59.9669 40.4664 63.0601 40.5165 63.4166C40.7576 65.1305 42.1049 66.4886 43.8513 66.778C45.9441 67.1247 48.0272 65.5609 48.3288 63.4166C48.3789 63.0601 48.415 59.9669 48.416 55.9382L48.4177 49.0677L48.6467 48.8387L48.8757 48.6097L55.7466 48.608C59.8919 48.607 62.8589 48.5716 63.2256 48.5188C64.9437 48.2715 66.2975 46.9343 66.5848 45.2009C66.9345 43.0905 65.3871 41.0222 63.2256 40.711C62.8589 40.6582 59.8919 40.6229 55.7466 40.6218L48.8757 40.6201L48.6467 40.3912L48.4177 40.1622L48.416 33.2917C48.4149 29.1467 48.3796 26.18 48.3268 25.8132C48.0047 23.5761 45.8567 22.0436 43.6504 22.4768Z" fill="white"/>
<path opacity="0.05" d="M44.5386 88.8773C69.0939 88.8773 89 69.0244 89 44.5347C89 20.045 69.0939 0.192139 44.5386 0.192139C19.9832 0.192139 0.0771942 20.045 0.0771942 44.5347C0.0771942 69.0244 19.9832 88.8773 44.5386 88.8773Z" fill="white"/>
<g style="mix-blend-mode:screen">
<path style="mix-blend-mode:screen" d="M44.5386 1.73176C53.0269 1.73176 61.3246 4.2421 68.3823 8.94534C75.4401 13.6486 80.941 20.3335 84.1893 28.1547C87.4376 35.9759 88.2875 44.5821 86.6315 52.8851C84.9756 61.188 80.8881 68.8148 74.8859 74.8009C68.8838 80.7869 61.2366 84.8635 52.9114 86.5151C44.5862 88.1666 35.9569 87.319 28.1147 84.0794C20.2726 80.8397 13.5698 75.3535 8.85393 68.3147C4.13808 61.2758 1.62101 53.0003 1.62101 44.5346C1.62101 33.1826 6.14267 22.2955 14.1913 14.2684C22.2399 6.24133 33.1561 1.73176 44.5386 1.73176ZM44.5386 0.192083C35.7417 0.176852 27.138 2.76455 19.8162 7.6277C12.4944 12.4909 6.78365 19.4109 3.40664 27.5121C0.0296211 35.6133 -0.861883 44.5315 0.844942 53.1382C2.55177 61.7448 6.7802 69.6531 12.9952 75.8623C19.2101 82.0714 27.1322 86.3022 35.759 88.0195C44.3858 89.7367 53.3294 88.863 61.4582 85.5091C69.5869 82.1552 76.5354 76.4718 81.4243 69.178C86.3132 61.8843 88.9228 53.308 88.9228 44.5346C88.9228 32.7876 84.2491 21.5205 75.9277 13.2069C67.6062 4.89327 56.3171 0.212478 44.5386 0.192083Z" fill="url(#paint6_linear_1_955)"/>
</g>
<g opacity="0.2">
<path opacity="0.2" d="M44.8474 9.73803C51.1769 22.8252 33.1145 23.2871 29.9497 27.0593C26.7849 30.8315 23.6201 48.8457 10.1891 38.145C5.32612 32.2172 9.18562 21.0546 18.7572 13.2793C28.3287 5.50393 39.9844 3.88727 44.8474 9.73803Z" fill="white"/>
</g>
<defs>
<radialGradient id="paint0_radial_1_955" cx="0" cy="0" r="1" gradientUnits="userSpaceOnUse" gradientTransform="translate(44.5387 44.5347) scale(35.5074 35.4125)">
<stop stop-color="white"/>
<stop offset="1"/>
</radialGradient>
<radialGradient id="paint1_radial_1_955" cx="0" cy="0" r="1" gradientUnits="userSpaceOnUse" gradientTransform="translate(44.5387 44.5347) scale(35.5074 35.4125)">
<stop offset="0.56" stop-color="white"/>
<stop offset="0.63" stop-color="#FEFDFC"/>
<stop offset="0.69" stop-color="#FAF8F2"/>
<stop offset="0.74" stop-color="#F4F0E1"/>
<stop offset="0.79" stop-color="#ECE4C9"/>
<stop offset="0.84" stop-color="#E1D4AA"/>
<stop offset="0.89" stop-color="#D3C184"/>
<stop offset="0.93" stop-color="#C3AA57"/>
<stop offset="0.97" stop-color="#B19125"/>
<stop offset="1" stop-color="#A47E00"/>
</radialGradient>
<linearGradient id="paint2_linear_1_955" x1="72.0749" y1="181.94" x2="-83.122" y2="88.5163" gradientUnits="userSpaceOnUse">
<stop stop-color="#FAFAFA" stop-opacity="0.09"/>
<stop offset="0.145833" stop-color="white"/>
<stop offset="0.541667" stop-color="white"/>
<stop offset="0.864583" stop-color="#E0E0E0" stop-opacity="0"/>
<stop offset="1" stop-color="white" stop-opacity="0"/>
</linearGradient>
<linearGradient id="paint3_linear_1_955" x1="81.7864" y1="79.1583" x2="-1.4604" y2="65.7996" gradientUnits="userSpaceOnUse">
<stop stop-color="#FAFAFA"/>
<stop offset="0.145833" stop-color="white" stop-opacity="0"/>
<stop offset="0.541667" stop-color="white" stop-opacity="0.02"/>
<stop offset="0.864583" stop-color="white" stop-opacity="0"/>
<stop offset="1" stop-color="white"/>
</linearGradient>
<linearGradient id="paint4_linear_1_955" x1="72.0749" y1="181.94" x2="-83.122" y2="88.5163" gradientUnits="userSpaceOnUse">
<stop stop-color="#FAFAFA" stop-opacity="0.09"/>
<stop offset="0.145833" stop-color="white"/>
<stop offset="0.541667" stop-color="white"/>
<stop offset="0.864583" stop-color="#E0E0E0" stop-opacity="0"/>
<stop offset="1" stop-color="white" stop-opacity="0"/>
</linearGradient>
<linearGradient id="paint5_linear_1_955" x1="81.7864" y1="79.1583" x2="-1.4604" y2="65.7996" gradientUnits="userSpaceOnUse">
<stop stop-color="#FAFAFA"/>
<stop offset="0.145833" stop-color="white" stop-opacity="0"/>
<stop offset="0.541667" stop-color="white" stop-opacity="0.02"/>
<stop offset="0.864583" stop-color="white" stop-opacity="0"/>
<stop offset="1" stop-color="white"/>
</linearGradient>
<linearGradient id="paint6_linear_1_955" x1="66.6906" y1="82.8725" x2="22.4843" y2="6.01767" gradientUnits="userSpaceOnUse">
<stop stop-color="white"/>
<stop offset="0.51" stop-color="white" stop-opacity="0"/>
<stop offset="1" stop-color="white"/>
</linearGradient>
</defs>
</svg>
