<svg width="645" height="381" viewBox="0 0 645 381" fill="none" xmlns="http://www.w3.org/2000/svg">
<path d="M104.321 68.0443C101.909 70.0993 99.6685 72.0065 97.416 73.9261C97.6007 70.9237 97.5514 67.8721 98.0438 64.9066C98.8069 60.3168 99.6316 55.6778 101.035 51.248C102.056 48.0241 104.075 45.1324 105.577 42.0438C106.34 40.4688 107.866 38.5 107.435 37.2572C105.478 31.523 107.755 27.1671 110.759 22.6019C112.507 19.944 112.728 16.1787 114.685 13.7669C118.415 9.15251 123.523 7.71282 129.69 9.80468C129.086 8.79566 128.471 7.78665 127.499 6.16239C142.737 5.11646 157.286 4.10745 173.361 3C171.675 5.39948 171.022 6.33466 169.792 8.09428C172.044 7.74974 173.533 7.86048 174.678 7.28215C178.691 5.26412 180.512 7.06066 181.066 10.826C181.694 15.0589 182.445 19.3411 182.457 23.5986C182.556 64.9312 182.531 106.264 182.482 147.596C182.482 150.439 182.74 153.7 181.473 156.001C179.995 158.671 177.152 162.129 174.58 162.412C161.828 163.814 148.99 164.663 136.164 164.885C132.077 164.959 127.856 162.695 123.917 160.984C123.006 160.59 122.637 158.129 122.624 156.604C122.551 149.897 122.366 143.166 122.834 136.497C123.511 126.85 124.877 117.252 125.665 107.617C126.034 103.089 125.726 98.5116 125.726 93.9587C124.926 93.7987 124.114 93.6388 123.314 93.4665C122.452 94.7708 121.098 95.9644 120.803 97.3795C118.612 107.839 116.642 118.347 114.562 128.831C113.024 136.62 111.633 144.446 109.786 152.161C107.94 159.877 100.358 158.782 95.1882 159.803C90.3508 160.75 83.6918 160.049 80.0361 157.231C76.4788 154.475 75.1126 148.273 73.8325 143.302C71.3215 133.532 69.4752 123.589 67.4688 113.696C66.3487 108.146 65.6471 102.511 64.2809 97.035C63.9608 95.7675 61.6468 95.0046 60.2559 94.0202C59.7759 95.5091 58.8158 97.0226 58.8773 98.4869C59.222 107.027 59.6282 115.566 60.3544 124.069C61.0067 131.735 62.1145 139.364 62.9884 147.018C63.0869 147.83 63.0131 148.655 62.9761 149.467C62.3853 161.341 59.6528 164.405 47.7748 164.848C36.5246 165.266 25.2498 165.229 13.9996 164.996C4.55877 164.799 2.0724 162.129 2.06009 152.555C1.98624 108.774 1.97393 64.9804 2.06009 21.1991C2.08471 11.0721 3.08172 9.95234 16.0675 6.72842C27.133 3.9721 38.2848 1.92946 49.7935 4.98111C53.2768 5.90398 57.1787 5.15338 60.8467 5.55944C70.3245 6.60537 73.6232 13.7669 75.9619 21.5437C78.9406 31.4492 83.6795 41.4163 83.7902 51.3956C83.8764 59.0494 87.2982 64.5866 89.0584 71.1083C89.3169 72.0435 89.44 73.1017 89.28 74.0492C88.3322 79.7095 89.3784 80.6939 94.9543 79.2542C101.663 77.5192 105.207 73.1263 104.334 68.0443H104.321ZM117.652 26.4288C118.476 26.6872 119.301 26.9456 120.138 27.1917C121.529 23.7217 123.067 20.2886 124.212 16.7447C124.446 16.0064 123.437 14.6775 122.698 13.9392C122.501 13.7423 120.593 14.5298 120.421 15.1451C119.35 18.8612 118.55 22.6634 117.664 26.4288H117.652ZM74.891 50.5835C71.0138 58.1757 71.703 62.2733 77.4389 66.2355C76.5896 61.0182 75.8388 56.4284 74.891 50.5835ZM8.58373 13.8776C8.5345 14.4683 8.47296 15.0712 8.42372 15.6619H19.9078C19.9078 15.0712 19.9324 14.4683 19.9324 13.8776H8.58373Z" fill="#FE615D" stroke="white" stroke-width="4" stroke-miterlimit="10"/>
<path d="M505.021 161.956C506.473 162.559 507.925 163.174 509.402 163.79C509.132 164.171 508.935 164.676 508.738 164.688C506.079 164.762 503.26 165.34 500.799 164.651C497.143 163.617 493.647 161.845 490.238 160.098C484.982 157.416 489.179 153.773 489.462 150.512C489.635 148.482 489.708 146.427 489.708 144.385C489.721 106.178 489.721 67.9581 489.708 29.751C489.708 27.5115 489.61 25.2474 489.339 23.0202C489.031 20.5592 487.234 16.9292 488.231 15.9202C491.173 12.9547 495.629 8.62333 498.657 9.18936C504.787 10.3583 507.815 4.858 512.947 4.91952C520.739 5.00566 528.555 4.41502 536.309 4.8703C545.836 5.42403 549.049 12.1549 550.169 20.5715C550.366 22.0604 551.892 23.3278 552.323 24.8413C552.926 26.9455 554.083 29.788 553.209 31.2523C550.785 35.3498 551.769 38.1554 555.043 40.8379C563.918 48.0978 565.924 58.7663 569.174 68.8564C569.826 70.8867 571.562 72.5602 572.793 74.406C573.617 74.2091 574.442 74.0245 575.254 73.8276C575.254 65.9032 575.316 57.9665 575.242 50.042C575.156 40.0627 574.897 30.0833 574.836 20.1039C574.811 15.7972 576.818 13.1147 581.433 12.9793C581.643 12.9793 581.889 13.0162 582.036 12.9301C588.769 8.91865 595.613 5.41172 603.848 7.72507C607.589 1.63408 613.67 3.49214 619.049 3.45522C630.114 3.36909 634.496 7.42975 635.653 18.4181C635.887 20.6453 635.776 22.9095 635.789 25.1613C635.85 64.4512 635.9 103.729 635.949 143.019C635.949 144.446 636.084 145.898 635.912 147.313C634.496 159.064 633.155 161.353 621.203 162.51C610.26 163.568 599.281 164.454 588.302 164.762C576.19 165.106 568.817 155.631 571.66 143.486C570.392 143.376 569.198 143.289 568.681 143.24C563.29 129.483 557.973 115.923 552.655 102.363C551.929 102.461 551.203 102.572 550.477 102.671C550.181 105.538 549.64 108.405 549.615 111.272C549.541 122.728 549.812 134.196 549.541 145.64C549.443 149.639 549.024 154.081 547.153 157.44C545.799 159.889 542.008 161.587 538.98 162.362C534.118 163.605 528.986 163.839 523.964 164.429C523.004 164.54 521.391 164.663 521.12 164.183C517.009 156.997 510.646 161.808 505.501 160.344C505.365 160.886 505.23 161.427 505.107 161.981L505.021 161.956Z" fill="#FE615D" stroke="white" stroke-width="4" stroke-miterlimit="10"/>
<path d="M410.994 100.726C410.502 103.138 409.738 105.624 409.529 108.146C409.221 111.936 410.255 116.231 404.532 117.031C404.15 117.08 404.064 119.209 403.843 120.365C407.831 120.968 411.806 121.842 415.819 122.137C425.174 122.839 434.356 117.978 443.871 121.251C444.941 121.62 446.443 120.488 447.76 120.378C452.794 119.959 457.903 119.073 462.826 119.676C464.611 119.898 466.937 123.614 467.331 126.013C469.104 136.756 469.559 147.473 465.436 158.006C464.106 161.402 462.481 163.014 458.863 163.002C428.755 162.953 398.648 163.027 368.529 162.891C365.784 162.891 363.051 161.686 360.75 162.264C358.854 163.174 356.675 165.192 355.112 164.799C350.792 163.691 346.373 161.932 346.373 156.148C346.348 145.098 346.287 134.048 346.299 122.986C346.311 89.4181 346.299 55.8501 346.398 22.282C346.434 7.1714 347.296 4.14436 364.861 3.82443C394.549 3.2707 424.263 3.65216 453.964 3.67677C464.352 3.67677 466.519 5.91628 466.383 16.4371C466.297 23.3894 466.211 30.354 465.916 37.3064C465.682 42.5729 463.343 45.6492 457.398 45.1816C452.868 44.8248 448.277 45.1078 443.723 45.1078C443.723 45.9322 443.723 46.7689 443.711 47.5934H459.552C459.515 48.2702 459.49 48.9469 459.453 49.6237C450.382 48.0487 440.99 52.9215 432.067 46.5721C430.319 45.3293 426.971 44.6279 425.186 45.4646C419.659 48.0487 415.437 45.8953 411.511 42.9052C409.837 45.6246 408.298 48.1471 407.24 49.8821C408.446 56.0592 409.615 62.0641 410.551 66.8384C416.804 66.1617 422.65 65.4972 428.522 64.9188C435.796 64.2052 443.095 63.6268 450.37 62.8639C454.665 62.4086 457.016 64.1559 457.423 68.4381C458.161 76.2395 461.251 84.0901 456.684 91.7807C456.204 92.5928 456.967 94.094 457.004 95.2876C457.164 100.111 453.791 103.889 448.917 103.926C439.292 104.012 429.654 104.086 420.041 103.741C417.407 103.643 414.822 102.043 411.019 100.702L410.994 100.726Z" fill="#FE615D" stroke="white" stroke-width="4" stroke-miterlimit="10"/>
<path d="M267.683 98.3885C267.08 105.341 266.674 110.706 266.145 116.071C265.763 119.984 268.619 123.355 272.274 123.048C278.946 122.494 285.617 121.854 292.288 121.288C300.609 120.587 308.942 119.935 317.263 119.221C323.442 118.692 327.947 121.817 327.971 128.13C327.996 135.611 330.802 143.794 324.291 150.303C323.799 150.796 323.368 152.223 323.639 152.494C328.931 157.932 322.322 158.117 320.586 160.996C317.017 166.915 312.29 164.565 307.403 165.082V161.796C301.655 162.215 296.252 162.916 290.836 162.953C272.816 163.101 254.808 162.904 236.788 163.088C232.579 163.137 228.27 163.765 224.209 164.872C217.02 166.841 212.466 161.649 206.989 159.052C206.225 158.695 206.09 156.444 206.115 155.09C206.422 137.937 206.989 120.784 207.124 103.618C207.309 80.7062 207.259 57.7942 207.075 34.8823C207.05 31.5476 205.216 28.2129 205.204 24.8783C205.192 19.3287 204.748 13.2131 206.902 8.42648C208.121 5.71938 214.054 4.5627 218.079 3.86132C222.485 3.09841 227.113 3.63983 231.655 3.65213C260.113 3.65213 288.571 3.73827 317.029 3.62752C321.078 3.61522 323.208 4.61192 324.402 8.90638C326.211 15.4403 326.691 21.519 323.873 27.9176C322.789 30.3663 322.752 33.5164 323.036 36.2604C323.946 45.0831 324.02 45.1323 315.552 43.9142C314.998 43.828 314.383 44.0741 312.856 44.3079C314.161 46.1414 315.158 47.5318 317.115 50.2635C309.508 49.5252 302.96 48.8239 296.387 48.2824C291.107 47.8518 285.789 47.7287 280.509 47.2857C278.121 47.0888 275.635 46.7935 273.419 45.9445C268.877 44.2095 266.194 45.5999 266.415 50.3743C266.711 56.5883 267.462 62.7654 268.089 69.8039C281.087 63.2699 293.433 62.827 306.37 67.6998C306.32 68.2289 306.53 67.306 306.456 66.4077C306.382 65.4479 306.062 64.5004 305.828 63.4668C317.017 63.7375 317.497 67.1706 318.112 80.0417C318.395 85.8743 316.512 91.8791 315.17 97.6994C314.358 101.219 312.352 104.024 307.97 103.963C298.344 103.84 288.731 103.95 279.106 103.717C277.444 103.68 275.782 102.498 274.17 101.735C272.274 100.837 270.44 99.8035 267.708 98.3762L267.683 98.3885Z" fill="#FE615D" stroke="white" stroke-width="4" stroke-miterlimit="10"/>
<path d="M117.652 26.4287C118.538 22.6634 119.338 18.8611 120.409 15.145C120.581 14.5298 122.489 13.7422 122.686 13.9391C123.437 14.6774 124.446 16.0064 124.2 16.7447C123.043 20.2885 121.517 23.7216 120.126 27.1916C119.301 26.9332 118.476 26.6748 117.639 26.4287H117.652Z" fill="#FE615D" stroke="white" stroke-width="4" stroke-miterlimit="10"/>
<path d="M74.891 50.5712C75.8388 56.4161 76.5896 61.0181 77.4389 66.2232C71.703 62.2609 71.0137 58.1634 74.891 50.5712Z" fill="#FE615D" stroke="white" stroke-width="4" stroke-miterlimit="10"/>
<path d="M8.58372 13.8777H19.9324C19.9324 14.4683 19.9078 15.0713 19.9078 15.6619H8.42371C8.47294 15.0713 8.53449 14.4683 8.58372 13.8777Z" fill="#FE615D" stroke="white" stroke-width="4" stroke-miterlimit="10"/>
<path d="M387.755 282.336C387.964 265.995 388.173 249.654 388.383 233.313C388.407 231.061 388.506 228.809 388.383 226.57C388.087 221.402 389.712 219.261 395.669 223.235C392.949 213.687 401.688 213.428 405.27 211.939C417.887 206.673 431.697 207.756 445.101 209.109C450.542 209.663 454.21 216.578 454.21 223.9C454.21 265.811 454.173 307.722 454.148 349.62C454.148 354.321 454.333 359.033 454.038 363.722C453.607 370.662 451.354 372.52 444.548 372.877C441.753 373.024 438.91 373.627 436.227 374.452C422.835 378.574 409.406 378.34 395.756 375.719C391.189 374.845 389.884 371.72 388.518 368.385C383.508 356.191 378.573 343.96 373.723 331.704C371.532 326.179 368.184 320.925 369.821 314.415C370.129 313.21 368.713 311.573 368.098 310.146C367.372 309.998 366.633 309.85 365.907 309.715C364.947 312.594 363.224 315.461 363.162 318.365C362.867 332.061 363.187 345.756 362.916 359.452C362.854 362.393 361.07 365.26 360.454 368.238C360.245 369.247 361.18 370.489 361.451 371.24C345.474 377.577 328.451 378.82 311.441 376.986C300.867 375.842 297.286 375.178 297.335 361.716C297.495 317.972 297.606 274.215 297.163 230.471C297.076 222.435 301.064 218.769 307.01 215.594C319.084 209.158 331.578 206.07 345.265 210.057C347.887 210.819 351.776 208.74 353.721 210.02C357.278 212.37 360.971 215.766 362.584 219.581C368.689 233.965 374.597 248.497 379.323 263.362C381.477 270.117 383.558 276.553 387.94 282.139C387.644 284.305 387.361 286.471 387.066 288.649L388.752 289.264C390.155 286.643 391.571 284.034 392.974 281.413L391.632 280.269C390.352 280.958 389.072 281.647 387.792 282.336H387.755Z" fill="#75D2FB" stroke="white" stroke-width="6" stroke-miterlimit="10"/>
<path d="M587.588 209.208C587.981 212.85 588.351 216.234 588.72 219.618C589.545 219.593 590.357 219.581 591.182 219.556C591.699 217.157 592.228 214.769 592.745 212.37C593.102 212.296 593.471 212.222 593.828 212.136C597.201 221.525 600.77 230.852 603.774 240.352C604.401 242.333 603.134 245.064 602.346 247.316C600.401 252.792 601.89 255.893 607.38 258.674C608.943 259.474 610.482 261.455 610.9 263.165C612.144 268.247 612.821 273.464 613.83 279.285C613.67 279.285 614.901 279.285 616.735 279.285C615.996 282.115 615.356 284.6 614.716 287.074C615.233 286.889 615.738 286.692 616.255 286.508C617.855 290.421 619.837 294.223 620.957 298.271C622.126 302.504 622.434 306.983 623.209 311.339C623.455 312.717 623.603 314.477 624.502 315.326C628.6 319.19 629.708 323.398 626.459 328.185C631.468 330.978 634.976 338.152 632.884 342.594C630.57 347.491 633.007 350.764 635.259 354.407C636.601 356.572 637.758 358.849 639.075 361.027C641.709 365.395 642.189 370.231 637.869 373.073C633.918 375.67 629.351 379.14 623.751 376.248C622.901 375.805 621.695 375.522 620.821 375.756C608.229 379.078 595.785 377.331 583.304 374.968C575.574 373.504 571.759 369.062 570.22 359.046C569.063 351.552 566.86 349.669 559.241 350.408C553.443 350.961 547.683 351.946 541.873 352.746C542.094 356.769 542.734 359.809 542.328 362.7C541.036 371.868 531.558 377.835 522.117 376.888C515.495 376.224 508.713 377.38 502.017 377.196C499.395 377.122 496.847 375.485 494.213 374.808C492.392 374.341 490.471 374.242 488.588 374.07C485.068 373.738 481.191 374.292 478.077 373.012C468.033 368.877 467.233 363.525 474.212 355.354C475.603 353.718 475.073 350.457 475.529 347.307C475.923 347.233 477.178 347.011 479.135 346.655C474.187 338.619 479.824 332.122 481.769 325.158C485.56 311.548 489.745 298.05 493.918 284.563C494.263 283.468 495.924 282.841 496.774 281.819C497.549 280.884 498.817 279.42 498.534 278.706C495.395 270.757 500.269 264.58 503.211 258.194C506.534 250.958 512.443 244.867 511.704 235.946C511.556 234.125 513.957 232.169 514.843 230.138C515.421 228.822 516 227.025 515.544 225.807C513.144 219.285 517.526 211.681 524.776 211.164C541.036 210.02 557.333 209.183 573.617 208.469C578.368 208.26 583.156 208.925 587.624 209.171L587.588 209.208ZM566.7 302.627C562.761 297.841 560.841 293.079 565.53 287.812C566.109 287.16 566.072 284.982 565.469 284.416C559.708 278.989 560.853 271.852 560.077 265.097C559.881 263.35 557.493 260.569 556.077 260.544C554.108 260.507 550.723 262.304 550.354 263.879C549.295 268.419 549.11 273.255 549.221 277.956C549.393 285.093 552.089 292.279 546.747 298.96C544.236 302.098 544.728 305.925 549.406 306.983C553.123 307.82 557.173 308.275 560.878 307.672C562.97 307.328 564.644 304.498 566.7 302.615V302.627ZM573.888 359.981C574.614 359.858 575.34 359.747 576.067 359.624C576.608 356.892 577.15 354.148 577.974 350.014C575.931 351.33 573.396 352.081 573.039 353.41C572.509 355.379 573.519 357.766 573.876 359.981H573.888Z" fill="#75D2FB" stroke="white" stroke-width="6" stroke-miterlimit="10"/>
<path d="M271.376 209.54C277.973 221.389 274.071 234.802 273.862 247.722C273.751 254.502 267.068 257.677 259.929 256.889C251.645 255.967 243.312 255.437 235.003 254.613C230.375 254.158 225.747 253.653 221.168 252.866C216.035 251.98 213.34 254.982 214.583 260.286C215.038 262.218 215.235 264.359 214.891 266.278C213.808 272.48 215.051 274.732 221.39 274.436C228.861 274.092 236.259 272.554 243.706 271.705C249.343 271.065 255.005 270.45 260.667 270.277C263.843 270.179 267.363 277.217 267.092 281.869C266.895 285.363 267.388 288.919 266.994 292.389C266.341 298.013 265.763 303.747 263.99 309.05C263.387 310.872 259.35 312.422 256.79 312.582C246.918 313.185 236.997 313.259 227.101 313.296C225.156 313.296 223.211 312.225 221.242 311.794C216.122 310.687 213.241 313.997 214.448 319.116C215.038 321.638 215.26 324.37 214.989 326.93C214.435 332.098 216.195 333.747 221.291 333.193C235.459 331.642 249.651 330.203 263.855 329.095C268.003 328.775 272.25 329.711 278.072 330.215C276.508 337.635 275.081 344.39 273.628 351.269C273.924 351.232 275.007 351.084 276.558 350.875C276.558 356.757 277.53 362.786 276.336 368.361C274.293 377.909 265.209 376.913 258.488 377.109C236.997 377.737 215.469 377.38 193.966 377.393C184.34 377.393 174.703 377.356 165.077 377.331C152.67 377.306 149.741 374.587 149.593 361.913C149.396 345.153 149.482 328.382 149.482 311.622C149.482 283.001 149.42 254.379 149.654 225.758C149.691 221.599 150.578 217.12 152.399 213.44C153.507 211.201 157.113 208.863 159.624 208.826C193.104 208.457 226.596 208.457 260.089 208.457C263.436 208.457 266.784 209.072 271.339 209.527L271.376 209.54ZM156.104 222.435H154.861V311.954C155.279 311.954 155.686 311.954 156.104 311.954V222.435ZM156.166 320.937C155.747 320.949 155.329 320.974 154.91 320.986V365.973C155.329 365.973 155.747 365.973 156.166 365.973V320.937ZM267.991 352.512C268.409 352.512 268.84 352.512 269.259 352.512V340.539C268.84 340.539 268.409 340.539 267.991 340.539V352.512Z" fill="#75D2FB" stroke="white" stroke-width="6" stroke-miterlimit="10"/>
<path d="M126.268 207.78C130.034 219.322 130.883 231.676 127.499 244.215C126.354 248.485 128.422 253.949 122.834 256.545C120.643 257.566 118.501 259.474 116.298 259.523C105.651 259.757 94.9912 259.51 84.3441 259.412C82.9163 259.4 81.4515 259.486 80.0606 259.215C73.377 257.911 70.6691 260.581 71.4076 267.656C71.543 268.961 71.0014 270.339 70.8168 271.68C70.1028 276.897 73.2908 279.531 78.4974 278.165C80.2576 277.71 82.4362 276.873 83.864 277.488C92.6279 281.29 100.592 277.55 108.765 275.384C114.316 273.92 120.938 279.518 121.553 287.197C121.898 291.454 120.409 295.872 119.609 300.191C118.981 303.538 117.602 306.823 117.479 310.17C117.098 319.78 110.156 324.752 100.665 322.697C96.3205 321.762 91.5693 322.844 87.0274 322.623C84.898 322.512 82.3501 322.045 80.7868 320.753C77.5004 318.045 74.8663 317.799 72.9339 321.762C71.7276 324.223 70.6937 327.065 70.6321 329.747C70.3859 341.191 70.5952 352.647 70.5213 364.091C70.4721 372.507 68.5027 374.427 60.1697 374.895C46.9624 375.645 33.7797 376.728 20.5601 377.171C12.1286 377.454 6.922 371.843 6.922 363.525C6.922 316.913 6.94661 270.29 6.95892 223.678C6.95892 212.481 10.9593 208.641 21.9879 208.322C26.5668 208.186 31.1087 206.427 35.6753 206.39C60.342 206.193 85.0088 206.217 109.663 206.353C114.821 206.377 119.966 207.19 126.255 207.731L126.268 207.78Z" fill="#75D2FB" stroke="white" stroke-width="6" stroke-miterlimit="10"/>
</svg>
